<?xml version="1.0" encoding="UTF-8" standalone="no"?>
<!DOCTYPE svg PUBLIC "-//W3C//DTD SVG 20010904//EN"
              "http://www.w3.org/TR/2001/REC-SVG-20010904/DTD/svg10.dtd">

<svg xmlns="http://www.w3.org/2000/svg"
     width="2.31in" height="1.79667in"
     viewBox="0 0 693 539">
  <path id="SP"
        fill="#f4d559" stroke="black" stroke-width="0"
        d="
		M 9.00,466.00
           C 9.00,466.00 168.00,466.00 168.00,466.00
             168.00,466.00 178.00,464.96 178.00,464.96
             178.00,464.96 187.00,464.96 187.00,464.96
             194.34,464.10 206.29,460.74 213.00,457.69
             239.80,445.52 258.65,416.44 259.00,387.00
             259.13,375.82 258.85,367.29 253.63,357.00
             248.03,345.95 238.10,338.07 228.00,331.33
             208.53,318.34 186.82,310.08 165.00,301.95
             117.93,284.41 71.80,271.85 35.00,235.00
             19.53,219.51 11.24,207.12 5.42,186.00
             2.72,176.17 0.88,158.23 1.00,148.00
             1.00,148.00 1.91,138.00 1.91,138.00
             6.13,77.64 44.15,26.62 102.00,7.33
             113.70,3.43 129.69,0.02 142.00,0.00
             142.00,0.00 548.00,0.00 548.00,0.00
             565.87,0.03 589.06,6.80 605.00,14.75
             622.27,23.37 638.83,34.61 651.83,49.00
             703.85,106.59 707.10,190.22 658.55,251.00
             633.69,282.12 588.61,307.94 548.00,308.00
             548.00,308.00 435.00,308.00 435.00,308.00
             435.00,308.00 435.00,539.00 435.00,539.00
             435.00,539.00 361.00,539.00 361.00,539.00
             361.00,539.00 361.00,300.00 361.00,300.00
             361.06,262.53 391.23,235.06 428.00,235.00
             428.00,235.00 505.00,235.00 505.00,235.00
             534.06,235.00 563.94,237.16 588.00,217.69
             593.88,212.93 598.71,208.00 603.32,202.00
             612.33,190.29 616.42,177.48 618.15,163.00
             622.08,130.17 606.42,100.26 578.00,83.45
             570.49,79.01 557.70,75.04 549.00,74.04
             549.00,74.04 541.00,74.04 541.00,74.04
             541.00,74.04 529.00,73.00 529.00,73.00
             529.00,73.00 161.00,73.00 161.00,73.00
             161.00,73.00 149.00,73.91 149.00,73.91
             136.62,74.76 129.79,74.99 118.00,80.31
             92.80,91.67 77.43,115.72 75.74,143.00
             75.74,143.00 75.74,151.00 75.74,151.00
             76.07,159.80 77.59,168.19 81.90,176.00
             91.62,193.62 118.76,208.62 137.00,216.42
             189.77,239.00 248.87,250.99 293.00,289.85
             296.57,292.99 298.46,294.32 301.83,298.00
             310.33,307.29 318.48,317.46 323.69,329.00
             333.37,350.47 333.26,370.15 333.00,393.00
             332.90,401.50 330.45,413.66 328.37,422.00
             316.29,470.54 282.04,508.89 236.00,527.99
             202.47,541.90 175.12,539.00 140.00,539.00
             140.00,539.00 9.00,539.00 9.00,539.00
             9.00,539.00 9.00,466.00 9.00,466.00 Z
           M 1117.50,-49.50" />
</svg>
