<?xml version="1.0" encoding="UTF-8" standalone="no"?>
<!DOCTYPE svg PUBLIC "-//W3C//DTD SVG 20010904//EN"
              "http://www.w3.org/TR/2001/REC-SVG-20010904/DTD/svg10.dtd">

<svg xmlns="http://www.w3.org/2000/svg"
     width="2.31in" height="1.79667in"
     viewBox="0 0 693 539">
  <path id="Auswahl"
        fill="white" stroke="black" stroke-width="0"
        d="M 268.04,104.65
           C 273.48,103.50 282.17,104.00 288.00,104.00
             288.00,104.00 322.00,104.00 322.00,104.00
             322.00,104.00 429.00,104.00 429.00,104.00
             432.15,104.01 435.99,103.79 438.79,105.45
             443.82,108.44 443.82,115.56 438.79,118.55
             435.99,120.21 432.15,119.99 429.00,120.00
             429.00,120.00 296.00,120.00 296.00,120.00
             290.52,120.00 270.95,120.72 267.10,118.99
             261.09,116.29 260.18,108.30 268.04,104.65 Z
           M 202.04,140.65
           C 202.04,140.65 235.00,140.00 235.00,140.00
             235.00,140.00 298.00,140.00 298.00,140.00
             298.00,140.00 496.00,140.00 496.00,140.00
             499.15,140.01 502.99,139.79 505.79,141.45
             510.82,144.44 510.82,151.56 505.79,154.55
             502.99,156.21 499.15,155.99 496.00,156.00
             496.00,156.00 267.00,156.00 267.00,156.00
             267.00,156.00 210.00,156.00 210.00,156.00
             206.49,155.99 202.33,156.26 199.39,153.99
             193.85,149.71 196.37,143.28 202.04,140.65 Z
           M 344.04,176.65
           C 344.04,176.65 380.00,176.00 380.00,176.00
             380.00,176.00 450.00,176.00 450.00,176.00
             453.15,176.01 456.99,175.79 459.79,177.45
             464.82,180.44 464.82,187.56 459.79,190.55
             456.99,192.21 453.15,191.99 450.00,192.00
             450.00,192.00 352.00,192.00 352.00,192.00
             348.49,191.99 344.33,192.26 341.39,189.99
             335.85,185.71 338.37,179.28 344.04,176.65 Z" />
</svg>
