<?xml version="1.0" encoding="UTF-8" standalone="no"?>
<svg
   xmlns:dc="http://purl.org/dc/elements/1.1/"
   xmlns:cc="http://creativecommons.org/ns#"
   xmlns:rdf="http://www.w3.org/1999/02/22-rdf-syntax-ns#"
   xmlns:svg="http://www.w3.org/2000/svg"
   xmlns="http://www.w3.org/2000/svg"

   width="6.2638674in"
   height="11.818153in"
   viewBox="0 0 450.99813 850.90995">

  <path
     id="Auswahl #3"
     fill="#000000"
     stroke="#000000"
     stroke-width="1"
     d="m 36.499052,0.5 c -21.04,5.06 -35.97000042,22.15 -36.00000042,43.91 0,0 0,148 0,148 0,0 0,614 0,614 0.01,6.35 0.35,10.03 2.87000002,16 6.9200004,16.39 22.1000004,27.91 40.1300004,28 0,0 50,0 50,0 0,0 312.999998,0 312.999998,0 24.48,-0.04 43.96,-19.52 44,-44 0,0 0,-58 0,-58 0,0 0,-343 0,-343 0,0 0,-361 0,-361 -0.01,-6.35 -0.35,-10.03 -2.87,-16 -6.92,-16.39 -22.1,-27.91 -40.13,-27.91 0,0 -48,0 -48,0 0,0 -215,0 -215,0 0,0 -69.999998,0 -69.999998,0 0,0 -38,0 -38,0 z m 15,29.98 c 0,0 40,0 40,0 0,0 75.999998,0 75.999998,0 0,0 225,0 225,0 9.49,-0.06 20.68,0.26 25.55,9.93 1.84,3.66 2.44,13.69 2.45,18 0,0 0,149 0,149 0,0 0,585 0,585 -0.01,8.24 -0.17,17.99 -7.04,23.61 -4.52,3.69 -13.21,4.32 -18.96,4.39 0,0 -58,0 -58,0 0,0 -277.999998,0 -277.999998,0 -9.76,-0.02 -21.7,-0.44 -25.99,-11 -1.09,-2.68 -1.97,-11.86 -2.01,-15 0,0 0,-118 0,-118 0,0 0,-476 0,-476 0,0 0,-144 0,-144 0.11,-9.28 1.13,-19.98 11,-23.99 2.31,-0.94 7.27,-1.33 10,-1.94 z M 217.49905,172.94 c -14.22,4.2 -22.93,14.47 -23,29.47 -0.01,2.88 -0.11,6.21 0.53,9 3.05,13.29 14.93,22.83 28.47,23 10.43,0.12 18.55,-1.73 25.79,-10.02 4.67,-5.34 7.12,-11.94 7.21,-18.98 0.03,-3.01 0.13,-7.12 -0.53,-10 -3.22,-14.03 -15.4,-22.94 -29.47,-23 -3.48,-0.01 -5.52,-0.04 -9,0.53 z m 4,10.8 c 9.62,-1.07 18.04,2.46 22.43,11.67 5.27,11.04 -2.54,25.53 -14.43,27.67 -19.32,3.48 -33.81,-20.45 -16,-35.45 2.96,-2.49 4.37,-2.99 8,-3.89 z M 76.539052,73.99 c -7.16,4.33 -5.05,14.1 -5.04,21.42 0.01,4.03 -0.39,8.53 3.23,11.26 3.44,2.6 14.23,1.75 18.77,1.74 3.62,-0.01 7.779998,0.36 10.569998,-2.43 3.59,-3.59 2.46,-15.47 2.43,-20.57 -0.02,-2.97 0.15,-6.27 -1.74,-8.77 -1.13,-1.5 -2.49,-2.3 -4.28,-2.65 -3.669998,-1.19 -20.079998,-0.79 -23.939998,0 z m 7.01,6.76 c 3.43,-0.41 11.53,-1.06 14.1,1.51 2.769998,2.78 2.729998,15.48 -0.66,17.84 -2.14,1.48 -6.91,1.36 -9.49,1.3 -2.29,-0.06 -5.42,-0.12 -7.15,-1.84 -2.51,-2.52 -2.51,-13.8 -0.54,-16.64 1.11,-1.6 2.09,-1.62 3.74,-2.17 z m -19.05,-24.69 c -8.82,3.71 -9.99,8.58 -10,17.35 0,0 0,40 0,40 0.07,12.72 5.81,16.98 18,17 0,0 85.999998,0 85.999998,0 7.23,-0.01 12.86,-0.72 16.55,-8 2.04,-4.03 1.45,-11.38 1.45,-16 0,0 0,-33 0,-33 -0.02,-13.12 -4.88,-17.98 -18,-18 0,0 -61.999998,0 -61.999998,0 0,0 -32,0.65 -32,0.65 z m 9,9.45 c 0,0 29.999998,0 29.999998,0 0,0 49,0 49,0 11.92,0.04 13.95,3.49 14,14.9 0,0 0,24 0,24 -0.01,4.71 0.31,11.12 -4.14,14.07 -4.23,2.8 -18.33,1.93 -23.86,1.93 0,0 -57.999998,0 -57.999998,0 -3.93,-0.01 -9.57,0.17 -12.7,-2.56 -3.11,-2.71 -3.25,-7.63 -3.3,-11.44 0,0 0,-26 0,-26 0.04,-8.01 0.18,-12.74 9,-14.9 z" />
  <path
     id="Auswahl #1"
     fill="#000000"
     stroke="#000000"
     stroke-width="0.273552"
     d="m 183.24116,371.63344 c 0,0 -13.95113,8.16552 -13.95113,8.16552 -1.01488,0.58266 -4.08139,2.13917 -4.48625,3.09934 -0.19696,0.47051 -0.16413,1.34314 -0.16413,1.86562 0,0 0,6.01814 0,6.01814 0.041,2.16653 0.7085,2.44828 2.73552,2.46196 0,0 13.13048,0 13.13048,0 2.64798,-0.005 3.0036,-0.36109 3.00907,-3.00907 0,0 0,-12.58338 0,-12.58338 0,-1.47991 0.21337,-4.78989 -0.27356,-6.01813 z m 1.09421,0.27355 c 0,0 0,18.32796 0,18.32796 0.005,2.09541 0.0821,2.9653 2.46197,3.00907 0,0 13.40403,0 13.40403,0 0.75774,-0.003 1.76167,0.0793 2.37716,-0.43768 0.6237,-0.52796 0.61823,-1.27749 0.63191,-2.02428 0,0 0,-6.01814 0,-6.01814 -0.005,-2.64251 -0.27082,-2.42093 -4.10328,-4.60935 0,0 -9.30076,-5.3534 -9.30076,-5.3534 -1.63583,-0.94923 -3.69841,-2.37717 -5.47103,-2.89418 z m -20.78993,11.21562 c 0,0 -17.23375,9.84786 -17.23375,9.84786 1.18994,0.47324 3.56984,0.27355 4.92393,0.27355 0,0 9.57431,0 9.57431,0 0.86989,-0.003 1.95042,0.10395 2.57138,-0.6319 0.48145,-0.57173 0.43221,-1.40332 0.43768,-2.10362 0.0109,-1.61942 0.22979,-6.11661 -0.27355,-7.38589 z m 40.48565,0 c 0,0 0,7.38589 0,7.38589 0.0164,2.53036 0.63464,2.73005 3.00907,2.73552 0,0 14.49824,0 14.49824,0 0,0 -8.20655,-4.8829 -8.20655,-4.8829 0,0 -9.30076,-5.23851 -9.30076,-5.23851 z m -59.08716,10.94207 c 0,0 0,21.88413 0,21.88413 0,0 15.866,0 15.866,0 2.37442,-0.005 2.99265,-0.20516 3.00906,-2.73552 0,0 0,-16.13955 0,-16.13955 -0.005,-2.37442 -0.20516,-2.99265 -2.73551,-3.00906 0,0 -16.13955,0 -16.13955,0 z m 20.55741,0.27902 c -1.34588,1.19268 -0.86169,3.52882 -0.86169,5.19201 0,0 0,13.40403 0,13.40403 0.005,2.09541 0.0821,2.9653 2.46196,3.00907 0,0 13.40404,0 13.40404,0 2.37443,-0.005 2.99265,-0.20516 3.00907,-2.73552 0,0 0,-16.13955 0,-16.13955 -0.005,-2.37442 -0.20517,-2.99265 -2.73552,-3.00906 0,0 -10.12141,0 -10.12141,0 -1.51822,0 -3.77775,-0.21064 -5.15645,0.27902 z m 19.69572,0 c -1.34588,1.19268 -0.86169,3.52882 -0.86169,5.19201 0,0 0,13.40403 0,13.40403 0.005,2.09541 0.0821,2.9653 2.46197,3.00907 0,0 13.40403,0 13.40403,0 2.37443,-0.005 2.99265,-0.20516 3.00907,-2.73552 0,0 0,-16.13955 0,-16.13955 -0.005,-2.37442 -0.20517,-2.99265 -2.73552,-3.00906 0,0 -10.12141,0 -10.12141,0 -1.51821,0 -3.77775,-0.21064 -5.15645,0.27902 z m 37.7091,21.60511 c 0,0 0,-21.88413 0,-21.88413 0,0 -15.866,0 -15.866,0 -2.37443,0.005 -2.99265,0.20516 -3.00907,2.73551 0,0 0,16.13955 0,16.13955 0.005,2.37443 0.20517,2.99266 2.73552,3.00907 0,0 16.13955,0 16.13955,0 z m -77.96223,0.82066 c 0,0 0,21.61058 0,21.61058 0,0 15.866,0 15.866,0 2.37442,-0.005 2.99265,-0.20516 3.00906,-2.73552 0,0 0,-15.866 0,-15.866 -0.005,-2.37442 -0.20516,-2.99265 -2.73551,-3.00906 0,0 -16.13955,0 -16.13955,0 z m 20.55741,0.27902 c -1.30758,1.15712 -0.86169,3.30724 -0.86169,4.91846 0,0 0,13.40403 0,13.40403 0.005,2.09541 0.0821,2.9653 2.46196,3.00907 0,0 13.40404,0 13.40404,0 2.37443,-0.005 2.99265,-0.20516 3.00907,-2.73552 0,0 0,-15.866 0,-15.866 -0.005,-2.37442 -0.20517,-2.99265 -2.73552,-3.00906 0,0 -10.12141,0 -10.12141,0 -1.51822,0 -3.77775,-0.21064 -5.15645,0.27902 z m 19.69572,0 c -1.30758,1.15712 -0.86169,3.30724 -0.86169,4.91846 0,0 0,13.40403 0,13.40403 0.005,2.09541 0.0821,2.9653 2.46197,3.00907 0,0 13.40403,0 13.40403,0 2.37443,-0.005 2.99265,-0.20516 3.00907,-2.73552 0,0 0,-15.866 0,-15.866 -0.005,-2.37442 -0.20517,-2.99265 -2.73552,-3.00906 0,0 -10.12141,0 -10.12141,0 -1.51821,0 -3.77775,-0.21064 -5.15645,0.27902 z m 37.7091,21.33156 c 0,0 0,-21.61058 0,-21.61058 0,0 -15.866,0 -15.866,0 -2.37443,0.005 -2.99265,0.20516 -3.00907,2.73551 0,0 0,15.866 0,15.866 0.005,2.37443 0.20517,2.99266 2.73552,3.00907 0,0 16.13955,0 16.13955,0 z m -76.59447,0.82065 c 0,0 10.12141,6.09474 10.12141,6.09474 0,0 7.38589,4.02668 7.38589,4.02668 0,0 0,-7.3859 0,-7.3859 -0.0164,-2.53035 -0.63464,-2.73004 -3.00906,-2.73552 0,0 -14.49824,0 -14.49824,0 z m 37.20303,21.61059 c 0,0 0,-18.60152 0,-18.60152 -0.005,-2.0954 -0.0821,-2.9653 -2.46197,-3.00907 0,0 -13.40403,0 -13.40403,0 -0.75774,0.003 -1.76167,-0.0793 -2.37717,0.43769 -0.62369,0.52795 -0.61822,1.27748 -0.6319,2.02428 0,0 0,6.29169 0,6.29169 0,0.47871 -0.0383,1.38964 0.15592,1.80818 0.35289,0.76047 3.36469,2.31151 4.22091,2.80116 0,0 14.49824,8.24759 14.49824,8.24759 z m 0.82065,0 c 0,0 6.29169,-3.55344 6.29169,-3.55344 0,0 7.933,-4.57652 7.933,-4.57652 1.09147,-0.62096 4.04583,-2.02702 4.48625,-3.11302 0.19695,-0.48418 0.16413,-1.35408 0.16413,-1.8875 0,0 0,-5.47104 0,-5.47104 -0.005,-2.0954 -0.0821,-2.9653 -2.46197,-3.00907 0,0 -13.40403,0 -13.40403,0 -0.64285,0 -1.5866,-0.052 -2.14738,0.27903 -1.26107,0.74679 -0.86169,3.85981 -0.86169,5.19201 0,0 0,16.13955 0,16.13955 z m 19.69572,-11.48917 c 0,0 6.29169,-3.44128 6.29169,-3.44128 0,0 11.21562,-6.40658 11.21562,-6.40658 -1.18995,-0.47325 -3.56985,-0.27356 -4.92393,-0.27356 0,0 -9.84786,0 -9.84786,0 -0.80971,0.005 -1.72064,-0.052 -2.29783,0.63191 -0.51702,0.61549 -0.43495,1.61943 -0.43769,2.37716 0,0 0,7.11235 0,7.11235 z" />
  <path
     id="Auswahl #1-7"
     fill="#000000"
     stroke="#000000"
     stroke-width="0.273552"
     d="m 143.77784,303.55745 c 0,0 -13.95113,8.16551 -13.95113,8.16551 -1.01488,0.58266 -4.08139,2.13918 -4.48625,3.09934 -0.19696,0.47051 -0.16413,1.34314 -0.16413,1.86562 0,0 0,6.01814 0,6.01814 0.041,2.16653 0.7085,2.44828 2.73552,2.46196 0,0 13.13048,0 13.13048,0 2.64798,-0.005 3.0036,-0.36109 3.00907,-3.00907 0,0 0,-12.58338 0,-12.58338 0,-1.47991 0.21337,-4.78989 -0.27356,-6.01812 z m 1.09421,0.27355 c 0,0 0,18.32795 0,18.32795 0.005,2.09541 0.0821,2.9653 2.46197,3.00907 0,0 13.40403,0 13.40403,0 0.75774,-0.003 1.76167,0.0793 2.37716,-0.43768 0.6237,-0.52796 0.61823,-1.27749 0.63191,-2.02428 0,0 0,-6.01814 0,-6.01814 -0.005,-2.64251 -0.27082,-2.42093 -4.10328,-4.60935 0,0 -9.30076,-5.3534 -9.30076,-5.3534 -1.63583,-0.94923 -3.69841,-2.37716 -5.47103,-2.89417 z m -20.78993,11.21561 c 0,0 -17.23375,9.84786 -17.23375,9.84786 1.18994,0.47324 3.56984,0.27355 4.92393,0.27355 0,0 9.57431,0 9.57431,0 0.86989,-0.003 1.95042,0.10395 2.57138,-0.6319 0.48145,-0.57173 0.43221,-1.40332 0.43768,-2.10362 0.0109,-1.61942 0.22979,-6.11661 -0.27355,-7.38589 z m 40.48565,0 c 0,0 0,7.38589 0,7.38589 0.0164,2.53036 0.63464,2.73005 3.00907,2.73552 0,0 14.49823,0 14.49823,0 0,0 -8.20654,-4.8829 -8.20654,-4.8829 0,0 -9.30076,-5.23851 -9.30076,-5.23851 z m -59.08716,10.94207 c 0,0 0,21.88413 0,21.88413 0,0 15.866,0 15.866,0 2.37442,-0.005 2.99265,-0.20516 3.00906,-2.73552 0,0 0,-16.13955 0,-16.13955 -0.005,-2.37442 -0.20516,-2.99265 -2.73551,-3.00906 0,0 -16.13955,0 -16.13955,0 z m 20.55741,0.27902 c -1.34588,1.19268 -0.86169,3.52882 -0.86169,5.19201 0,0 0,13.40403 0,13.40403 0.005,2.09541 0.0821,2.9653 2.46196,3.00907 0,0 13.40404,0 13.40404,0 2.37443,-0.005 2.99265,-0.20516 3.00907,-2.73552 0,0 0,-16.13955 0,-16.13955 -0.005,-2.37442 -0.20517,-2.99265 -2.73552,-3.00906 0,0 -10.12141,0 -10.12141,0 -1.51822,0 -3.77775,-0.21064 -5.15645,0.27902 z m 19.69572,0 c -1.34588,1.19268 -0.86169,3.52882 -0.86169,5.19201 0,0 0,13.40403 0,13.40403 0.005,2.09541 0.0821,2.9653 2.46197,3.00907 0,0 13.40403,0 13.40403,0 2.37443,-0.005 2.99265,-0.20516 3.00907,-2.73552 0,0 0,-16.13955 0,-16.13955 -0.005,-2.37442 -0.20517,-2.99265 -2.73552,-3.00906 0,0 -10.12141,0 -10.12141,0 -1.51821,0 -3.77775,-0.21064 -5.15645,0.27902 z m 37.7091,21.60511 c 0,0 0,-21.88413 0,-21.88413 0,0 -15.866,0 -15.866,0 -2.37443,0.005 -2.99265,0.20516 -3.00907,2.73551 0,0 0,16.13955 0,16.13955 0.005,2.37443 0.20517,2.99266 2.73552,3.00907 0,0 16.13955,0 16.13955,0 z m -77.96223,0.82066 c 0,0 0,21.61058 0,21.61058 0,0 15.866,0 15.866,0 2.37442,-0.005 2.99265,-0.20516 3.00906,-2.73552 0,0 0,-15.866 0,-15.866 -0.005,-2.37442 -0.20516,-2.99265 -2.73551,-3.00906 0,0 -16.13955,0 -16.13955,0 z m 20.55741,0.27902 c -1.30758,1.15712 -0.86169,3.30724 -0.86169,4.91846 0,0 0,13.40403 0,13.40403 0.005,2.09541 0.0821,2.9653 2.46196,3.00907 0,0 13.40404,0 13.40404,0 2.37443,-0.005 2.99265,-0.20516 3.00907,-2.73552 0,0 0,-15.866 0,-15.866 -0.005,-2.37442 -0.20517,-2.99265 -2.73552,-3.00906 0,0 -10.12141,0 -10.12141,0 -1.51822,0 -3.77775,-0.21064 -5.15645,0.27902 z m 19.69572,0 c -1.30758,1.15712 -0.86169,3.30724 -0.86169,4.91846 0,0 0,13.40403 0,13.40403 0.005,2.09541 0.0821,2.9653 2.46197,3.00907 0,0 13.40403,0 13.40403,0 2.37443,-0.005 2.99265,-0.20516 3.00907,-2.73552 0,0 0,-15.866 0,-15.866 -0.005,-2.37442 -0.20517,-2.99265 -2.73552,-3.00906 0,0 -10.12141,0 -10.12141,0 -1.51821,0 -3.77775,-0.21064 -5.15645,0.27902 z m 37.7091,21.33156 c 0,0 0,-21.61058 0,-21.61058 0,0 -15.866,0 -15.866,0 -2.37443,0.005 -2.99265,0.20516 -3.00907,2.73551 0,0 0,15.866 0,15.866 0.005,2.37443 0.20517,2.99266 2.73552,3.00907 0,0 16.13955,0 16.13955,0 z m -76.59447,0.82065 c 0,0 10.12141,6.09474 10.12141,6.09474 0,0 7.38589,4.02668 7.38589,4.02668 0,0 0,-7.3859 0,-7.3859 -0.0164,-2.53035 -0.63464,-2.73004 -3.00906,-2.73552 0,0 -14.49824,0 -14.49824,0 z m 37.20303,21.61059 c 0,0 0,-18.60152 0,-18.60152 -0.005,-2.0954 -0.0821,-2.9653 -2.46197,-3.00907 0,0 -13.40403,0 -13.40403,0 -0.75774,0.003 -1.76167,-0.0793 -2.37717,0.43769 -0.62369,0.52795 -0.61822,1.27748 -0.6319,2.02428 0,0 0,6.29169 0,6.29169 0,0.47871 -0.0383,1.38964 0.15592,1.80818 0.35289,0.76047 3.36469,2.31151 4.22091,2.80116 0,0 14.49824,8.24759 14.49824,8.24759 z m 0.82065,0 c 0,0 6.29169,-3.55344 6.29169,-3.55344 0,0 7.933,-4.57652 7.933,-4.57652 1.09147,-0.62096 4.04583,-2.02702 4.48625,-3.11301 0.19695,-0.48419 0.16413,-1.35409 0.16413,-1.88751 0,0 0,-5.47104 0,-5.47104 -0.005,-2.0954 -0.0821,-2.9653 -2.46197,-3.00907 0,0 -13.40403,0 -13.40403,0 -0.64285,0 -1.5866,-0.052 -2.14738,0.27903 -1.26107,0.74679 -0.86169,3.85981 -0.86169,5.19201 0,0 0,16.13955 0,16.13955 z m 19.69572,-11.48917 c 0,0 6.29169,-3.44128 6.29169,-3.44128 0,0 11.21561,-6.40658 11.21561,-6.40658 -1.18994,-0.47325 -3.56984,-0.27356 -4.92392,-0.27356 0,0 -9.84786,0 -9.84786,0 -0.80971,0.005 -1.72064,-0.052 -2.29783,0.63191 -0.51702,0.61549 -0.43495,1.61943 -0.43769,2.37716 0,0 0,7.11235 0,7.11235 z" />
  <path
     id="Auswahl #1-75"
     fill="#000000"
     stroke="#000000"
     stroke-width="0.273552"
     d="m 222.75325,303.67139 c 0,0 -13.95113,8.16552 -13.95113,8.16552 -1.01488,0.58266 -4.08139,2.13917 -4.48625,3.09934 -0.19696,0.47051 -0.16413,1.34314 -0.16413,1.86562 0,0 0,6.01814 0,6.01814 0.041,2.16653 0.7085,2.44828 2.73552,2.46196 0,0 13.13048,0 13.13048,0 2.64798,-0.005 3.0036,-0.36109 3.00907,-3.00907 0,0 0,-12.58338 0,-12.58338 0,-1.47991 0.21337,-4.78989 -0.27356,-6.01813 z m 1.09421,0.27355 c 0,0 0,18.32796 0,18.32796 0.005,2.09541 0.0821,2.9653 2.46197,3.00907 0,0 13.40402,0 13.40402,0 0.75775,-0.003 1.76168,0.0793 2.37716,-0.43768 0.6237,-0.52796 0.61824,-1.27749 0.63192,-2.02428 0,0 0,-6.01814 0,-6.01814 -0.005,-2.64251 -0.27082,-2.42093 -4.10328,-4.60935 0,0 -9.30076,-5.3534 -9.30076,-5.3534 -1.63583,-0.94923 -3.69841,-2.37717 -5.47103,-2.89418 z m -20.78993,11.21562 c 0,0 -17.23376,9.84786 -17.23376,9.84786 1.18995,0.47324 3.56985,0.27355 4.92393,0.27355 0,0 9.57432,0 9.57432,0 0.86989,-0.003 1.95042,0.10395 2.57138,-0.6319 0.48145,-0.57173 0.43221,-1.40332 0.43768,-2.10362 0.0109,-1.61942 0.22979,-6.11661 -0.27355,-7.38589 z m 40.48564,0 c 0,0 0,7.38589 0,7.38589 0.0164,2.53036 0.63465,2.73005 3.00907,2.73552 0,0 14.49824,0 14.49824,0 0,0 -8.20655,-4.8829 -8.20655,-4.8829 0,0 -9.30076,-5.23851 -9.30076,-5.23851 z m -59.08715,10.94207 c 0,0 0,21.88413 0,21.88413 0,0 15.866,0 15.866,0 2.37442,-0.005 2.99265,-0.20516 3.00906,-2.73552 0,0 0,-16.13955 0,-16.13955 -0.005,-2.37442 -0.20516,-2.99265 -2.73551,-3.00906 0,0 -16.13955,0 -16.13955,0 z m 20.55741,0.27902 c -1.34588,1.19268 -0.86169,3.52882 -0.86169,5.19201 0,0 0,13.40403 0,13.40403 0.005,2.09541 0.0821,2.9653 2.46196,3.00907 0,0 13.40404,0 13.40404,0 2.37443,-0.005 2.99265,-0.20516 3.00907,-2.73552 0,0 0,-16.13955 0,-16.13955 -0.005,-2.37442 -0.20517,-2.99265 -2.73552,-3.00906 0,0 -10.12141,0 -10.12141,0 -1.51822,0 -3.77775,-0.21064 -5.15645,0.27902 z m 19.69572,0 c -1.34588,1.19268 -0.86169,3.52882 -0.86169,5.19201 0,0 0,13.40403 0,13.40403 0.005,2.09541 0.0821,2.9653 2.46197,3.00907 0,0 13.40402,0 13.40402,0 2.37443,-0.005 2.99265,-0.20516 3.00908,-2.73552 0,0 0,-16.13955 0,-16.13955 -0.005,-2.37442 -0.20517,-2.99265 -2.73553,-3.00906 0,0 -10.1214,0 -10.1214,0 -1.51821,0 -3.77775,-0.21064 -5.15645,0.27902 z m 37.7091,21.60511 c 0,0 0,-21.88413 0,-21.88413 0,0 -15.86601,0 -15.86601,0 -2.37442,0.005 -2.99265,0.20516 -3.00907,2.73551 0,0 0,16.13955 0,16.13955 0.005,2.37443 0.20517,2.99266 2.73552,3.00907 0,0 16.13956,0 16.13956,0 z m -77.96223,0.82066 c 0,0 0,21.61058 0,21.61058 0,0 15.866,0 15.866,0 2.37442,-0.005 2.99265,-0.20516 3.00906,-2.73552 0,0 0,-15.866 0,-15.866 -0.005,-2.37442 -0.20516,-2.99265 -2.73551,-3.00906 0,0 -16.13955,0 -16.13955,0 z m 20.55741,0.27902 c -1.30758,1.15712 -0.86169,3.30724 -0.86169,4.91846 0,0 0,13.40403 0,13.40403 0.005,2.09541 0.0821,2.9653 2.46196,3.00907 0,0 13.40404,0 13.40404,0 2.37443,-0.005 2.99265,-0.20516 3.00907,-2.73552 0,0 0,-15.866 0,-15.866 -0.005,-2.37442 -0.20517,-2.99265 -2.73552,-3.00906 0,0 -10.12141,0 -10.12141,0 -1.51822,0 -3.77775,-0.21064 -5.15645,0.27902 z m 19.69572,0 c -1.30758,1.15712 -0.86169,3.30724 -0.86169,4.91846 0,0 0,13.40403 0,13.40403 0.005,2.09541 0.0821,2.9653 2.46197,3.00907 0,0 13.40402,0 13.40402,0 2.37443,-0.005 2.99265,-0.20516 3.00908,-2.73552 0,0 0,-15.866 0,-15.866 -0.005,-2.37442 -0.20517,-2.99265 -2.73553,-3.00906 0,0 -10.1214,0 -10.1214,0 -1.51821,0 -3.77775,-0.21064 -5.15645,0.27902 z m 37.7091,21.33156 c 0,0 0,-21.61058 0,-21.61058 0,0 -15.86601,0 -15.86601,0 -2.37442,0.005 -2.99265,0.20516 -3.00907,2.73551 0,0 0,15.866 0,15.866 0.005,2.37443 0.20517,2.99266 2.73552,3.00907 0,0 16.13956,0 16.13956,0 z m -76.59448,0.82065 c 0,0 10.12142,6.09474 10.12142,6.09474 0,0 7.38589,4.02668 7.38589,4.02668 0,0 0,-7.3859 0,-7.3859 -0.0164,-2.53035 -0.63464,-2.73004 -3.00906,-2.73552 0,0 -14.49825,0 -14.49825,0 z m 37.20304,21.61059 c 0,0 0,-18.60152 0,-18.60152 -0.005,-2.0954 -0.0821,-2.9653 -2.46197,-3.00907 0,0 -13.40403,0 -13.40403,0 -0.75774,0.003 -1.76167,-0.0793 -2.37717,0.43769 -0.62369,0.52795 -0.61822,1.27748 -0.6319,2.02428 0,0 0,6.29169 0,6.29169 0,0.47871 -0.0383,1.38964 0.15592,1.80818 0.35289,0.76046 3.36469,2.31151 4.22091,2.80115 0,0 14.49824,8.2476 14.49824,8.2476 z m 0.82065,0 c 0,0 6.29169,-3.55344 6.29169,-3.55344 0,0 7.933,-4.57653 7.933,-4.57653 1.09147,-0.62095 4.04583,-2.02701 4.48624,-3.11301 0.19696,-0.48419 0.16414,-1.35408 0.16414,-1.8875 0,0 0,-5.47104 0,-5.47104 -0.005,-2.0954 -0.0821,-2.9653 -2.46198,-3.00907 0,0 -13.40402,0 -13.40402,0 -0.64285,0 -1.5866,-0.052 -2.14738,0.27903 -1.26107,0.74679 -0.86169,3.85981 -0.86169,5.19201 0,0 0,16.13955 0,16.13955 z m 19.69571,-11.48917 c 0,0 6.29169,-3.44128 6.29169,-3.44128 0,0 11.21562,-6.40658 11.21562,-6.40658 -1.18995,-0.47325 -3.56985,-0.27356 -4.92393,-0.27356 0,0 -9.84786,0 -9.84786,0 -0.8097,0.005 -1.72063,-0.052 -2.29782,0.63191 -0.51703,0.61549 -0.43496,1.61943 -0.4377,2.37716 0,0 0,7.11235 0,7.11235 z" />
  <path
     id="Auswahl #1-6"
     fill="#000000"
     stroke="#000000"
     stroke-width="0.273552"
     d="m 104.83243,235.13042 c 0,0 -13.951123,8.16552 -13.951123,8.16552 -1.01488,0.58266 -4.08139,2.13918 -4.48625,3.09934 -0.19696,0.47051 -0.16413,1.34314 -0.16413,1.86562 0,0 0,6.01814 0,6.01814 0.041,2.16653 0.7085,2.44828 2.73552,2.46196 0,0 13.130473,0 13.130473,0 2.64798,-0.005 3.0036,-0.36109 3.00907,-3.00907 0,0 0,-12.58338 0,-12.58338 0,-1.47991 0.21337,-4.78989 -0.27356,-6.01813 z m 1.09421,0.27355 c 0,0 0,18.32796 0,18.32796 0.005,2.09541 0.0821,2.9653 2.46197,3.00907 0,0 13.40403,0 13.40403,0 0.75774,-0.003 1.76168,0.0793 2.37717,-0.43768 0.6237,-0.52796 0.61823,-1.27749 0.63191,-2.02428 0,0 0,-6.01814 0,-6.01814 -0.005,-2.64251 -0.27082,-2.42093 -4.10329,-4.60935 0,0 -9.30076,-5.3534 -9.30076,-5.3534 -1.63583,-0.94923 -3.69841,-2.37717 -5.47103,-2.89418 z m -20.789923,11.21562 c 0,0 -17.23375,9.84786 -17.23375,9.84786 1.18995,0.47324 3.56985,0.27355 4.92393,0.27355 0,0 9.57431,0 9.57431,0 0.86989,-0.003 1.95042,0.10395 2.57138,-0.6319 0.48145,-0.57173 0.43221,-1.40332 0.43768,-2.10362 0.0109,-1.61942 0.22979,-6.11661 -0.27355,-7.38589 z m 40.485653,0 c 0,0 0,7.38589 0,7.38589 0.0164,2.53036 0.63464,2.73005 3.00907,2.73552 0,0 14.49824,0 14.49824,0 0,0 -8.20655,-4.8829 -8.20655,-4.8829 0,0 -9.30076,-5.23851 -9.30076,-5.23851 z m -59.087163,10.94207 c 0,0 0,21.88413 0,21.88413 0,0 15.866,0 15.866,0 2.37442,-0.005 2.99265,-0.20516 3.00906,-2.73552 0,0 0,-16.13955 0,-16.13955 -0.005,-2.37442 -0.20516,-2.99265 -2.73551,-3.00906 0,0 -16.13955,0 -16.13955,0 z m 20.55741,0.27902 c -1.34588,1.19268 -0.86169,3.52882 -0.86169,5.19201 0,0 0,13.40403 0,13.40403 0.005,2.09541 0.0821,2.9653 2.46196,3.00907 0,0 13.404033,0 13.404033,0 2.37443,-0.005 2.99265,-0.20516 3.00907,-2.73552 0,0 0,-16.13955 0,-16.13955 -0.005,-2.37442 -0.20517,-2.99265 -2.73552,-3.00906 0,0 -10.121403,0 -10.121403,0 -1.51822,0 -3.77775,-0.21064 -5.15645,0.27902 z m 19.695713,0 c -1.34588,1.19268 -0.86169,3.52882 -0.86169,5.19201 0,0 0,13.40403 0,13.40403 0.005,2.09541 0.0821,2.9653 2.46197,3.00907 0,0 13.40403,0 13.40403,0 2.37444,-0.005 2.99266,-0.20516 3.00908,-2.73552 0,0 0,-16.13955 0,-16.13955 -0.005,-2.37442 -0.20517,-2.99265 -2.73553,-3.00906 0,0 -10.12141,0 -10.12141,0 -1.51821,0 -3.77775,-0.21064 -5.15645,0.27902 z m 37.70911,21.60511 c 0,0 0,-21.88413 0,-21.88413 0,0 -15.866,0 -15.866,0 -2.37443,0.005 -2.99265,0.20516 -3.00907,2.73551 0,0 0,16.13955 0,16.13955 0.005,2.37443 0.20517,2.99266 2.73552,3.00907 0,0 16.13955,0 16.13955,0 z m -77.962233,0.82066 c 0,0 0,21.61058 0,21.61058 0,0 15.866,0 15.866,0 2.37442,-0.005 2.99265,-0.20516 3.00906,-2.73552 0,0 0,-15.866 0,-15.866 -0.005,-2.37442 -0.20516,-2.99265 -2.73551,-3.00906 0,0 -16.13955,0 -16.13955,0 z m 20.55741,0.27902 c -1.30758,1.15712 -0.86169,3.30724 -0.86169,4.91846 0,0 0,13.40403 0,13.40403 0.005,2.09541 0.0821,2.9653 2.46196,3.00907 0,0 13.404033,0 13.404033,0 2.37443,-0.005 2.99265,-0.20516 3.00907,-2.73552 0,0 0,-15.866 0,-15.866 -0.005,-2.37442 -0.20517,-2.99265 -2.73552,-3.00906 0,0 -10.121403,0 -10.121403,0 -1.51822,0 -3.77775,-0.21064 -5.15645,0.27902 z m 19.695713,0 c -1.30758,1.15712 -0.86169,3.30724 -0.86169,4.91846 0,0 0,13.40403 0,13.40403 0.005,2.09541 0.0821,2.9653 2.46197,3.00907 0,0 13.40403,0 13.40403,0 2.37444,-0.005 2.99266,-0.20516 3.00908,-2.73552 0,0 0,-15.866 0,-15.866 -0.005,-2.37442 -0.20517,-2.99265 -2.73553,-3.00906 0,0 -10.12141,0 -10.12141,0 -1.51821,0 -3.77775,-0.21064 -5.15645,0.27902 z m 37.70911,21.33156 c 0,0 0,-21.61058 0,-21.61058 0,0 -15.866,0 -15.866,0 -2.37443,0.005 -2.99265,0.20516 -3.00907,2.73551 0,0 0,15.866 0,15.866 0.005,2.37443 0.20517,2.99266 2.73552,3.00907 0,0 16.13955,0 16.13955,0 z m -76.594473,0.82065 c 0,0 10.12141,6.09474 10.12141,6.09474 0,0 7.38589,4.02668 7.38589,4.02668 0,0 0,-7.3859 0,-7.3859 -0.0164,-2.53035 -0.63464,-2.73004 -3.00906,-2.73552 0,0 -14.49824,0 -14.49824,0 z m 37.203023,21.61059 c 0,0 0,-18.60152 0,-18.60152 -0.005,-2.0954 -0.0821,-2.9653 -2.46197,-3.00907 0,0 -13.404023,0 -13.404023,0 -0.75774,0.003 -1.76167,-0.0793 -2.37717,0.43769 -0.62369,0.52795 -0.61822,1.27748 -0.6319,2.02428 0,0 0,6.29169 0,6.29169 0,0.47871 -0.0383,1.38964 0.15592,1.80818 0.35289,0.76047 3.36469,2.31151 4.22091,2.80116 0,0 14.498233,8.24759 14.498233,8.24759 z m 0.82065,0 c 0,0 6.29169,-3.55344 6.29169,-3.55344 0,0 7.933,-4.57652 7.933,-4.57652 1.09147,-0.62096 4.04584,-2.02702 4.48626,-3.11301 0.19695,-0.48419 0.16413,-1.35409 0.16413,-1.88751 0,0 0,-5.47104 0,-5.47104 -0.005,-2.0954 -0.0821,-2.9653 -2.46198,-3.00907 0,0 -13.40403,0 -13.40403,0 -0.64285,0 -1.5866,-0.052 -2.14738,0.27903 -1.26107,0.74679 -0.86169,3.85981 -0.86169,5.19201 0,0 0,16.13955 0,16.13955 z m 19.69573,-11.48917 c 0,0 6.29169,-3.44128 6.29169,-3.44128 0,0 11.21562,-6.40658 11.21562,-6.40658 -1.18995,-0.47325 -3.56985,-0.27356 -4.92393,-0.27356 0,0 -9.84786,0 -9.84786,0 -0.80971,0.005 -1.72064,-0.052 -2.29783,0.63191 -0.51702,0.61549 -0.43495,1.61943 -0.43769,2.37716 0,0 0,7.11235 0,7.11235 z" />
  <path
     id="Auswahl #1-64"
     fill="#000000"
     stroke="#000000"
     stroke-width="0.273552"
     d="m 316.33145,557.4842 c 0,0 -13.95113,8.16552 -13.95113,8.16552 -1.01488,0.58266 -4.08139,2.13917 -4.48625,3.09934 -0.19696,0.47051 -0.16413,1.34314 -0.16413,1.86562 0,0 0,6.01814 0,6.01814 0.041,2.16653 0.7085,2.44828 2.73552,2.46196 0,0 13.13048,0 13.13048,0 2.64798,-0.005 3.0036,-0.36109 3.00907,-3.00907 0,0 0,-12.58338 0,-12.58338 0,-1.47991 0.21337,-4.78989 -0.27356,-6.01813 z m 1.09421,0.27355 c 0,0 0,18.32796 0,18.32796 0.005,2.09541 0.0821,2.9653 2.46197,3.00907 0,0 13.40403,0 13.40403,0 0.75774,-0.003 1.76167,0.0793 2.37716,-0.43768 0.6237,-0.52796 0.61823,-1.27749 0.63191,-2.02428 0,0 0,-6.01814 0,-6.01814 -0.005,-2.64251 -0.27082,-2.42093 -4.10328,-4.60935 0,0 -9.30076,-5.3534 -9.30076,-5.3534 -1.63583,-0.94923 -3.69841,-2.37717 -5.47103,-2.89418 z m -20.78993,11.21562 c 0,0 -17.23375,9.84786 -17.23375,9.84786 1.18995,0.47324 3.56985,0.27355 4.92393,0.27355 0,0 9.57431,0 9.57431,0 0.86989,-0.003 1.95042,0.10395 2.57138,-0.6319 0.48145,-0.57173 0.43221,-1.40332 0.43768,-2.10362 0.0109,-1.61942 0.22979,-6.11661 -0.27355,-7.38589 z m 40.48565,0 c 0,0 0,7.38589 0,7.38589 0.0164,2.53036 0.63464,2.73005 3.00907,2.73552 0,0 14.49824,0 14.49824,0 0,0 -8.20655,-4.8829 -8.20655,-4.8829 0,0 -9.30076,-5.23851 -9.30076,-5.23851 z m -59.08716,10.94207 c 0,0 0,21.88412 0,21.88412 0,0 15.866,0 15.866,0 2.37442,-0.005 2.99265,-0.20516 3.00906,-2.73552 0,0 0,-16.13954 0,-16.13954 -0.005,-2.37443 -0.20516,-2.99265 -2.73551,-3.00906 0,0 -16.13955,0 -16.13955,0 z m 20.55741,0.27902 c -1.34588,1.19268 -0.86169,3.52882 -0.86169,5.19201 0,0 0,13.40402 0,13.40402 0.005,2.09541 0.0821,2.9653 2.46196,3.00907 0,0 13.40404,0 13.40404,0 2.37443,-0.005 2.99265,-0.20516 3.00907,-2.73552 0,0 0,-16.13954 0,-16.13954 -0.005,-2.37443 -0.20517,-2.99265 -2.73552,-3.00906 0,0 -10.12141,0 -10.12141,0 -1.51822,0 -3.77775,-0.21064 -5.15645,0.27902 z m 19.69572,0 c -1.34588,1.19268 -0.86169,3.52882 -0.86169,5.19201 0,0 0,13.40402 0,13.40402 0.005,2.09541 0.0821,2.9653 2.46197,3.00907 0,0 13.40403,0 13.40403,0 2.37443,-0.005 2.99265,-0.20516 3.00907,-2.73552 0,0 0,-16.13954 0,-16.13954 -0.005,-2.37443 -0.20517,-2.99265 -2.73552,-3.00906 0,0 -10.12141,0 -10.12141,0 -1.51821,0 -3.77775,-0.21064 -5.15645,0.27902 z m 37.7091,21.6051 c 0,0 0,-21.88412 0,-21.88412 0,0 -15.866,0 -15.866,0 -2.37443,0.005 -2.99265,0.20515 -3.00907,2.73551 0,0 0,16.13954 0,16.13954 0.005,2.37443 0.20517,2.99266 2.73552,3.00907 0,0 16.13955,0 16.13955,0 z m -77.96223,0.82066 c 0,0 0,21.61058 0,21.61058 0,0 15.866,0 15.866,0 2.37442,-0.005 2.99265,-0.20516 3.00906,-2.73552 0,0 0,-15.866 0,-15.866 -0.005,-2.37442 -0.20516,-2.99265 -2.73551,-3.00906 0,0 -16.13955,0 -16.13955,0 z m 20.55741,0.27902 c -1.30758,1.15712 -0.86169,3.30724 -0.86169,4.91846 0,0 0,13.40403 0,13.40403 0.005,2.09541 0.0821,2.9653 2.46196,3.00907 0,0 13.40404,0 13.40404,0 2.37443,-0.005 2.99265,-0.20516 3.00907,-2.73552 0,0 0,-15.866 0,-15.866 -0.005,-2.37442 -0.20517,-2.99265 -2.73552,-3.00906 0,0 -10.12141,0 -10.12141,0 -1.51822,0 -3.77775,-0.21064 -5.15645,0.27902 z m 19.69572,0 c -1.30758,1.15712 -0.86169,3.30724 -0.86169,4.91846 0,0 0,13.40403 0,13.40403 0.005,2.09541 0.0821,2.9653 2.46197,3.00907 0,0 13.40403,0 13.40403,0 2.37443,-0.005 2.99265,-0.20516 3.00907,-2.73552 0,0 0,-15.866 0,-15.866 -0.005,-2.37442 -0.20517,-2.99265 -2.73552,-3.00906 0,0 -10.12141,0 -10.12141,0 -1.51821,0 -3.77775,-0.21064 -5.15645,0.27902 z m 37.7091,21.33156 c 0,0 0,-21.61058 0,-21.61058 0,0 -15.866,0 -15.866,0 -2.37443,0.005 -2.99265,0.20516 -3.00907,2.73551 0,0 0,15.866 0,15.866 0.005,2.37443 0.20517,2.99266 2.73552,3.00907 0,0 16.13955,0 16.13955,0 z m -76.59447,0.82065 c 0,0 10.12141,6.09474 10.12141,6.09474 0,0 7.38589,4.02668 7.38589,4.02668 0,0 0,-7.3859 0,-7.3859 -0.0164,-2.53035 -0.63464,-2.73004 -3.00906,-2.73552 0,0 -14.49824,0 -14.49824,0 z m 37.20303,21.61059 c 0,0 0,-18.60152 0,-18.60152 -0.005,-2.0954 -0.0821,-2.9653 -2.46197,-3.00907 0,0 -13.40403,0 -13.40403,0 -0.75774,0.003 -1.76167,-0.0793 -2.37717,0.43769 -0.62369,0.52795 -0.61822,1.27748 -0.6319,2.02428 0,0 0,6.29169 0,6.29169 0,0.47872 -0.0383,1.38965 0.15592,1.80818 0.35289,0.76047 3.36469,2.31151 4.22091,2.80116 0,0 14.49824,8.24759 14.49824,8.24759 z m 0.82065,0 c 0,0 6.29169,-3.55344 6.29169,-3.55344 0,0 7.933,-4.57652 7.933,-4.57652 1.09147,-0.62096 4.04583,-2.02702 4.48625,-3.11301 0.19695,-0.48419 0.16413,-1.35409 0.16413,-1.8875 0,0 0,-5.47105 0,-5.47105 -0.005,-2.0954 -0.0821,-2.9653 -2.46197,-3.00907 0,0 -13.40403,0 -13.40403,0 -0.64285,0 -1.5866,-0.052 -2.14738,0.27903 -1.26107,0.74679 -0.86169,3.85981 -0.86169,5.19201 0,0 0,16.13955 0,16.13955 z m 19.69572,-11.48917 c 0,0 6.29169,-3.44128 6.29169,-3.44128 0,0 11.21562,-6.40658 11.21562,-6.40658 -1.18995,-0.47325 -3.56985,-0.27356 -4.92393,-0.27356 0,0 -9.84786,0 -9.84786,0 -0.80971,0.005 -1.72064,-0.052 -2.29783,0.63191 -0.51702,0.61549 -0.43495,1.61943 -0.43769,2.37716 0,0 0,7.11235 0,7.11235 z" />
  <path
     id="Auswahl #1-1"
     fill="#000000"
     stroke="#000000"
     stroke-width="0.273552"
     d="m 276.78556,625.33143 c 0,0 -13.95113,8.16552 -13.95113,8.16552 -1.01488,0.58266 -4.08139,2.13917 -4.48625,3.09934 -0.19696,0.47051 -0.16413,1.34314 -0.16413,1.86562 0,0 0,6.01814 0,6.01814 0.041,2.16653 0.7085,2.44828 2.73552,2.46196 0,0 13.13048,0 13.13048,0 2.64798,-0.005 3.0036,-0.36109 3.00907,-3.00907 0,0 0,-12.58338 0,-12.58338 0,-1.47991 0.21337,-4.78989 -0.27356,-6.01813 z m 1.09421,0.27355 c 0,0 0,18.32796 0,18.32796 0.005,2.09541 0.0821,2.9653 2.46197,3.00907 0,0 13.40402,0 13.40402,0 0.75775,-0.003 1.76168,0.0793 2.37716,-0.43768 0.6237,-0.52796 0.61824,-1.27749 0.63192,-2.02428 0,0 0,-6.01814 0,-6.01814 -0.005,-2.64251 -0.27082,-2.42093 -4.10328,-4.60935 0,0 -9.30076,-5.3534 -9.30076,-5.3534 -1.63583,-0.94923 -3.69841,-2.37717 -5.47103,-2.89418 z m -20.78993,11.21562 c 0,0 -17.23376,9.84786 -17.23376,9.84786 1.18995,0.47324 3.56985,0.27355 4.92393,0.27355 0,0 9.57432,0 9.57432,0 0.86989,-0.003 1.95042,0.10395 2.57138,-0.6319 0.48145,-0.57173 0.43221,-1.40332 0.43768,-2.10362 0.0109,-1.61942 0.22979,-6.11661 -0.27355,-7.38589 z m 40.48564,0 c 0,0 0,7.38589 0,7.38589 0.0164,2.53036 0.63465,2.73005 3.00907,2.73552 0,0 14.49824,0 14.49824,0 0,0 -8.20655,-4.8829 -8.20655,-4.8829 0,0 -9.30076,-5.23851 -9.30076,-5.23851 z m -59.08715,10.94207 c 0,0 0,21.88413 0,21.88413 0,0 15.866,0 15.866,0 2.37442,-0.005 2.99265,-0.20516 3.00906,-2.73552 0,0 0,-16.13955 0,-16.13955 -0.005,-2.37442 -0.20516,-2.99265 -2.73551,-3.00906 0,0 -16.13955,0 -16.13955,0 z m 20.55741,0.27902 c -1.34588,1.19268 -0.86169,3.52882 -0.86169,5.19201 0,0 0,13.40403 0,13.40403 0.005,2.09541 0.0821,2.9653 2.46196,3.00907 0,0 13.40404,0 13.40404,0 2.37443,-0.005 2.99265,-0.20516 3.00907,-2.73552 0,0 0,-16.13955 0,-16.13955 -0.005,-2.37442 -0.20517,-2.99265 -2.73552,-3.00906 0,0 -10.12141,0 -10.12141,0 -1.51822,0 -3.77775,-0.21064 -5.15645,0.27902 z m 19.69572,0 c -1.34588,1.19268 -0.86169,3.52882 -0.86169,5.19201 0,0 0,13.40403 0,13.40403 0.005,2.09541 0.0821,2.9653 2.46197,3.00907 0,0 13.40402,0 13.40402,0 2.37443,-0.005 2.99265,-0.20516 3.00908,-2.73552 0,0 0,-16.13955 0,-16.13955 -0.005,-2.37442 -0.20517,-2.99265 -2.73553,-3.00906 0,0 -10.1214,0 -10.1214,0 -1.51821,0 -3.77775,-0.21064 -5.15645,0.27902 z m 37.7091,21.60511 c 0,0 0,-21.88413 0,-21.88413 0,0 -15.86601,0 -15.86601,0 -2.37442,0.005 -2.99265,0.20516 -3.00907,2.73551 0,0 0,16.13955 0,16.13955 0.005,2.37443 0.20517,2.99266 2.73552,3.00907 0,0 16.13956,0 16.13956,0 z m -77.96223,0.82066 c 0,0 0,21.61058 0,21.61058 0,0 15.866,0 15.866,0 2.37442,-0.005 2.99265,-0.20516 3.00906,-2.73552 0,0 0,-15.866 0,-15.866 -0.005,-2.37442 -0.20516,-2.99265 -2.73551,-3.00906 0,0 -16.13955,0 -16.13955,0 z m 20.55741,0.27902 c -1.30758,1.15712 -0.86169,3.30724 -0.86169,4.91846 0,0 0,13.40403 0,13.40403 0.005,2.09541 0.0821,2.9653 2.46196,3.00907 0,0 13.40404,0 13.40404,0 2.37443,-0.005 2.99265,-0.20516 3.00907,-2.73552 0,0 0,-15.866 0,-15.866 -0.005,-2.37442 -0.20517,-2.99265 -2.73552,-3.00906 0,0 -10.12141,0 -10.12141,0 -1.51822,0 -3.77775,-0.21064 -5.15645,0.27902 z m 19.69572,0 c -1.30758,1.15712 -0.86169,3.30724 -0.86169,4.91846 0,0 0,13.40403 0,13.40403 0.005,2.09541 0.0821,2.9653 2.46197,3.00907 0,0 13.40402,0 13.40402,0 2.37443,-0.005 2.99265,-0.20516 3.00908,-2.73552 0,0 0,-15.866 0,-15.866 -0.005,-2.37442 -0.20517,-2.99265 -2.73553,-3.00906 0,0 -10.1214,0 -10.1214,0 -1.51821,0 -3.77775,-0.21064 -5.15645,0.27902 z m 37.7091,21.33156 c 0,0 0,-21.61058 0,-21.61058 0,0 -15.86601,0 -15.86601,0 -2.37442,0.005 -2.99265,0.20516 -3.00907,2.73551 0,0 0,15.866 0,15.866 0.005,2.37443 0.20517,2.99266 2.73552,3.00907 0,0 16.13956,0 16.13956,0 z m -76.59448,0.82065 c 0,0 10.12142,6.09474 10.12142,6.09474 0,0 7.38589,4.02667 7.38589,4.02667 0,0 0,-7.38589 0,-7.38589 -0.0164,-2.53035 -0.63464,-2.73004 -3.00906,-2.73552 0,0 -14.49825,0 -14.49825,0 z m 37.20304,21.61058 c 0,0 0,-18.60151 0,-18.60151 -0.005,-2.0954 -0.0821,-2.9653 -2.46197,-3.00907 0,0 -13.40403,0 -13.40403,0 -0.75774,0.003 -1.76167,-0.0793 -2.37717,0.43769 -0.62369,0.52795 -0.61822,1.27748 -0.6319,2.02428 0,0 0,6.29169 0,6.29169 0,0.47871 -0.0383,1.38964 0.15592,1.80818 0.35289,0.76046 3.36469,2.3115 4.22091,2.80115 0,0 14.49824,8.24759 14.49824,8.24759 z m 0.82065,0 c 0,0 6.29169,-3.55343 6.29169,-3.55343 0,0 7.933,-4.57653 7.933,-4.57653 1.09147,-0.62096 4.04583,-2.02702 4.48624,-3.11301 0.19696,-0.48419 0.16414,-1.35409 0.16414,-1.8875 0,0 0,-5.47104 0,-5.47104 -0.005,-2.0954 -0.0821,-2.9653 -2.46198,-3.00907 0,0 -13.40402,0 -13.40402,0 -0.64285,0 -1.5866,-0.052 -2.14738,0.27903 -1.26107,0.74679 -0.86169,3.85981 -0.86169,5.19201 0,0 0,16.13954 0,16.13954 z m 19.69571,-11.48917 c 0,0 6.29169,-3.44127 6.29169,-3.44127 0,0 11.21562,-6.40658 11.21562,-6.40658 -1.18995,-0.47325 -3.56985,-0.27356 -4.92393,-0.27356 0,0 -9.84786,0 -9.84786,0 -0.8097,0.005 -1.72063,-0.052 -2.29782,0.63191 -0.51703,0.61549 -0.43496,1.61943 -0.4377,2.37716 0,0 0,7.11234 0,7.11234 z" />
  <path
     id="Auswahl #1-0"
     fill="#000000"
     stroke="#000000"
     stroke-width="0.273552"
     d="m 315.8656,693.6783 c 0,0 -13.95113,8.16552 -13.95113,8.16552 -1.01488,0.58266 -4.08139,2.13917 -4.48625,3.09934 -0.19696,0.47051 -0.16413,1.34314 -0.16413,1.86562 0,0 0,6.01814 0,6.01814 0.041,2.16653 0.7085,2.44828 2.73552,2.46196 0,0 13.13048,0 13.13048,0 2.64798,-0.005 3.0036,-0.36109 3.00907,-3.00907 0,0 0,-12.58338 0,-12.58338 0,-1.47991 0.21337,-4.78989 -0.27356,-6.01813 z m 1.09421,0.27355 c 0,0 0,18.32796 0,18.32796 0.005,2.09541 0.0821,2.9653 2.46197,3.00907 0,0 13.40403,0 13.40403,0 0.75774,-0.003 1.76167,0.0793 2.37716,-0.43768 0.6237,-0.52796 0.61823,-1.27749 0.63191,-2.02428 0,0 0,-6.01814 0,-6.01814 -0.005,-2.64251 -0.27082,-2.42093 -4.10328,-4.60935 0,0 -9.30076,-5.3534 -9.30076,-5.3534 -1.63583,-0.94923 -3.69841,-2.37717 -5.47103,-2.89418 z m -20.78993,11.21562 c 0,0 -17.23375,9.84786 -17.23375,9.84786 1.18995,0.47324 3.56985,0.27355 4.92393,0.27355 0,0 9.57431,0 9.57431,0 0.86989,-0.003 1.95042,0.10395 2.57138,-0.6319 0.48145,-0.57173 0.43221,-1.40332 0.43768,-2.10362 0.0109,-1.61942 0.22979,-6.11661 -0.27355,-7.38589 z m 40.48565,0 c 0,0 0,7.38589 0,7.38589 0.0164,2.53036 0.63464,2.73005 3.00907,2.73552 0,0 14.49824,0 14.49824,0 0,0 -8.20655,-4.8829 -8.20655,-4.8829 0,0 -9.30076,-5.23851 -9.30076,-5.23851 z m -59.08716,10.94207 c 0,0 0,21.88413 0,21.88413 0,0 15.866,0 15.866,0 2.37442,-0.005 2.99265,-0.20516 3.00906,-2.73552 0,0 0,-16.13955 0,-16.13955 -0.005,-2.37442 -0.20516,-2.99265 -2.73551,-3.00906 0,0 -16.13955,0 -16.13955,0 z m 20.55741,0.27902 c -1.34588,1.19268 -0.86169,3.52882 -0.86169,5.19201 0,0 0,13.40403 0,13.40403 0.005,2.09541 0.0821,2.9653 2.46196,3.00907 0,0 13.40404,0 13.40404,0 2.37443,-0.005 2.99265,-0.20516 3.00907,-2.73552 0,0 0,-16.13955 0,-16.13955 -0.005,-2.37442 -0.20517,-2.99265 -2.73552,-3.00906 0,0 -10.12141,0 -10.12141,0 -1.51822,0 -3.77775,-0.21064 -5.15645,0.27902 z m 19.69572,0 c -1.34588,1.19268 -0.86169,3.52882 -0.86169,5.19201 0,0 0,13.40403 0,13.40403 0.005,2.09541 0.0821,2.9653 2.46197,3.00907 0,0 13.40403,0 13.40403,0 2.37443,-0.005 2.99265,-0.20516 3.00907,-2.73552 0,0 0,-16.13955 0,-16.13955 -0.005,-2.37442 -0.20517,-2.99265 -2.73552,-3.00906 0,0 -10.12141,0 -10.12141,0 -1.51821,0 -3.77775,-0.21064 -5.15645,0.27902 z m 37.7091,21.60511 c 0,0 0,-21.88413 0,-21.88413 0,0 -15.866,0 -15.866,0 -2.37443,0.005 -2.99265,0.20516 -3.00907,2.73551 0,0 0,16.13955 0,16.13955 0.005,2.37443 0.20517,2.99266 2.73552,3.00907 0,0 16.13955,0 16.13955,0 z m -77.96223,0.82066 c 0,0 0,21.61058 0,21.61058 0,0 15.866,0 15.866,0 2.37442,-0.005 2.99265,-0.20516 3.00906,-2.73552 0,0 0,-15.866 0,-15.866 -0.005,-2.37442 -0.20516,-2.99265 -2.73551,-3.00906 0,0 -16.13955,0 -16.13955,0 z m 20.55741,0.27902 c -1.30758,1.15712 -0.86169,3.30724 -0.86169,4.91846 0,0 0,13.40403 0,13.40403 0.005,2.09541 0.0821,2.9653 2.46196,3.00907 0,0 13.40404,0 13.40404,0 2.37443,-0.005 2.99265,-0.20516 3.00907,-2.73552 0,0 0,-15.866 0,-15.866 -0.005,-2.37442 -0.20517,-2.99265 -2.73552,-3.00906 0,0 -10.12141,0 -10.12141,0 -1.51822,0 -3.77775,-0.21064 -5.15645,0.27902 z m 19.69572,0 c -1.30758,1.15712 -0.86169,3.30724 -0.86169,4.91846 0,0 0,13.40403 0,13.40403 0.005,2.09541 0.0821,2.9653 2.46197,3.00907 0,0 13.40403,0 13.40403,0 2.37443,-0.005 2.99265,-0.20516 3.00907,-2.73552 0,0 0,-15.866 0,-15.866 -0.005,-2.37442 -0.20517,-2.99265 -2.73552,-3.00906 0,0 -10.12141,0 -10.12141,0 -1.51821,0 -3.77775,-0.21064 -5.15645,0.27902 z m 37.7091,21.33156 c 0,0 0,-21.61058 0,-21.61058 0,0 -15.866,0 -15.866,0 -2.37443,0.005 -2.99265,0.20516 -3.00907,2.73551 0,0 0,15.866 0,15.866 0.005,2.37443 0.20517,2.99266 2.73552,3.00907 0,0 16.13955,0 16.13955,0 z m -76.59447,0.82065 c 0,0 10.12141,6.09474 10.12141,6.09474 0,0 7.38589,4.02668 7.38589,4.02668 0,0 0,-7.3859 0,-7.3859 -0.0164,-2.53035 -0.63464,-2.73004 -3.00906,-2.73552 0,0 -14.49824,0 -14.49824,0 z m 37.20303,21.61059 c 0,0 0,-18.60152 0,-18.60152 -0.005,-2.0954 -0.0821,-2.9653 -2.46197,-3.00907 0,0 -13.40403,0 -13.40403,0 -0.75774,0.003 -1.76167,-0.0793 -2.37717,0.43769 -0.62369,0.52795 -0.61822,1.27748 -0.6319,2.02428 0,0 0,6.29169 0,6.29169 0,0.47871 -0.0383,1.38964 0.15592,1.80818 0.35289,0.76047 3.36469,2.31151 4.22091,2.80116 0,0 14.49824,8.24759 14.49824,8.24759 z m 0.82065,0 c 0,0 6.29169,-3.55344 6.29169,-3.55344 0,0 7.933,-4.57652 7.933,-4.57652 1.09147,-0.62096 4.04583,-2.02702 4.48625,-3.11302 0.19695,-0.48418 0.16413,-1.35408 0.16413,-1.8875 0,0 0,-5.47104 0,-5.47104 -0.005,-2.0954 -0.0821,-2.9653 -2.46197,-3.00907 0,0 -13.40403,0 -13.40403,0 -0.64285,0 -1.5866,-0.052 -2.14738,0.27903 -1.26107,0.74679 -0.86169,3.85981 -0.86169,5.19201 0,0 0,16.13955 0,16.13955 z m 19.69572,-11.48917 c 0,0 6.29169,-3.44128 6.29169,-3.44128 0,0 11.21562,-6.40658 11.21562,-6.40658 -1.18995,-0.47325 -3.56985,-0.27356 -4.92393,-0.27356 0,0 -9.84786,0 -9.84786,0 -0.80971,0.005 -1.72064,-0.052 -2.29783,0.63191 -0.51702,0.61549 -0.43495,1.61943 -0.43769,2.37716 0,0 0,7.11235 0,7.11235 z" />
  <path
     id="Auswahl #1-5"
     fill="#000000"
     stroke="#000000"
     stroke-width="0.273552"
     d="m 237.15312,693.22047 c 0,0 -13.95113,8.16552 -13.95113,8.16552 -1.01488,0.58266 -4.08139,2.13917 -4.48625,3.09934 -0.19696,0.47051 -0.16413,1.34314 -0.16413,1.86562 0,0 0,6.01814 0,6.01814 0.041,2.16653 0.7085,2.44828 2.73552,2.46196 0,0 13.13048,0 13.13048,0 2.64798,-0.005 3.0036,-0.36109 3.00907,-3.00907 0,0 0,-12.58338 0,-12.58338 0,-1.47991 0.21337,-4.78989 -0.27356,-6.01813 z m 1.09421,0.27355 c 0,0 0,18.32796 0,18.32796 0.005,2.09541 0.0821,2.9653 2.46197,3.00907 0,0 13.40403,0 13.40403,0 0.75774,-0.003 1.76167,0.0793 2.37716,-0.43768 0.6237,-0.52796 0.61823,-1.27749 0.63191,-2.02428 0,0 0,-6.01814 0,-6.01814 -0.005,-2.64251 -0.27082,-2.42093 -4.10328,-4.60935 0,0 -9.30076,-5.3534 -9.30076,-5.3534 -1.63583,-0.94923 -3.69841,-2.37717 -5.47103,-2.89418 z m -20.78993,11.21562 c 0,0 -17.23375,9.84786 -17.23375,9.84786 1.18995,0.47324 3.56985,0.27355 4.92393,0.27355 0,0 9.57431,0 9.57431,0 0.86989,-0.003 1.95042,0.10395 2.57138,-0.6319 0.48145,-0.57173 0.43221,-1.40332 0.43768,-2.10362 0.0109,-1.61942 0.22979,-6.11661 -0.27355,-7.38589 z m 40.48565,0 c 0,0 0,7.38589 0,7.38589 0.0164,2.53036 0.63464,2.73005 3.00907,2.73552 0,0 14.49824,0 14.49824,0 0,0 -8.20655,-4.8829 -8.20655,-4.8829 0,0 -9.30076,-5.23851 -9.30076,-5.23851 z m -59.08716,10.94207 c 0,0 0,21.88413 0,21.88413 0,0 15.866,0 15.866,0 2.37442,-0.005 2.99265,-0.20516 3.00906,-2.73552 0,0 0,-16.13955 0,-16.13955 -0.005,-2.37442 -0.20516,-2.99265 -2.73551,-3.00906 0,0 -16.13955,0 -16.13955,0 z m 20.55741,0.27902 c -1.34588,1.19268 -0.86169,3.52882 -0.86169,5.19201 0,0 0,13.40403 0,13.40403 0.005,2.09541 0.0821,2.9653 2.46196,3.00907 0,0 13.40404,0 13.40404,0 2.37443,-0.005 2.99265,-0.20516 3.00907,-2.73552 0,0 0,-16.13955 0,-16.13955 -0.005,-2.37442 -0.20517,-2.99265 -2.73552,-3.00906 0,0 -10.12141,0 -10.12141,0 -1.51822,0 -3.77775,-0.21064 -5.15645,0.27902 z m 19.69572,0 c -1.34588,1.19268 -0.86169,3.52882 -0.86169,5.19201 0,0 0,13.40403 0,13.40403 0.005,2.09541 0.0821,2.9653 2.46197,3.00907 0,0 13.40403,0 13.40403,0 2.37443,-0.005 2.99265,-0.20516 3.00907,-2.73552 0,0 0,-16.13955 0,-16.13955 -0.005,-2.37442 -0.20517,-2.99265 -2.73552,-3.00906 0,0 -10.12141,0 -10.12141,0 -1.51821,0 -3.77775,-0.21064 -5.15645,0.27902 z m 37.7091,21.60511 c 0,0 0,-21.88413 0,-21.88413 0,0 -15.866,0 -15.866,0 -2.37443,0.005 -2.99265,0.20516 -3.00907,2.73551 0,0 0,16.13955 0,16.13955 0.005,2.37443 0.20517,2.99266 2.73552,3.00907 0,0 16.13955,0 16.13955,0 z m -77.96223,0.82066 c 0,0 0,21.61058 0,21.61058 0,0 15.866,0 15.866,0 2.37442,-0.005 2.99265,-0.20516 3.00906,-2.73552 0,0 0,-15.866 0,-15.866 -0.005,-2.37442 -0.20516,-2.99265 -2.73551,-3.00906 0,0 -16.13955,0 -16.13955,0 z m 20.55741,0.27902 c -1.30758,1.15712 -0.86169,3.30724 -0.86169,4.91846 0,0 0,13.40403 0,13.40403 0.005,2.09541 0.0821,2.9653 2.46196,3.00907 0,0 13.40404,0 13.40404,0 2.37443,-0.005 2.99265,-0.20516 3.00907,-2.73552 0,0 0,-15.866 0,-15.866 -0.005,-2.37442 -0.20517,-2.99265 -2.73552,-3.00906 0,0 -10.12141,0 -10.12141,0 -1.51822,0 -3.77775,-0.21064 -5.15645,0.27902 z m 19.69572,0 c -1.30758,1.15712 -0.86169,3.30724 -0.86169,4.91846 0,0 0,13.40403 0,13.40403 0.005,2.09541 0.0821,2.9653 2.46197,3.00907 0,0 13.40403,0 13.40403,0 2.37443,-0.005 2.99265,-0.20516 3.00907,-2.73552 0,0 0,-15.866 0,-15.866 -0.005,-2.37442 -0.20517,-2.99265 -2.73552,-3.00906 0,0 -10.12141,0 -10.12141,0 -1.51821,0 -3.77775,-0.21064 -5.15645,0.27902 z m 37.7091,21.33156 c 0,0 0,-21.61058 0,-21.61058 0,0 -15.866,0 -15.866,0 -2.37443,0.005 -2.99265,0.20516 -3.00907,2.73551 0,0 0,15.866 0,15.866 0.005,2.37443 0.20517,2.99266 2.73552,3.00907 0,0 16.13955,0 16.13955,0 z m -76.59447,0.82065 c 0,0 10.12141,6.09474 10.12141,6.09474 0,0 7.38589,4.02667 7.38589,4.02667 0,0 0,-7.38589 0,-7.38589 -0.0164,-2.53035 -0.63464,-2.73004 -3.00906,-2.73552 0,0 -14.49824,0 -14.49824,0 z m 37.20303,21.61058 c 0,0 0,-18.60151 0,-18.60151 -0.005,-2.0954 -0.0821,-2.9653 -2.46197,-3.00907 0,0 -13.40403,0 -13.40403,0 -0.75774,0.003 -1.76167,-0.0793 -2.37717,0.43769 -0.62369,0.52795 -0.61822,1.27748 -0.6319,2.02428 0,0 0,6.29169 0,6.29169 0,0.47871 -0.0383,1.38964 0.15592,1.80818 0.35289,0.76046 3.36469,2.3115 4.22091,2.80115 0,0 14.49824,8.24759 14.49824,8.24759 z m 0.82065,0 c 0,0 6.29169,-3.55343 6.29169,-3.55343 0,0 7.933,-4.57653 7.933,-4.57653 1.09147,-0.62096 4.04583,-2.02702 4.48625,-3.11301 0.19695,-0.48419 0.16413,-1.35409 0.16413,-1.8875 0,0 0,-5.47104 0,-5.47104 -0.005,-2.0954 -0.0821,-2.9653 -2.46197,-3.00907 0,0 -13.40403,0 -13.40403,0 -0.64285,0 -1.5866,-0.052 -2.14738,0.27903 -1.26107,0.74679 -0.86169,3.85981 -0.86169,5.19201 0,0 0,16.13954 0,16.13954 z m 19.69572,-11.48917 c 0,0 6.29169,-3.44127 6.29169,-3.44127 0,0 11.21562,-6.40658 11.21562,-6.40658 -1.18995,-0.47325 -3.56985,-0.27356 -4.92393,-0.27356 0,0 -9.84786,0 -9.84786,0 -0.80971,0.005 -1.72064,-0.052 -2.29783,0.63191 -0.51702,0.61549 -0.43495,1.61943 -0.43769,2.37716 0,0 0,7.11234 0,7.11234 z" />
  <path
     id="Auswahl #1-9"
     fill="#000000"
     stroke="#000000"
     stroke-width="0.273552"
     d="m 197.73591,625.19717 c 0,0 -13.95112,8.16552 -13.95112,8.16552 -1.01488,0.58266 -4.08139,2.13917 -4.48625,3.09934 -0.19696,0.47051 -0.16413,1.34314 -0.16413,1.86562 0,0 0,6.01814 0,6.01814 0.041,2.16653 0.7085,2.44828 2.73552,2.46196 0,0 13.13048,0 13.13048,0 2.64797,-0.005 3.00359,-0.36109 3.00906,-3.00907 0,0 0,-12.58338 0,-12.58338 0,-1.47991 0.21337,-4.78989 -0.27356,-6.01813 z m 1.09421,0.27355 c 0,0 0,18.32796 0,18.32796 0.005,2.09541 0.0821,2.9653 2.46197,3.00907 0,0 13.40403,0 13.40403,0 0.75774,-0.003 1.76167,0.0793 2.37716,-0.43768 0.6237,-0.52796 0.61823,-1.27749 0.63191,-2.02428 0,0 0,-6.01814 0,-6.01814 -0.005,-2.64251 -0.27082,-2.42093 -4.10328,-4.60935 0,0 -9.30076,-5.3534 -9.30076,-5.3534 -1.63583,-0.94923 -3.69841,-2.37717 -5.47103,-2.89418 z m -20.78992,11.21562 c 0,0 -17.23376,9.84786 -17.23376,9.84786 1.18995,0.47324 3.56985,0.27355 4.92393,0.27355 0,0 9.57432,0 9.57432,0 0.86989,-0.003 1.95042,0.10395 2.57138,-0.6319 0.48145,-0.57173 0.43221,-1.40332 0.43768,-2.10362 0.0109,-1.61942 0.22979,-6.11661 -0.27355,-7.38589 z m 40.48564,0 c 0,0 0,7.38589 0,7.38589 0.0164,2.53036 0.63464,2.73005 3.00907,2.73552 0,0 14.49824,0 14.49824,0 0,0 -8.20655,-4.8829 -8.20655,-4.8829 0,0 -9.30076,-5.23851 -9.30076,-5.23851 z m -59.08715,10.94207 c 0,0 0,21.88413 0,21.88413 0,0 15.866,0 15.866,0 2.37442,-0.005 2.99265,-0.20516 3.00906,-2.73552 0,0 0,-16.13955 0,-16.13955 -0.005,-2.37442 -0.20516,-2.99265 -2.73551,-3.00906 0,0 -16.13955,0 -16.13955,0 z m 20.5574,0.27902 c -1.34587,1.19268 -0.86168,3.52882 -0.86168,5.19201 0,0 0,13.40403 0,13.40403 0.005,2.09541 0.0821,2.9653 2.46195,3.00907 0,0 13.40405,0 13.40405,0 2.37442,-0.005 2.99264,-0.20516 3.00906,-2.73552 0,0 0,-16.13955 0,-16.13955 -0.005,-2.37442 -0.20517,-2.99265 -2.73552,-3.00906 0,0 -10.12141,0 -10.12141,0 -1.51821,0 -3.77774,-0.21064 -5.15645,0.27902 z m 19.69572,0 c -1.34588,1.19268 -0.86169,3.52882 -0.86169,5.19201 0,0 0,13.40403 0,13.40403 0.005,2.09541 0.0821,2.9653 2.46197,3.00907 0,0 13.40403,0 13.40403,0 2.37443,-0.005 2.99265,-0.20516 3.00907,-2.73552 0,0 0,-16.13955 0,-16.13955 -0.005,-2.37442 -0.20517,-2.99265 -2.73552,-3.00906 0,0 -10.12141,0 -10.12141,0 -1.51821,0 -3.77775,-0.21064 -5.15645,0.27902 z m 37.70911,21.60511 c 0,0 0,-21.88413 0,-21.88413 0,0 -15.86601,0 -15.86601,0 -2.37443,0.005 -2.99265,0.20516 -3.00907,2.73551 0,0 0,16.13955 0,16.13955 0.005,2.37443 0.20517,2.99266 2.73552,3.00907 0,0 16.13956,0 16.13956,0 z m -77.96223,0.82066 c 0,0 0,21.61058 0,21.61058 0,0 15.866,0 15.866,0 2.37442,-0.005 2.99265,-0.20516 3.00906,-2.73552 0,0 0,-15.866 0,-15.866 -0.005,-2.37442 -0.20516,-2.99265 -2.73551,-3.00906 0,0 -16.13955,0 -16.13955,0 z m 20.5574,0.27902 c -1.30757,1.15712 -0.86168,3.30724 -0.86168,4.91846 0,0 0,13.40403 0,13.40403 0.005,2.09541 0.0821,2.9653 2.46195,3.00907 0,0 13.40405,0 13.40405,0 2.37442,-0.005 2.99264,-0.20516 3.00906,-2.73552 0,0 0,-15.866 0,-15.866 -0.005,-2.37442 -0.20517,-2.99265 -2.73552,-3.00906 0,0 -10.12141,0 -10.12141,0 -1.51821,0 -3.77774,-0.21064 -5.15645,0.27902 z m 19.69572,0 c -1.30758,1.15712 -0.86169,3.30724 -0.86169,4.91846 0,0 0,13.40403 0,13.40403 0.005,2.09541 0.0821,2.9653 2.46197,3.00907 0,0 13.40403,0 13.40403,0 2.37443,-0.005 2.99265,-0.20516 3.00907,-2.73552 0,0 0,-15.866 0,-15.866 -0.005,-2.37442 -0.20517,-2.99265 -2.73552,-3.00906 0,0 -10.12141,0 -10.12141,0 -1.51821,0 -3.77775,-0.21064 -5.15645,0.27902 z m 37.70911,21.33156 c 0,0 0,-21.61058 0,-21.61058 0,0 -15.86601,0 -15.86601,0 -2.37443,0.005 -2.99265,0.20516 -3.00907,2.73551 0,0 0,15.866 0,15.866 0.005,2.37443 0.20517,2.99266 2.73552,3.00907 0,0 16.13956,0 16.13956,0 z m -76.59448,0.82065 c 0,0 10.12141,6.09474 10.12141,6.09474 0,0 7.3859,4.02667 7.3859,4.02667 0,0 0,-7.38589 0,-7.38589 -0.0164,-2.53035 -0.63464,-2.73004 -3.00906,-2.73552 0,0 -14.49825,0 -14.49825,0 z m 37.20303,21.61058 c 0,0 0,-18.60151 0,-18.60151 -0.005,-2.0954 -0.0821,-2.9653 -2.46197,-3.00907 0,0 -13.40402,0 -13.40402,0 -0.75774,0.003 -1.76167,-0.0793 -2.37717,0.43769 -0.62369,0.52795 -0.61822,1.27748 -0.6319,2.02428 0,0 0,6.29169 0,6.29169 0,0.47871 -0.0383,1.38964 0.15592,1.80818 0.35289,0.76046 3.36469,2.3115 4.2209,2.80115 0,0 14.49824,8.24759 14.49824,8.24759 z m 0.82065,0 c 0,0 6.29169,-3.55343 6.29169,-3.55343 0,0 7.933,-4.57653 7.933,-4.57653 1.09147,-0.62096 4.04583,-2.02702 4.48625,-3.11301 0.19695,-0.48419 0.16413,-1.35409 0.16413,-1.8875 0,0 0,-5.47104 0,-5.47104 -0.005,-2.0954 -0.0821,-2.9653 -2.46197,-3.00907 0,0 -13.40403,0 -13.40403,0 -0.64285,0 -1.5866,-0.052 -2.14738,0.27903 -1.26107,0.74679 -0.86169,3.85981 -0.86169,5.19201 0,0 0,16.13954 0,16.13954 z m 19.69572,-11.48917 c 0,0 6.29169,-3.44127 6.29169,-3.44127 0,0 11.21562,-6.40658 11.21562,-6.40658 -1.18995,-0.47325 -3.56985,-0.27356 -4.92393,-0.27356 0,0 -9.84786,0 -9.84786,0 -0.80971,0.005 -1.72064,-0.052 -2.29783,0.63191 -0.51702,0.61549 -0.43495,1.61943 -0.43769,2.37716 0,0 0,7.11234 0,7.11234 z" />
  <path
     id="Auswahl #1-12"
     fill="#000000"
     stroke="#000000"
     stroke-width="0.273552"
     d="m 144.10051,439.88291 c 0,0 -13.95112,8.16552 -13.95112,8.16552 -1.01488,0.58266 -4.08139,2.13917 -4.48625,3.09934 -0.19696,0.47051 -0.16413,1.34314 -0.16413,1.86562 0,0 0,6.01814 0,6.01814 0.041,2.16653 0.7085,2.44828 2.73552,2.46196 0,0 13.13048,0 13.13048,0 2.64797,-0.005 3.00359,-0.36109 3.00906,-3.00907 0,0 0,-12.58338 0,-12.58338 0,-1.47991 0.21337,-4.78989 -0.27356,-6.01813 z m 1.09421,0.27355 c 0,0 0,18.32796 0,18.32796 0.005,2.09541 0.0821,2.9653 2.46197,3.00907 0,0 13.40403,0 13.40403,0 0.75774,-0.003 1.76167,0.0793 2.37716,-0.43768 0.6237,-0.52796 0.61823,-1.27749 0.63191,-2.02428 0,0 0,-6.01814 0,-6.01814 -0.005,-2.64251 -0.27082,-2.42093 -4.10328,-4.60935 0,0 -9.30076,-5.3534 -9.30076,-5.3534 -1.63583,-0.94923 -3.69841,-2.37717 -5.47103,-2.89418 z m -20.78992,11.21562 c 0,0 -17.23376,9.84786 -17.23376,9.84786 1.18995,0.47324 3.56985,0.27355 4.92393,0.27355 0,0 9.57432,0 9.57432,0 0.86989,-0.003 1.95042,0.10395 2.57138,-0.6319 0.48145,-0.57173 0.43221,-1.40332 0.43768,-2.10362 0.0109,-1.61942 0.22979,-6.11661 -0.27355,-7.38589 z m 40.48564,0 c 0,0 0,7.38589 0,7.38589 0.0164,2.53036 0.63464,2.73005 3.00907,2.73552 0,0 14.49824,0 14.49824,0 0,0 -8.20655,-4.8829 -8.20655,-4.8829 0,0 -9.30076,-5.23851 -9.30076,-5.23851 z m -59.08715,10.94207 c 0,0 0,21.88413 0,21.88413 0,0 15.866,0 15.866,0 2.37442,-0.005 2.99265,-0.20516 3.00906,-2.73552 0,0 0,-16.13955 0,-16.13955 -0.005,-2.37442 -0.20516,-2.99265 -2.73551,-3.00906 0,0 -16.13955,0 -16.13955,0 z m 20.5574,0.27902 c -1.34587,1.19268 -0.86168,3.52882 -0.86168,5.19201 0,0 0,13.40403 0,13.40403 0.005,2.09541 0.0821,2.9653 2.46195,3.00907 0,0 13.40405,0 13.40405,0 2.37442,-0.005 2.99264,-0.20516 3.00906,-2.73552 0,0 0,-16.13955 0,-16.13955 -0.005,-2.37442 -0.20517,-2.99265 -2.73552,-3.00906 0,0 -10.12141,0 -10.12141,0 -1.51821,0 -3.77774,-0.21064 -5.15645,0.27902 z m 19.69572,0 c -1.34588,1.19268 -0.86169,3.52882 -0.86169,5.19201 0,0 0,13.40403 0,13.40403 0.005,2.09541 0.0821,2.9653 2.46197,3.00907 0,0 13.40403,0 13.40403,0 2.37443,-0.005 2.99265,-0.20516 3.00907,-2.73552 0,0 0,-16.13955 0,-16.13955 -0.005,-2.37442 -0.20517,-2.99265 -2.73552,-3.00906 0,0 -10.12141,0 -10.12141,0 -1.51821,0 -3.77775,-0.21064 -5.15645,0.27902 z m 37.70911,21.60511 c 0,0 0,-21.88413 0,-21.88413 0,0 -15.86601,0 -15.86601,0 -2.37443,0.005 -2.99265,0.20516 -3.00907,2.73551 0,0 0,16.13955 0,16.13955 0.005,2.37443 0.20517,2.99266 2.73552,3.00907 0,0 16.13956,0 16.13956,0 z m -77.96223,0.82066 c 0,0 0,21.61058 0,21.61058 0,0 15.866,0 15.866,0 2.37442,-0.005 2.99265,-0.20516 3.00906,-2.73552 0,0 0,-15.866 0,-15.866 -0.005,-2.37442 -0.20516,-2.99265 -2.73551,-3.00906 0,0 -16.13955,0 -16.13955,0 z m 20.5574,0.27902 c -1.30757,1.15712 -0.86168,3.30724 -0.86168,4.91846 0,0 0,13.40403 0,13.40403 0.005,2.09541 0.0821,2.9653 2.46195,3.00907 0,0 13.40405,0 13.40405,0 2.37442,-0.005 2.99264,-0.20516 3.00906,-2.73552 0,0 0,-15.866 0,-15.866 -0.005,-2.37442 -0.20517,-2.99265 -2.73552,-3.00906 0,0 -10.12141,0 -10.12141,0 -1.51821,0 -3.77774,-0.21064 -5.15645,0.27902 z m 19.69572,0 c -1.30758,1.15712 -0.86169,3.30724 -0.86169,4.91846 0,0 0,13.40403 0,13.40403 0.005,2.09541 0.0821,2.9653 2.46197,3.00907 0,0 13.40403,0 13.40403,0 2.37443,-0.005 2.99265,-0.20516 3.00907,-2.73552 0,0 0,-15.866 0,-15.866 -0.005,-2.37442 -0.20517,-2.99265 -2.73552,-3.00906 0,0 -10.12141,0 -10.12141,0 -1.51821,0 -3.77775,-0.21064 -5.15645,0.27902 z m 37.70911,21.33156 c 0,0 0,-21.61058 0,-21.61058 0,0 -15.86601,0 -15.86601,0 -2.37443,0.005 -2.99265,0.20516 -3.00907,2.73551 0,0 0,15.866 0,15.866 0.005,2.37443 0.20517,2.99266 2.73552,3.00907 0,0 16.13956,0 16.13956,0 z m -76.59448,0.82065 c 0,0 10.12141,6.09474 10.12141,6.09474 0,0 7.3859,4.02667 7.3859,4.02667 0,0 0,-7.38589 0,-7.38589 -0.0164,-2.53035 -0.63464,-2.73004 -3.00906,-2.73552 0,0 -14.49825,0 -14.49825,0 z m 37.20303,21.61058 c 0,0 0,-18.60151 0,-18.60151 -0.005,-2.0954 -0.0821,-2.9653 -2.46197,-3.00907 0,0 -13.40402,0 -13.40402,0 -0.75774,0.003 -1.76167,-0.0793 -2.37717,0.43769 -0.62369,0.52795 -0.61822,1.27748 -0.6319,2.02428 0,0 0,6.29169 0,6.29169 0,0.47871 -0.0383,1.38964 0.15592,1.80818 0.35289,0.76046 3.36469,2.3115 4.2209,2.80115 0,0 14.49824,8.24759 14.49824,8.24759 z m 0.82065,0 c 0,0 6.29169,-3.55343 6.29169,-3.55343 0,0 7.933,-4.57653 7.933,-4.57653 1.09147,-0.62096 4.04583,-2.02702 4.48625,-3.11301 0.19695,-0.48419 0.16413,-1.35409 0.16413,-1.8875 0,0 0,-5.47104 0,-5.47104 -0.005,-2.0954 -0.0821,-2.9653 -2.46197,-3.00907 0,0 -13.40403,0 -13.40403,0 -0.64285,0 -1.5866,-0.052 -2.14738,0.27903 -1.26107,0.74679 -0.86169,3.85981 -0.86169,5.19201 0,0 0,16.13954 0,16.13954 z m 19.69572,-11.48917 c 0,0 6.29169,-3.44127 6.29169,-3.44127 0,0 11.21562,-6.40658 11.21562,-6.40658 -1.18995,-0.47325 -3.56985,-0.27356 -4.92393,-0.27356 0,0 -9.84786,0 -9.84786,0 -0.80971,0.005 -1.72064,-0.052 -2.29783,0.63191 -0.51702,0.61549 -0.43495,1.61943 -0.43769,2.37716 0,0 0,7.11234 0,7.11234 z" />
</svg>
