<?xml version="1.0" encoding="UTF-8" standalone="no"?>
<svg
   xmlns:dc="http://purl.org/dc/elements/1.1/"
   xmlns:cc="http://creativecommons.org/ns#"
   xmlns:rdf="http://www.w3.org/1999/02/22-rdf-syntax-ns#"
   xmlns:svg="http://www.w3.org/2000/svg"
   xmlns="http://www.w3.org/2000/svg"
   xmlns:sodipodi="http://sodipodi.sourceforge.net/DTD/sodipodi-0.dtd"
   xmlns:inkscape="http://www.inkscape.org/namespaces/inkscape"
   sodipodi:docname="2.svg"
   inkscape:version="1.0 (4035a4fb49, 2020-05-01)"
   id="svg8"
   version="1.1"
   viewBox="0 0 159.10223 300.18112"
   height="300.18112mm"
   width="159.10223mm">
  <defs
     id="defs2" />
  <sodipodi:namedview
     inkscape:window-maximized="0"
     inkscape:window-y="0"
     inkscape:window-x="2050"
     inkscape:window-height="1040"
     inkscape:window-width="1256"
     inkscape:snap-nodes="false"
     inkscape:object-nodes="false"
     inkscape:snap-others="false"
     showgrid="false"
     inkscape:document-rotation="0"
     inkscape:current-layer="layer1"
     inkscape:document-units="mm"
     inkscape:cy="708.92285"
     inkscape:cx="310.36524"
     inkscape:zoom="0.49497475"
     inkscape:pageshadow="2"
     inkscape:pageopacity="0.0"
     borderopacity="1.0"
     bordercolor="#666666"
     pagecolor="#ffffff"
     id="base" />
  <metadata
     id="metadata5">
    <rdf:RDF>
      <cc:Work
         rdf:about="">
        <dc:format>image/svg+xml</dc:format>
        <dc:type
           rdf:resource="http://purl.org/dc/dcmitype/StillImage" />
        <dc:title></dc:title>
      </cc:Work>
    </rdf:RDF>
  </metadata>
  <g
     transform="translate(23.610642,-0.34396445)"
     id="layer1"
     inkscape:groupmode="layer"
     inkscape:label="Ebene 1">
    <path
       id="Auswahl #1-12"
       fill="#000000"
       stroke="#000000"
       stroke-width="0.0965027"
       d="m 22.374668,106.74046 c 0,0 -4.921628,2.8806 -4.921628,2.8806 -0.358026,0.20555 -1.439819,0.75465 -1.582644,1.09337 -0.06948,0.16599 -0.0579,0.47383 -0.0579,0.65815 0,0 0,2.12306 0,2.12306 0.01446,0.7643 0.249942,0.8637 0.965027,0.86852 0,0 4.632126,0 4.632126,0 0.934141,-0.002 1.059596,-0.12738 1.061526,-1.06153 0,0 0,-4.43912 0,-4.43912 0,-0.52208 0.07527,-1.68976 -0.09651,-2.12305 z m 0.386012,0.0965 c 0,0 0,6.46567 0,6.46567 0.0018,0.73921 0.02896,1.04609 0.868525,1.06153 0,0 4.728628,0 4.728628,0 0.267313,-0.001 0.621476,0.028 0.838606,-0.1544 0.220027,-0.18625 0.218097,-0.45067 0.222923,-0.71412 0,0 0,-2.12306 0,-2.12306 -0.0018,-0.93221 -0.09554,-0.85405 -1.447541,-1.62607 0,0 -3.28109,-1.88855 -3.28109,-1.88855 -0.577083,-0.33487 -1.304713,-0.83861 -1.930051,-1.021 z m -7.334197,3.95661 c 0,0 -6.0796671,3.47409 -6.0796671,3.47409 0.419787,0.16695 1.2593601,0.0965 1.7370471,0.0965 0,0 3.377596,0 3.377596,0 0.306877,-0.001 0.688063,0.0367 0.907123,-0.22292 0.169844,-0.20169 0.152473,-0.49506 0.154403,-0.74211 0.0038,-0.57129 0.08106,-2.15779 -0.0965,-2.60556 z m 14.282385,0 c 0,0 0,2.60556 0,2.60556 0.0058,0.89266 0.223886,0.9631 1.06153,0.96503 0,0 5.114639,0 5.114639,0 0,0 -2.895079,-1.72257 -2.895079,-1.72257 0,0 -3.28109,-1.84802 -3.28109,-1.84802 z m -20.8445621,3.8601 c 0,0 0,7.72021 0,7.72021 0,0 5.5971531,0 5.5971531,0 0.83764,-0.002 1.055737,-0.0724 1.061526,-0.96503 0,0 0,-5.69365 0,-5.69365 -0.0018,-0.83764 -0.07238,-1.05574 -0.965024,-1.06153 0,0 -5.6936551,0 -5.6936551,0 z m 7.2521691,0.0984 c -0.474791,0.42075 -0.30398,1.24489 -0.30398,1.83162 0,0 0,4.72863 0,4.72863 0.0018,0.73921 0.02896,1.04609 0.868518,1.06153 0,0 4.728635,0 4.728635,0 0.837639,-0.002 1.055733,-0.0724 1.061526,-0.96503 0,0 0,-5.69365 0,-5.69365 -0.0018,-0.83764 -0.07238,-1.05574 -0.965028,-1.06153 0,0 -3.570596,0 -3.570596,0 -0.535589,0 -1.332698,-0.0743 -1.819075,0.0984 z m 6.948189,0 c -0.474795,0.42075 -0.303984,1.24489 -0.303984,1.83162 0,0 0,4.72863 0,4.72863 0.0018,0.73921 0.02896,1.04609 0.868525,1.06153 0,0 4.728628,0 4.728628,0 0.837643,-0.002 1.055737,-0.0724 1.061529,-0.96503 0,0 0,-5.69365 0,-5.69365 -0.0018,-0.83764 -0.07238,-1.05574 -0.965027,-1.06153 0,0 -3.570597,0 -3.570597,0 -0.535588,0 -1.332701,-0.0743 -1.819074,0.0984 z m 13.30289,7.62178 c 0,0 0,-7.72021 0,-7.72021 0,0 -5.597156,0 -5.597156,0 -0.837644,0.002 -1.055737,0.0724 -1.06153,0.96503 0,0 0,5.69365 0,5.69365 0.0018,0.83764 0.07238,1.05574 0.965028,1.06153 0,0 5.693658,0 5.693658,0 z m -27.5032481,0.28951 c 0,0 0,7.62371 0,7.62371 0,0 5.5971531,0 5.5971531,0 0.83764,-0.002 1.055737,-0.0724 1.061526,-0.96503 0,0 0,-5.59715 0,-5.59715 -0.0018,-0.83764 -0.07238,-1.05574 -0.965024,-1.06153 0,0 -5.6936551,0 -5.6936551,0 z m 7.2521691,0.0984 c -0.46128,0.40821 -0.30398,1.16672 -0.30398,1.73512 0,0 0,4.72863 0,4.72863 0.0018,0.73921 0.02896,1.04608 0.868518,1.06153 0,0 4.728635,0 4.728635,0 0.837639,-0.002 1.055733,-0.0724 1.061526,-0.96503 0,0 0,-5.59715 0,-5.59715 -0.0018,-0.83764 -0.07238,-1.05574 -0.965028,-1.06153 0,0 -3.570596,0 -3.570596,0 -0.535589,0 -1.332698,-0.0743 -1.819075,0.0984 z m 6.948189,0 c -0.461284,0.40821 -0.303984,1.16672 -0.303984,1.73512 0,0 0,4.72863 0,4.72863 0.0018,0.73921 0.02896,1.04608 0.868525,1.06153 0,0 4.728628,0 4.728628,0 0.837643,-0.002 1.055737,-0.0724 1.061529,-0.96503 0,0 0,-5.59715 0,-5.59715 -0.0018,-0.83764 -0.07238,-1.05574 -0.965027,-1.06153 0,0 -3.570597,0 -3.570597,0 -0.535588,0 -1.332701,-0.0743 -1.819074,0.0984 z m 13.30289,7.52528 c 0,0 0,-7.62371 0,-7.62371 0,0 -5.597156,0 -5.597156,0 -0.837644,0.002 -1.055737,0.0724 -1.06153,0.96502 0,0 0,5.59716 0,5.59716 0.0018,0.83764 0.07238,1.05574 0.965028,1.06153 0,0 5.693658,0 5.693658,0 z m -27.0207381,0.2895 c 0,0 3.5705961,2.15008 3.5705961,2.15008 0,0 2.605573,1.42052 2.605573,1.42052 0,0 0,-2.60557 0,-2.60557 -0.0058,-0.89265 -0.223886,-0.96309 -1.061526,-0.96503 0,0 -5.1146431,0 -5.1146431,0 z m 13.1243581,7.62371 c 0,0 0,-6.56218 0,-6.56218 -0.0018,-0.73921 -0.02896,-1.04609 -0.868526,-1.06153 0,0 -4.728624,0 -4.728624,0 -0.267313,0.001 -0.621476,-0.028 -0.83861,0.15441 -0.220023,0.18625 -0.218093,0.45066 -0.222919,0.71412 0,0 0,2.21956 0,2.21956 0,0.16888 -0.01351,0.49023 0.05501,0.63788 0.124491,0.26827 1.186983,0.81544 1.489034,0.98818 0,0 5.11464,2.90956 5.11464,2.90956 z m 0.289506,0 c 0,0 2.21956,-1.25357 2.21956,-1.25357 0,0 2.798577,-1.61449 2.798577,-1.61449 0.385045,-0.21906 1.427274,-0.71509 1.582644,-1.0982 0.06948,-0.17081 0.0579,-0.47769 0.0579,-0.66586 0,0 0,-1.93006 0,-1.93006 -0.0018,-0.73921 -0.02896,-1.04609 -0.868525,-1.06153 0,0 -4.728628,0 -4.728628,0 -0.226782,0 -0.559715,-0.0183 -0.757545,0.0984 -0.444876,0.26345 -0.303984,1.36165 -0.303984,1.83162 0,0 0,5.69365 0,5.69365 z m 6.948188,-4.05311 c 0,0 2.219561,-1.214 2.219561,-1.214 0,0 3.956608,-2.26009 3.956608,-2.26009 -0.419786,-0.16695 -1.259359,-0.0965 -1.737047,-0.0965 0,0 -3.474094,0 -3.474094,0 -0.285647,0.002 -0.607002,-0.0183 -0.810621,0.22292 -0.182393,0.21714 -0.15344,0.5713 -0.154407,0.83861 0,0 0,2.50907 0,2.50907 z" />
    <path
       id="Auswahl #3"
       fill="#000000"
       stroke="#000000"
       stroke-width="0.352777"
       d="M -10.734297,0.52035295 C -18.156715,2.3054024 -23.42367,8.3343541 -23.434253,16.010773 c 0,0 0,52.210932 0,52.210932 0,0 0,216.604815 0,216.604815 0.0035,2.24013 0.123472,3.53835 1.012469,5.64442 2.441214,5.78201 7.796362,9.846 14.1569234,9.87775 0,0 17.638829,0 17.638829,0 0,0 110.4190716,0 110.4190716,0 8.63597,-0.0141 15.50806,-6.8862 15.52217,-15.52217 0,0 0,-20.46105 0,-20.46105 0,0 0,-121.00236 0,-121.00236 0,0 0,-127.352337 0,-127.352337 -0.004,-2.240132 -0.12347,-3.538349 -1.01247,-5.644426 -2.44121,-5.7820079 -7.79636,-9.84599405 -14.15692,-9.84599405 0,0 -16.93328,0 -16.93328,0 0,0 -75.846967,0 -75.846967,0 0,0 -24.6943596,0 -24.6943596,0 0,0 -13.4055104,0 -13.4055104,0 z M -5.4426476,11.096595 c 0,0 14.111063,0 14.111063,0 0,0 26.8110186,0 26.8110186,0 0,0 79.374736,0 79.374736,0 3.34785,-0.02117 7.29542,0.09172 9.01344,3.503071 0.64911,1.291163 0.86077,4.829512 0.8643,6.349979 0,0 0,52.563709 0,52.563709 0,0 0,206.374286 0,206.374286 -0.004,2.90688 -0.06,6.34645 -2.48355,8.32906 -1.59455,1.30174 -4.66017,1.52399 -6.68864,1.54869 0,0 -20.461045,0 -20.461045,0 0,0 -98.0718866,0 -98.0718866,0 -3.443099,-0.007 -7.6552524,-0.15522 -9.1686634,-3.88054 -0.384527,-0.94545 -0.69497,-4.18393 -0.709081,-5.29165 0,0 0,-41.62764 0,-41.62764 0,0 0,-167.921642 0,-167.921642 0,0 0,-50.799827 0,-50.799827 0.0388,-3.273766 0.398638,-7.048475 3.8805424,-8.46311 0.814914,-0.331609 2.564686,-0.469192 3.527766,-0.684386 z m 58.5609096,50.25655 c -5.016482,1.481662 -8.089166,5.104678 -8.113861,10.396326 -0.0035,1.015997 -0.0388,2.190743 0.186972,3.174989 1.075968,4.688401 5.266954,8.053889 10.043549,8.113861 3.679459,0.04233 6.544005,-0.610303 9.098108,-3.534821 1.647466,-1.883827 2.511769,-4.212152 2.543519,-6.695699 0.01058,-1.061858 0.04586,-2.511769 -0.186972,-3.527766 -1.13594,-4.949455 -5.432759,-8.092694 -10.396325,-8.113861 -1.227663,-0.0035 -1.947327,-0.01411 -3.17499,0.186971 z m 1.411107,3.809987 c 3.39371,-0.37747 6.364089,0.867831 7.912778,4.116903 1.859133,3.894653 -0.896052,9.006386 -5.090566,9.761328 -6.815643,1.227662 -11.927376,-7.214281 -5.644425,-12.50593 1.044219,-0.878413 1.541634,-1.054802 2.822213,-1.372301 z M 3.3908774,26.445904 c -2.52588004,1.527522 -1.781521,4.974149 -1.777994,7.556474 0.0035,1.421689 -0.137582,3.009184 1.139469,3.972264 1.213551,0.917219 5.02001,0.617359 6.621616,0.613831 1.2770506,-0.0035 2.7446006,0.127 3.7288476,-0.857247 1.266468,-1.266468 0.86783,-5.457453 0.857247,-7.256614 -0.0071,-1.047746 0.05292,-2.211909 -0.613831,-3.09385 -0.398638,-0.529165 -0.878414,-0.811387 -1.509884,-0.934858 -1.294689,-0.419805 -7.0837526,-0.278694 -8.4454706,0 z m 2.472964,2.384769 c 1.210024,-0.144638 4.067514,-0.373943 4.9741496,0.532693 0.97719,0.980719 0.963079,5.460981 -0.232833,6.293534 -0.7549416,0.522109 -2.4376856,0.479776 -3.3478486,0.458609 -0.807859,-0.02117 -1.912049,-0.04233 -2.522353,-0.649108 -0.885469,-0.888997 -0.885469,-4.868317 -0.190499,-5.870203 0.391582,-0.564442 0.737303,-0.571498 1.319384,-0.765525 z M -0.85655264,20.12062 c -3.11148896,1.308801 -3.52423696,3.026823 -3.52776496,6.120673 0,0 0,14.111063 0,14.111063 0.02469,4.487318 2.049632,5.990146 6.349978,5.997202 0,0 30.3387846,0 30.3387846,0 2.550574,-0.0035 4.536706,-0.253999 5.838452,-2.822213 0.719664,-1.421689 0.511526,-4.014597 0.511526,-5.644425 0,0 0,-11.641627 0,-11.641627 -0.0071,-4.628428 -1.72155,-6.342923 -6.349978,-6.349978 0,0 -21.872147,0 -21.872147,0 0,0 -11.28885064,0.229305 -11.28885064,0.229305 z m 3.17499004,3.333738 c 0,0 10.5832956,0 10.5832956,0 0,0 17.286052,0 17.286052,0 4.205097,0.01411 4.921233,1.231191 4.938872,5.256371 0,0 0,8.466638 0,8.466638 -0.0035,1.661578 0.109361,3.922875 -1.460495,4.963566 -1.492245,0.987775 -6.466394,0.680859 -8.417249,0.680859 0,0 -20.4610396,0 -20.4610396,0 -1.386412,-0.0035 -3.376072,0.05997 -4.48026304,-0.903108 -1.097135,-0.956024 -1.146524,-2.691685 -1.164163,-4.035764 0,0 0,-9.172191 0,-9.172191 0.01411,-2.82574 0.0635,-4.494373 3.17499004,-5.256371 z" />
    <path
       d="m 36.291218,130.76243 c 0,0 -4.921628,2.8806 -4.921628,2.8806 -0.358026,0.20555 -1.439819,0.75465 -1.582644,1.09337 -0.06948,0.16599 -0.0579,0.47383 -0.0579,0.65815 0,0 0,2.12306 0,2.12306 0.01446,0.7643 0.249942,0.8637 0.965027,0.86852 0,0 4.632126,0 4.632126,0 0.934141,-0.002 1.059596,-0.12738 1.061526,-1.06153 0,0 0,-4.43912 0,-4.43912 0,-0.52208 0.07527,-1.68976 -0.09651,-2.12305 z m 0.386012,0.0965 c 0,0 0,6.46567 0,6.46567 0.0018,0.73921 0.02896,1.04609 0.868525,1.06153 0,0 4.728628,0 4.728628,0 0.267313,-0.001 0.621476,0.028 0.838606,-0.1544 0.220027,-0.18625 0.218097,-0.45067 0.222923,-0.71412 0,0 0,-2.12306 0,-2.12306 -0.0018,-0.93221 -0.09554,-0.85405 -1.447541,-1.62607 0,0 -3.28109,-1.88855 -3.28109,-1.88855 -0.577083,-0.33487 -1.304713,-0.83861 -1.930051,-1.021 z m -7.334197,3.95661 c 0,0 -6.079667,3.47409 -6.079667,3.47409 0.419787,0.16695 1.25936,0.0965 1.737047,0.0965 0,0 3.377596,0 3.377596,0 0.306877,-0.001 0.688063,0.0367 0.907123,-0.22292 0.169844,-0.20169 0.152473,-0.49506 0.154403,-0.74211 0.0038,-0.57129 0.08106,-2.15779 -0.0965,-2.60556 z m 14.282385,0 c 0,0 0,2.60556 0,2.60556 0.0058,0.89266 0.223886,0.9631 1.06153,0.96503 0,0 5.114639,0 5.114639,0 0,0 -2.895079,-1.72257 -2.895079,-1.72257 0,0 -3.28109,-1.84802 -3.28109,-1.84802 z m -20.844562,3.8601 c 0,0 0,7.72021 0,7.72021 0,0 5.597153,0 5.597153,0 0.83764,-0.002 1.055737,-0.0724 1.061526,-0.96503 0,0 0,-5.69365 0,-5.69365 -0.0018,-0.83764 -0.07238,-1.05574 -0.965024,-1.06153 0,0 -5.693655,0 -5.693655,0 z m 7.252169,0.0984 c -0.474791,0.42075 -0.30398,1.24489 -0.30398,1.83162 0,0 0,4.72863 0,4.72863 0.0018,0.73921 0.02896,1.04609 0.868518,1.06153 0,0 4.728635,0 4.728635,0 0.837639,-0.002 1.055733,-0.0724 1.061526,-0.96503 0,0 0,-5.69365 0,-5.69365 -0.0018,-0.83764 -0.07238,-1.05574 -0.965028,-1.06153 0,0 -3.570596,0 -3.570596,0 -0.535589,0 -1.332698,-0.0743 -1.819075,0.0984 z m 6.948189,0 c -0.474795,0.42075 -0.303984,1.24489 -0.303984,1.83162 0,0 0,4.72863 0,4.72863 0.0018,0.73921 0.02896,1.04609 0.868525,1.06153 0,0 4.728628,0 4.728628,0 0.837643,-0.002 1.055737,-0.0724 1.061529,-0.96503 0,0 0,-5.69365 0,-5.69365 -0.0018,-0.83764 -0.07238,-1.05574 -0.965027,-1.06153 0,0 -3.570597,0 -3.570597,0 -0.535588,0 -1.332701,-0.0743 -1.819074,0.0984 z m 13.30289,7.62178 c 0,0 0,-7.72021 0,-7.72021 0,0 -5.597156,0 -5.597156,0 -0.837644,0.002 -1.055737,0.0724 -1.06153,0.96503 0,0 0,5.69365 0,5.69365 0.0018,0.83764 0.07238,1.05574 0.965028,1.06153 0,0 5.693658,0 5.693658,0 z m -27.503248,0.28951 c 0,0 0,7.62371 0,7.62371 0,0 5.597153,0 5.597153,0 0.83764,-0.002 1.055737,-0.0724 1.061526,-0.96503 0,0 0,-5.59715 0,-5.59715 -0.0018,-0.83764 -0.07238,-1.05574 -0.965024,-1.06153 0,0 -5.693655,0 -5.693655,0 z m 7.252169,0.0984 c -0.46128,0.40821 -0.30398,1.16672 -0.30398,1.73512 0,0 0,4.72863 0,4.72863 0.0018,0.73921 0.02896,1.04608 0.868518,1.06153 0,0 4.728635,0 4.728635,0 0.837639,-0.002 1.055733,-0.0724 1.061526,-0.96503 0,0 0,-5.59715 0,-5.59715 -0.0018,-0.83764 -0.07238,-1.05574 -0.965028,-1.06153 0,0 -3.570596,0 -3.570596,0 -0.535589,0 -1.332698,-0.0743 -1.819075,0.0984 z m 6.948189,0 c -0.461284,0.40821 -0.303984,1.16672 -0.303984,1.73512 0,0 0,4.72863 0,4.72863 0.0018,0.73921 0.02896,1.04608 0.868525,1.06153 0,0 4.728628,0 4.728628,0 0.837643,-0.002 1.055737,-0.0724 1.061529,-0.96503 0,0 0,-5.59715 0,-5.59715 -0.0018,-0.83764 -0.07238,-1.05574 -0.965027,-1.06153 0,0 -3.570597,0 -3.570597,0 -0.535588,0 -1.332701,-0.0743 -1.819074,0.0984 z m 13.30289,7.52528 c 0,0 0,-7.62371 0,-7.62371 0,0 -5.597156,0 -5.597156,0 -0.837644,0.002 -1.055737,0.0724 -1.06153,0.96502 0,0 0,5.59716 0,5.59716 0.0018,0.83764 0.07238,1.05574 0.965028,1.06153 0,0 5.693658,0 5.693658,0 z m -27.020738,0.2895 c 0,0 3.570596,2.15008 3.570596,2.15008 0,0 2.605573,1.42052 2.605573,1.42052 0,0 0,-2.60557 0,-2.60557 -0.0058,-0.89265 -0.223886,-0.96309 -1.061526,-0.96503 0,0 -5.114643,0 -5.114643,0 z m 13.124358,7.62371 c 0,0 0,-6.56218 0,-6.56218 -0.0018,-0.73921 -0.02896,-1.04609 -0.868526,-1.06153 0,0 -4.728624,0 -4.728624,0 -0.267313,0.001 -0.621476,-0.028 -0.83861,0.15441 -0.220023,0.18625 -0.218093,0.45066 -0.222919,0.71412 0,0 0,2.21956 0,2.21956 0,0.16888 -0.01351,0.49023 0.05501,0.63788 0.124491,0.26827 1.186983,0.81544 1.489034,0.98818 0,0 5.11464,2.90956 5.11464,2.90956 z m 0.289506,0 c 0,0 2.21956,-1.25357 2.21956,-1.25357 0,0 2.798577,-1.61449 2.798577,-1.61449 0.385045,-0.21906 1.427274,-0.71509 1.582644,-1.0982 0.06948,-0.17081 0.0579,-0.47769 0.0579,-0.66586 0,0 0,-1.93006 0,-1.93006 -0.0018,-0.73921 -0.02896,-1.04609 -0.868525,-1.06153 0,0 -4.728628,0 -4.728628,0 -0.226782,0 -0.559715,-0.0183 -0.757545,0.0984 -0.444876,0.26345 -0.303984,1.36165 -0.303984,1.83162 0,0 0,5.69365 0,5.69365 z m 6.948188,-4.05311 c 0,0 2.219561,-1.214 2.219561,-1.214 0,0 3.956608,-2.26009 3.956608,-2.26009 -0.419786,-0.16695 -1.259359,-0.0965 -1.737047,-0.0965 0,0 -3.474094,0 -3.474094,0 -0.285647,0.002 -0.607002,-0.0183 -0.810621,0.22292 -0.182393,0.21714 -0.15344,0.5713 -0.154407,0.83861 0,0 0,2.50907 0,2.50907 z"
       stroke-width="0.0965027"
       stroke="#000000"
       fill="#000000"
       id="path62" />
    <path
       id="path64"
       fill="#000000"
       stroke="#000000"
       stroke-width="0.0965027"
       d="m 8.4519932,130.78235 c 0,0 -4.921628,2.8806 -4.921628,2.8806 -0.358026,0.20555 -1.439819,0.75465 -1.582644,1.09337 -0.06948,0.16599 -0.0579,0.47383 -0.0579,0.65815 0,0 0,2.12306 0,2.12306 0.01446,0.7643 0.249942,0.8637 0.965027,0.86852 0,0 4.632126,0 4.632126,0 0.934141,-0.002 1.059596,-0.12738 1.061526,-1.06153 0,0 0,-4.43912 0,-4.43912 0,-0.52208 0.07527,-1.68976 -0.09651,-2.12305 z m 0.386012,0.0965 c 0,0 0,6.46567 0,6.46567 0.0018,0.73921 0.02896,1.04609 0.868525,1.06153 0,0 4.7286278,0 4.7286278,0 0.267313,-0.001 0.621476,0.028 0.838606,-0.1544 0.220027,-0.18625 0.218097,-0.45067 0.222923,-0.71412 0,0 0,-2.12306 0,-2.12306 -0.0018,-0.93221 -0.09554,-0.85405 -1.447541,-1.62607 0,0 -3.28109,-1.88855 -3.28109,-1.88855 -0.577083,-0.33487 -1.3047128,-0.83861 -1.9300508,-1.021 z m -7.334197,3.95661 c 0,0 -6.079667,3.47409 -6.079667,3.47409 0.419787,0.16695 1.25936,0.0965 1.737047,0.0965 0,0 3.37759598,0 3.37759598,0 0.306877,-0.001 0.68806302,0.0367 0.90712302,-0.22292 0.169844,-0.20169 0.152473,-0.49506 0.154403,-0.74211 0.0038,-0.57129 0.08106,-2.15779 -0.0965,-2.60556 z m 14.2823848,0 c 0,0 0,2.60556 0,2.60556 0.0058,0.89266 0.223886,0.9631 1.06153,0.96503 0,0 5.114639,0 5.114639,0 0,0 -2.895079,-1.72257 -2.895079,-1.72257 0,0 -3.28109,-1.84802 -3.28109,-1.84802 z m -20.8445618,3.8601 c 0,0 0,7.72021 0,7.72021 0,0 5.59715298,0 5.59715298,0 0.83764002,-0.002 1.05573702,-0.0724 1.06152602,-0.96503 0,0 0,-5.69365 0,-5.69365 -0.0018,-0.83764 -0.07238,-1.05574 -0.96502402,-1.06153 0,0 -5.69365498,0 -5.69365498,0 z m 7.252169,0.0984 c -0.474791,0.42075 -0.30398,1.24489 -0.30398,1.83162 0,0 0,4.72863 0,4.72863 0.0018,0.73921 0.02896,1.04609 0.868518,1.06153 0,0 4.728635,0 4.728635,0 0.837639,-0.002 1.055733,-0.0724 1.061526,-0.96503 0,0 0,-5.69365 0,-5.69365 -0.0018,-0.83764 -0.07238,-1.05574 -0.965028,-1.06153 0,0 -3.570596,0 -3.570596,0 -0.535589,0 -1.332698,-0.0743 -1.819075,0.0984 z m 6.948189,0 c -0.474795,0.42075 -0.303984,1.24489 -0.303984,1.83162 0,0 0,4.72863 0,4.72863 0.0018,0.73921 0.02896,1.04609 0.868525,1.06153 0,0 4.7286278,0 4.7286278,0 0.837643,-0.002 1.055737,-0.0724 1.061529,-0.96503 0,0 0,-5.69365 0,-5.69365 -0.0018,-0.83764 -0.07238,-1.05574 -0.965027,-1.06153 0,0 -3.570597,0 -3.570597,0 -0.535588,0 -1.3327008,-0.0743 -1.8190738,0.0984 z m 13.3028898,7.62178 c 0,0 0,-7.72021 0,-7.72021 0,0 -5.597156,0 -5.597156,0 -0.837644,0.002 -1.055737,0.0724 -1.06153,0.96503 0,0 0,5.69365 0,5.69365 0.0018,0.83764 0.07238,1.05574 0.965028,1.06153 0,0 5.693658,0 5.693658,0 z m -27.5032478,0.28951 c 0,0 0,7.62371 0,7.62371 0,0 5.59715298,0 5.59715298,0 0.83764002,-0.002 1.05573702,-0.0724 1.06152602,-0.96503 0,0 0,-5.59715 0,-5.59715 -0.0018,-0.83764 -0.07238,-1.05574 -0.96502402,-1.06153 0,0 -5.69365498,0 -5.69365498,0 z m 7.252169,0.0984 c -0.46128,0.40821 -0.30398,1.16672 -0.30398,1.73512 0,0 0,4.72863 0,4.72863 0.0018,0.73921 0.02896,1.04608 0.868518,1.06153 0,0 4.728635,0 4.728635,0 0.837639,-0.002 1.055733,-0.0724 1.061526,-0.96503 0,0 0,-5.59715 0,-5.59715 -0.0018,-0.83764 -0.07238,-1.05574 -0.965028,-1.06153 0,0 -3.570596,0 -3.570596,0 -0.535589,0 -1.332698,-0.0743 -1.819075,0.0984 z m 6.948189,0 c -0.461284,0.40821 -0.303984,1.16672 -0.303984,1.73512 0,0 0,4.72863 0,4.72863 0.0018,0.73921 0.02896,1.04608 0.868525,1.06153 0,0 4.7286278,0 4.7286278,0 0.837643,-0.002 1.055737,-0.0724 1.061529,-0.96503 0,0 0,-5.59715 0,-5.59715 -0.0018,-0.83764 -0.07238,-1.05574 -0.965027,-1.06153 0,0 -3.570597,0 -3.570597,0 -0.535588,0 -1.3327008,-0.0743 -1.8190738,0.0984 z m 13.3028898,7.52528 c 0,0 0,-7.62371 0,-7.62371 0,0 -5.597156,0 -5.597156,0 -0.837644,0.002 -1.055737,0.0724 -1.06153,0.96502 0,0 0,5.59716 0,5.59716 0.0018,0.83764 0.07238,1.05574 0.965028,1.06153 0,0 5.693658,0 5.693658,0 z m -27.0207378,0.2895 c 0,0 3.570596,2.15008 3.570596,2.15008 0,0 2.605573,1.42052 2.605573,1.42052 0,0 0,-2.60557 0,-2.60557 -0.0058,-0.89265 -0.223886,-0.96309 -1.06152602,-0.96503 0,0 -5.11464298,0 -5.11464298,0 z m 13.124358,7.62371 c 0,0 0,-6.56218 0,-6.56218 -0.0018,-0.73921 -0.02896,-1.04609 -0.868526,-1.06153 0,0 -4.728624,0 -4.728624,0 -0.267313,0.001 -0.621476,-0.028 -0.83861,0.15441 -0.220023,0.18625 -0.218093,0.45066 -0.222919,0.71412 0,0 0,2.21956 0,2.21956 0,0.16888 -0.01351,0.49023 0.05501,0.63788 0.124491,0.26827 1.186983,0.81544 1.489034,0.98818 0,0 5.11464,2.90956 5.11464,2.90956 z m 0.289506,0 c 0,0 2.2195598,-1.25357 2.2195598,-1.25357 0,0 2.798577,-1.61449 2.798577,-1.61449 0.385045,-0.21906 1.427274,-0.71509 1.582644,-1.0982 0.06948,-0.17081 0.0579,-0.47769 0.0579,-0.66586 0,0 0,-1.93006 0,-1.93006 -0.0018,-0.73921 -0.02896,-1.04609 -0.868525,-1.06153 0,0 -4.7286278,0 -4.7286278,0 -0.226782,0 -0.559715,-0.0183 -0.757545,0.0984 -0.444876,0.26345 -0.303984,1.36165 -0.303984,1.83162 0,0 0,5.69365 0,5.69365 z m 6.9481878,-4.05311 c 0,0 2.219561,-1.214 2.219561,-1.214 0,0 3.956608,-2.26009 3.956608,-2.26009 -0.419786,-0.16695 -1.259359,-0.0965 -1.737047,-0.0965 0,0 -3.474094,0 -3.474094,0 -0.285647,0.002 -0.607002,-0.0183 -0.810621,0.22292 -0.182393,0.21714 -0.15344,0.5713 -0.154407,0.83861 0,0 0,2.50907 0,2.50907 z" />
    <path
       d="m 22.419396,154.85472 c 0,0 -4.921628,2.8806 -4.921628,2.8806 -0.358026,0.20555 -1.439819,0.75465 -1.582644,1.09337 -0.06948,0.16599 -0.0579,0.47383 -0.0579,0.65815 0,0 0,2.12306 0,2.12306 0.01446,0.7643 0.249942,0.8637 0.965027,0.86852 0,0 4.632126,0 4.632126,0 0.934141,-0.002 1.059596,-0.12738 1.061526,-1.06153 0,0 0,-4.43912 0,-4.43912 0,-0.52208 0.07527,-1.68976 -0.09651,-2.12305 z m 0.386012,0.0965 c 0,0 0,6.46567 0,6.46567 0.0018,0.73921 0.02896,1.04609 0.868525,1.06153 0,0 4.728627,0 4.728627,0 0.267313,-0.001 0.621476,0.028 0.838606,-0.1544 0.220027,-0.18625 0.218097,-0.45067 0.222923,-0.71412 0,0 0,-2.12306 0,-2.12306 -0.0018,-0.93221 -0.09554,-0.85405 -1.447541,-1.62607 0,0 -3.28109,-1.88855 -3.28109,-1.88855 -0.577083,-0.33487 -1.304712,-0.83861 -1.93005,-1.021 z m -7.334197,3.95661 c 0,0 -6.0796683,3.47409 -6.0796683,3.47409 0.419787,0.16695 1.2593603,0.0965 1.7370483,0.0965 0,0 3.377596,0 3.377596,0 0.306877,-0.001 0.688063,0.0367 0.907123,-0.22292 0.169844,-0.20169 0.152473,-0.49506 0.154403,-0.74211 0.0038,-0.57129 0.08106,-2.15779 -0.0965,-2.60556 z m 14.282384,0 c 0,0 0,2.60556 0,2.60556 0.0058,0.89266 0.223886,0.9631 1.06153,0.96503 0,0 5.114639,0 5.114639,0 0,0 -2.895079,-1.72257 -2.895079,-1.72257 0,0 -3.28109,-1.84802 -3.28109,-1.84802 z m -20.8445623,3.8601 c 0,0 0,7.72021 0,7.72021 0,0 5.5971543,0 5.5971543,0 0.83764,-0.002 1.055737,-0.0724 1.061526,-0.96503 0,0 0,-5.69365 0,-5.69365 -0.0018,-0.83764 -0.07238,-1.05574 -0.965024,-1.06153 0,0 -5.6936563,0 -5.6936563,0 z m 7.2521703,0.0984 c -0.474791,0.42075 -0.30398,1.24489 -0.30398,1.83162 0,0 0,4.72863 0,4.72863 0.0018,0.73921 0.02896,1.04609 0.868518,1.06153 0,0 4.728635,0 4.728635,0 0.837639,-0.002 1.055733,-0.0724 1.061526,-0.96503 0,0 0,-5.69365 0,-5.69365 -0.0018,-0.83764 -0.07238,-1.05574 -0.965028,-1.06153 0,0 -3.570596,0 -3.570596,0 -0.535589,0 -1.332698,-0.0743 -1.819075,0.0984 z m 6.948189,0 c -0.474795,0.42075 -0.303984,1.24489 -0.303984,1.83162 0,0 0,4.72863 0,4.72863 0.0018,0.73921 0.02896,1.04609 0.868525,1.06153 0,0 4.728627,0 4.728627,0 0.837643,-0.002 1.055737,-0.0724 1.061529,-0.96503 0,0 0,-5.69365 0,-5.69365 -0.0018,-0.83764 -0.07238,-1.05574 -0.965027,-1.06153 0,0 -3.570597,0 -3.570597,0 -0.535588,0 -1.3327,-0.0743 -1.819073,0.0984 z m 13.302889,7.62178 c 0,0 0,-7.72021 0,-7.72021 0,0 -5.597156,0 -5.597156,0 -0.837644,0.002 -1.055737,0.0724 -1.06153,0.96503 0,0 0,5.69365 0,5.69365 0.0018,0.83764 0.07238,1.05574 0.965028,1.06153 0,0 5.693658,0 5.693658,0 z m -27.5032483,0.28951 c 0,0 0,7.62371 0,7.62371 0,0 5.5971543,0 5.5971543,0 0.83764,-0.002 1.055737,-0.0724 1.061526,-0.96503 0,0 0,-5.59715 0,-5.59715 -0.0018,-0.83764 -0.07238,-1.05574 -0.965024,-1.06153 0,0 -5.6936563,0 -5.6936563,0 z m 7.2521703,0.0984 c -0.46128,0.40821 -0.30398,1.16672 -0.30398,1.73512 0,0 0,4.72863 0,4.72863 0.0018,0.73921 0.02896,1.04608 0.868518,1.06153 0,0 4.728635,0 4.728635,0 0.837639,-0.002 1.055733,-0.0724 1.061526,-0.96503 0,0 0,-5.59715 0,-5.59715 -0.0018,-0.83764 -0.07238,-1.05574 -0.965028,-1.06153 0,0 -3.570596,0 -3.570596,0 -0.535589,0 -1.332698,-0.0743 -1.819075,0.0984 z m 6.948189,0 c -0.461284,0.40821 -0.303984,1.16672 -0.303984,1.73512 0,0 0,4.72863 0,4.72863 0.0018,0.73921 0.02896,1.04608 0.868525,1.06153 0,0 4.728627,0 4.728627,0 0.837643,-0.002 1.055737,-0.0724 1.061529,-0.96503 0,0 0,-5.59715 0,-5.59715 -0.0018,-0.83764 -0.07238,-1.05574 -0.965027,-1.06153 0,0 -3.570597,0 -3.570597,0 -0.535588,0 -1.3327,-0.0743 -1.819073,0.0984 z m 13.302889,7.52528 c 0,0 0,-7.62371 0,-7.62371 0,0 -5.597156,0 -5.597156,0 -0.837644,0.002 -1.055737,0.0724 -1.06153,0.96502 0,0 0,5.59716 0,5.59716 0.0018,0.83764 0.07238,1.05574 0.965028,1.06153 0,0 5.693658,0 5.693658,0 z m -27.0207383,0.2895 c 0,0 3.5705973,2.15008 3.5705973,2.15008 0,0 2.605573,1.42052 2.605573,1.42052 0,0 0,-2.60557 0,-2.60557 -0.0058,-0.89265 -0.223886,-0.96309 -1.061526,-0.96503 0,0 -5.1146443,0 -5.1146443,0 z m 13.1243593,7.62371 c 0,0 0,-6.56218 0,-6.56218 -0.0018,-0.73921 -0.02896,-1.04609 -0.868526,-1.06153 0,0 -4.728624,0 -4.728624,0 -0.267313,0.001 -0.621476,-0.028 -0.83861,0.15441 -0.220023,0.18625 -0.218093,0.45066 -0.222919,0.71412 0,0 0,2.21956 0,2.21956 0,0.16888 -0.01351,0.49023 0.05501,0.63788 0.124491,0.26827 1.186983,0.81544 1.489034,0.98818 0,0 5.11464,2.90956 5.11464,2.90956 z m 0.289506,0 c 0,0 2.219559,-1.25357 2.219559,-1.25357 0,0 2.798577,-1.61449 2.798577,-1.61449 0.385045,-0.21906 1.427274,-0.71509 1.582644,-1.0982 0.06948,-0.17081 0.0579,-0.47769 0.0579,-0.66586 0,0 0,-1.93006 0,-1.93006 -0.0018,-0.73921 -0.02896,-1.04609 -0.868525,-1.06153 0,0 -4.728627,0 -4.728627,0 -0.226782,0 -0.559715,-0.0183 -0.757545,0.0984 -0.444876,0.26345 -0.303984,1.36165 -0.303984,1.83162 0,0 0,5.69365 0,5.69365 z m 6.948187,-4.05311 c 0,0 2.219561,-1.214 2.219561,-1.214 0,0 3.956608,-2.26009 3.956608,-2.26009 -0.419786,-0.16695 -1.259359,-0.0965 -1.737047,-0.0965 0,0 -3.474094,0 -3.474094,0 -0.285647,0.002 -0.607002,-0.0183 -0.810621,0.22292 -0.182393,0.21714 -0.15344,0.5713 -0.154407,0.83861 0,0 0,2.50907 0,2.50907 z"
       stroke-width="0.0965027"
       stroke="#000000"
       fill="#000000"
       id="path66" />
    <path
       id="path68"
       fill="#000000"
       stroke="#000000"
       stroke-width="0.0965027"
       d="m 36.317411,178.84216 c 0,0 -4.921628,2.8806 -4.921628,2.8806 -0.358026,0.20555 -1.439819,0.75465 -1.582644,1.09337 -0.06948,0.16599 -0.0579,0.47383 -0.0579,0.65815 0,0 0,2.12306 0,2.12306 0.01446,0.7643 0.249942,0.8637 0.965027,0.86852 0,0 4.632126,0 4.632126,0 0.934141,-0.002 1.059596,-0.12738 1.061526,-1.06153 0,0 0,-4.43912 0,-4.43912 0,-0.52208 0.07527,-1.68976 -0.09651,-2.12305 z m 0.386012,0.0965 c 0,0 0,6.46567 0,6.46567 0.0018,0.73921 0.02896,1.04609 0.868525,1.06153 0,0 4.728627,0 4.728627,0 0.267313,-0.001 0.621476,0.028 0.838606,-0.1544 0.220027,-0.18625 0.218097,-0.45067 0.222923,-0.71412 0,0 0,-2.12306 0,-2.12306 -0.0018,-0.93221 -0.09554,-0.85405 -1.447541,-1.62607 0,0 -3.28109,-1.88855 -3.28109,-1.88855 -0.577083,-0.33487 -1.304712,-0.83861 -1.93005,-1.021 z m -7.334197,3.95661 c 0,0 -6.079668,3.47409 -6.079668,3.47409 0.419787,0.16695 1.25936,0.0965 1.737048,0.0965 0,0 3.377596,0 3.377596,0 0.306877,-0.001 0.688063,0.0367 0.907123,-0.22292 0.169844,-0.20169 0.152473,-0.49506 0.154403,-0.74211 0.0038,-0.57129 0.08106,-2.15779 -0.0965,-2.60556 z m 14.282384,0 c 0,0 0,2.60556 0,2.60556 0.0058,0.89266 0.223886,0.9631 1.06153,0.96503 0,0 5.114639,0 5.114639,0 0,0 -2.895079,-1.72257 -2.895079,-1.72257 0,0 -3.28109,-1.84802 -3.28109,-1.84802 z m -20.844562,3.8601 c 0,0 0,7.72021 0,7.72021 0,0 5.597154,0 5.597154,0 0.83764,-0.002 1.055737,-0.0724 1.061526,-0.96503 0,0 0,-5.69365 0,-5.69365 -0.0018,-0.83764 -0.07238,-1.05574 -0.965024,-1.06153 0,0 -5.693656,0 -5.693656,0 z m 7.25217,0.0984 c -0.474791,0.42075 -0.30398,1.24489 -0.30398,1.83162 0,0 0,4.72863 0,4.72863 0.0018,0.73921 0.02896,1.04609 0.868518,1.06153 0,0 4.728635,0 4.728635,0 0.837639,-0.002 1.055733,-0.0724 1.061526,-0.96503 0,0 0,-5.69365 0,-5.69365 -0.0018,-0.83764 -0.07238,-1.05574 -0.965028,-1.06153 0,0 -3.570596,0 -3.570596,0 -0.535589,0 -1.332698,-0.0743 -1.819075,0.0984 z m 6.948189,0 c -0.474795,0.42075 -0.303984,1.24489 -0.303984,1.83162 0,0 0,4.72863 0,4.72863 0.0018,0.73921 0.02896,1.04609 0.868525,1.06153 0,0 4.728627,0 4.728627,0 0.837643,-0.002 1.055737,-0.0724 1.061529,-0.96503 0,0 0,-5.69365 0,-5.69365 -0.0018,-0.83764 -0.07238,-1.05574 -0.965027,-1.06153 0,0 -3.570597,0 -3.570597,0 -0.535588,0 -1.3327,-0.0743 -1.819073,0.0984 z m 13.302889,7.62178 c 0,0 0,-7.72021 0,-7.72021 0,0 -5.597156,0 -5.597156,0 -0.837644,0.002 -1.055737,0.0724 -1.06153,0.96503 0,0 0,5.69365 0,5.69365 0.0018,0.83764 0.07238,1.05574 0.965028,1.06153 0,0 5.693658,0 5.693658,0 z m -27.503248,0.28951 c 0,0 0,7.62371 0,7.62371 0,0 5.597154,0 5.597154,0 0.83764,-0.002 1.055737,-0.0724 1.061526,-0.96503 0,0 0,-5.59715 0,-5.59715 -0.0018,-0.83764 -0.07238,-1.05574 -0.965024,-1.06153 0,0 -5.693656,0 -5.693656,0 z m 7.25217,0.0984 c -0.46128,0.40821 -0.30398,1.16672 -0.30398,1.73512 0,0 0,4.72863 0,4.72863 0.0018,0.73921 0.02896,1.04608 0.868518,1.06153 0,0 4.728635,0 4.728635,0 0.837639,-0.002 1.055733,-0.0724 1.061526,-0.96503 0,0 0,-5.59715 0,-5.59715 -0.0018,-0.83764 -0.07238,-1.05574 -0.965028,-1.06153 0,0 -3.570596,0 -3.570596,0 -0.535589,0 -1.332698,-0.0743 -1.819075,0.0984 z m 6.948189,0 c -0.461284,0.40821 -0.303984,1.16672 -0.303984,1.73512 0,0 0,4.72863 0,4.72863 0.0018,0.73921 0.02896,1.04608 0.868525,1.06153 0,0 4.728627,0 4.728627,0 0.837643,-0.002 1.055737,-0.0724 1.061529,-0.96503 0,0 0,-5.59715 0,-5.59715 -0.0018,-0.83764 -0.07238,-1.05574 -0.965027,-1.06153 0,0 -3.570597,0 -3.570597,0 -0.535588,0 -1.3327,-0.0743 -1.819073,0.0984 z m 13.302889,7.52528 c 0,0 0,-7.62371 0,-7.62371 0,0 -5.597156,0 -5.597156,0 -0.837644,0.002 -1.055737,0.0724 -1.06153,0.96502 0,0 0,5.59716 0,5.59716 0.0018,0.83764 0.07238,1.05574 0.965028,1.06153 0,0 5.693658,0 5.693658,0 z m -27.020738,0.2895 c 0,0 3.570597,2.15008 3.570597,2.15008 0,0 2.605573,1.42052 2.605573,1.42052 0,0 0,-2.60557 0,-2.60557 -0.0058,-0.89265 -0.223886,-0.96309 -1.061526,-0.96503 0,0 -5.114644,0 -5.114644,0 z m 13.124359,7.62371 c 0,0 0,-6.56218 0,-6.56218 -0.0018,-0.73921 -0.02896,-1.04609 -0.868526,-1.06153 0,0 -4.728624,0 -4.728624,0 -0.267313,0.001 -0.621476,-0.028 -0.83861,0.15441 -0.220023,0.18625 -0.218093,0.45066 -0.222919,0.71412 0,0 0,2.21956 0,2.21956 0,0.16888 -0.01351,0.49023 0.05501,0.63788 0.124491,0.26827 1.186983,0.81544 1.489034,0.98818 0,0 5.11464,2.90956 5.11464,2.90956 z m 0.289506,0 c 0,0 2.219559,-1.25357 2.219559,-1.25357 0,0 2.798577,-1.61449 2.798577,-1.61449 0.385045,-0.21906 1.427274,-0.71509 1.582644,-1.0982 0.06948,-0.17081 0.0579,-0.47769 0.0579,-0.66586 0,0 0,-1.93006 0,-1.93006 -0.0018,-0.73921 -0.02896,-1.04609 -0.868525,-1.06153 0,0 -4.728627,0 -4.728627,0 -0.226782,0 -0.559715,-0.0183 -0.757545,0.0984 -0.444876,0.26345 -0.303984,1.36165 -0.303984,1.83162 0,0 0,5.69365 0,5.69365 z m 6.948187,-4.05311 c 0,0 2.219561,-1.214 2.219561,-1.214 0,0 3.956608,-2.26009 3.956608,-2.26009 -0.419786,-0.16695 -1.259359,-0.0965 -1.737047,-0.0965 0,0 -3.474094,0 -3.474094,0 -0.285647,0.002 -0.607002,-0.0183 -0.810621,0.22292 -0.182393,0.21714 -0.15344,0.5713 -0.154407,0.83861 0,0 0,2.50907 0,2.50907 z" />
    <path
       d="m 22.403163,202.8909 c 0,0 -4.921628,2.8806 -4.921628,2.8806 -0.358026,0.20555 -1.439819,0.75465 -1.582644,1.09337 -0.06948,0.16599 -0.0579,0.47383 -0.0579,0.65815 0,0 0,2.12306 0,2.12306 0.01446,0.7643 0.249942,0.8637 0.965027,0.86852 0,0 4.632126,0 4.632126,0 0.934141,-0.002 1.059596,-0.12738 1.061526,-1.06153 0,0 0,-4.43912 0,-4.43912 0,-0.52208 0.07527,-1.68976 -0.09651,-2.12305 z m 0.386012,0.0965 c 0,0 0,6.46567 0,6.46567 0.0018,0.73921 0.02896,1.04609 0.868525,1.06153 0,0 4.728627,0 4.728627,0 0.267313,-0.001 0.621476,0.028 0.838606,-0.1544 0.220027,-0.18625 0.218097,-0.45067 0.222923,-0.71412 0,0 0,-2.12306 0,-2.12306 -0.0018,-0.93221 -0.09554,-0.85405 -1.447541,-1.62607 0,0 -3.28109,-1.88855 -3.28109,-1.88855 -0.577083,-0.33487 -1.304712,-0.83861 -1.93005,-1.021 z m -7.334197,3.95661 c 0,0 -6.0796685,3.47409 -6.0796685,3.47409 0.419787,0.16695 1.2593605,0.0965 1.7370485,0.0965 0,0 3.377596,0 3.377596,0 0.306877,-0.001 0.688063,0.0367 0.907123,-0.22292 0.169844,-0.20169 0.152473,-0.49506 0.154403,-0.74211 0.0038,-0.57129 0.08106,-2.15779 -0.0965,-2.60556 z m 14.282384,0 c 0,0 0,2.60556 0,2.60556 0.0058,0.89266 0.223886,0.9631 1.06153,0.96503 0,0 5.114639,0 5.114639,0 0,0 -2.895079,-1.72257 -2.895079,-1.72257 0,0 -3.28109,-1.84802 -3.28109,-1.84802 z m -20.8445625,3.8601 c 0,0 0,7.72021 0,7.72021 0,0 5.5971545,0 5.5971545,0 0.83764,-0.002 1.055737,-0.0724 1.061526,-0.96503 0,0 0,-5.69365 0,-5.69365 -0.0018,-0.83764 -0.07238,-1.05574 -0.965024,-1.06153 0,0 -5.6936565,0 -5.6936565,0 z m 7.2521705,0.0984 c -0.474791,0.42075 -0.30398,1.24489 -0.30398,1.83162 0,0 0,4.72863 0,4.72863 0.0018,0.73921 0.02896,1.04609 0.868518,1.06153 0,0 4.728635,0 4.728635,0 0.837639,-0.002 1.055733,-0.0724 1.061526,-0.96503 0,0 0,-5.69365 0,-5.69365 -0.0018,-0.83764 -0.07238,-1.05574 -0.965028,-1.06153 0,0 -3.570596,0 -3.570596,0 -0.535589,0 -1.332698,-0.0743 -1.819075,0.0984 z m 6.948189,0 c -0.474795,0.42075 -0.303984,1.24489 -0.303984,1.83162 0,0 0,4.72863 0,4.72863 0.0018,0.73921 0.02896,1.04609 0.868525,1.06153 0,0 4.728627,0 4.728627,0 0.837643,-0.002 1.055737,-0.0724 1.061529,-0.96503 0,0 0,-5.69365 0,-5.69365 -0.0018,-0.83764 -0.07238,-1.05574 -0.965027,-1.06153 0,0 -3.570597,0 -3.570597,0 -0.535588,0 -1.3327,-0.0743 -1.819073,0.0984 z m 13.302889,7.62178 c 0,0 0,-7.72021 0,-7.72021 0,0 -5.597156,0 -5.597156,0 -0.837644,0.002 -1.055737,0.0724 -1.06153,0.96503 0,0 0,5.69365 0,5.69365 0.0018,0.83764 0.07238,1.05574 0.965028,1.06153 0,0 5.693658,0 5.693658,0 z M 8.8927995,218.8138 c 0,0 0,7.62371 0,7.62371 0,0 5.5971545,0 5.5971545,0 0.83764,-0.002 1.055737,-0.0724 1.061526,-0.96503 0,0 0,-5.59715 0,-5.59715 -0.0018,-0.83764 -0.07238,-1.05574 -0.965024,-1.06153 0,0 -5.6936565,0 -5.6936565,0 z m 7.2521705,0.0984 c -0.46128,0.40821 -0.30398,1.16672 -0.30398,1.73512 0,0 0,4.72863 0,4.72863 0.0018,0.73921 0.02896,1.04608 0.868518,1.06153 0,0 4.728635,0 4.728635,0 0.837639,-0.002 1.055733,-0.0724 1.061526,-0.96503 0,0 0,-5.59715 0,-5.59715 -0.0018,-0.83764 -0.07238,-1.05574 -0.965028,-1.06153 0,0 -3.570596,0 -3.570596,0 -0.535589,0 -1.332698,-0.0743 -1.819075,0.0984 z m 6.948189,0 c -0.461284,0.40821 -0.303984,1.16672 -0.303984,1.73512 0,0 0,4.72863 0,4.72863 0.0018,0.73921 0.02896,1.04608 0.868525,1.06153 0,0 4.728627,0 4.728627,0 0.837643,-0.002 1.055737,-0.0724 1.061529,-0.96503 0,0 0,-5.59715 0,-5.59715 -0.0018,-0.83764 -0.07238,-1.05574 -0.965027,-1.06153 0,0 -3.570597,0 -3.570597,0 -0.535588,0 -1.3327,-0.0743 -1.819073,0.0984 z m 13.302889,7.52528 c 0,0 0,-7.62371 0,-7.62371 0,0 -5.597156,0 -5.597156,0 -0.837644,0.002 -1.055737,0.0724 -1.06153,0.96502 0,0 0,5.59716 0,5.59716 0.0018,0.83764 0.07238,1.05574 0.965028,1.06153 0,0 5.693658,0 5.693658,0 z m -27.0207385,0.2895 c 0,0 3.5705975,2.15008 3.5705975,2.15008 0,0 2.605573,1.42052 2.605573,1.42052 0,0 0,-2.60557 0,-2.60557 -0.0058,-0.89265 -0.223886,-0.96309 -1.061526,-0.96503 0,0 -5.1146445,0 -5.1146445,0 z m 13.1243595,7.62371 c 0,0 0,-6.56218 0,-6.56218 -0.0018,-0.73921 -0.02896,-1.04609 -0.868526,-1.06153 0,0 -4.728624,0 -4.728624,0 -0.267313,0.001 -0.621476,-0.028 -0.83861,0.15441 -0.220023,0.18625 -0.218093,0.45066 -0.222919,0.71412 0,0 0,2.21956 0,2.21956 0,0.16888 -0.01351,0.49023 0.05501,0.63788 0.124491,0.26827 1.186983,0.81544 1.489034,0.98818 0,0 5.11464,2.90956 5.11464,2.90956 z m 0.289506,0 c 0,0 2.219559,-1.25357 2.219559,-1.25357 0,0 2.798577,-1.61449 2.798577,-1.61449 0.385045,-0.21906 1.427274,-0.71509 1.582644,-1.0982 0.06948,-0.17081 0.0579,-0.47769 0.0579,-0.66586 0,0 0,-1.93006 0,-1.93006 -0.0018,-0.73921 -0.02896,-1.04609 -0.868525,-1.06153 0,0 -4.728627,0 -4.728627,0 -0.226782,0 -0.559715,-0.0183 -0.757545,0.0984 -0.444876,0.26345 -0.303984,1.36165 -0.303984,1.83162 0,0 0,5.69365 0,5.69365 z m 6.948187,-4.05311 c 0,0 2.219561,-1.214 2.219561,-1.214 0,0 3.956608,-2.26009 3.956608,-2.26009 -0.419786,-0.16695 -1.259359,-0.0965 -1.737047,-0.0965 0,0 -3.474094,0 -3.474094,0 -0.285647,0.002 -0.607002,-0.0183 -0.810621,0.22292 -0.182393,0.21714 -0.15344,0.5713 -0.154407,0.83861 0,0 0,2.50907 0,2.50907 z"
       stroke-width="0.0965027"
       stroke="#000000"
       fill="#000000"
       id="path70" />
    <path
       id="path72"
       fill="#000000"
       stroke="#000000"
       stroke-width="0.0965027"
       d="m 36.389266,226.8914 c 0,0 -4.921628,2.8806 -4.921628,2.8806 -0.358026,0.20555 -1.439819,0.75465 -1.582644,1.09337 -0.06948,0.16599 -0.0579,0.47383 -0.0579,0.65815 0,0 0,2.12306 0,2.12306 0.01446,0.7643 0.249942,0.8637 0.965027,0.86852 0,0 4.632126,0 4.632126,0 0.934141,-0.002 1.059596,-0.12738 1.061526,-1.06153 0,0 0,-4.43912 0,-4.43912 0,-0.52208 0.07527,-1.68976 -0.09651,-2.12305 z m 0.386012,0.0965 c 0,0 0,6.46567 0,6.46567 0.0018,0.73921 0.02896,1.04609 0.868525,1.06153 0,0 4.728627,0 4.728627,0 0.267313,-10e-4 0.621476,0.028 0.838606,-0.1544 0.220027,-0.18625 0.218097,-0.45067 0.222923,-0.71412 0,0 0,-2.12306 0,-2.12306 -0.0018,-0.93221 -0.09554,-0.85405 -1.447541,-1.62607 0,0 -3.28109,-1.88855 -3.28109,-1.88855 -0.577083,-0.33487 -1.304712,-0.83861 -1.93005,-1.021 z m -7.334197,3.95661 c 0,0 -6.079669,3.47409 -6.079669,3.47409 0.419787,0.16695 1.259361,0.0965 1.737049,0.0965 0,0 3.377596,0 3.377596,0 0.306877,-10e-4 0.688063,0.0367 0.907123,-0.22292 0.169844,-0.20169 0.152473,-0.49506 0.154403,-0.74211 0.0038,-0.57129 0.08106,-2.15779 -0.0965,-2.60556 z m 14.282384,0 c 0,0 0,2.60556 0,2.60556 0.0058,0.89266 0.223886,0.9631 1.06153,0.96503 0,0 5.114639,0 5.114639,0 0,0 -2.895079,-1.72257 -2.895079,-1.72257 0,0 -3.28109,-1.84802 -3.28109,-1.84802 z m -20.844563,3.8601 c 0,0 0,7.72021 0,7.72021 0,0 5.597155,0 5.597155,0 0.83764,-0.002 1.055737,-0.0724 1.061526,-0.96503 0,0 0,-5.69365 0,-5.69365 -0.0018,-0.83764 -0.07238,-1.05574 -0.965024,-1.06153 0,0 -5.693657,0 -5.693657,0 z m 7.252171,0.0984 c -0.474791,0.42075 -0.30398,1.24489 -0.30398,1.83162 0,0 0,4.72863 0,4.72863 0.0018,0.73921 0.02896,1.04609 0.868518,1.06153 0,0 4.728635,0 4.728635,0 0.837639,-0.002 1.055733,-0.0724 1.061526,-0.96503 0,0 0,-5.69365 0,-5.69365 -0.0018,-0.83764 -0.07238,-1.05574 -0.965028,-1.06153 0,0 -3.570596,0 -3.570596,0 -0.535589,0 -1.332698,-0.0743 -1.819075,0.0984 z m 6.948189,0 c -0.474795,0.42075 -0.303984,1.24489 -0.303984,1.83162 0,0 0,4.72863 0,4.72863 0.0018,0.73921 0.02896,1.04609 0.868525,1.06153 0,0 4.728627,0 4.728627,0 0.837643,-0.002 1.055737,-0.0724 1.061529,-0.96503 0,0 0,-5.69365 0,-5.69365 -0.0018,-0.83764 -0.07238,-1.05574 -0.965027,-1.06153 0,0 -3.570597,0 -3.570597,0 -0.535588,0 -1.3327,-0.0743 -1.819073,0.0984 z m 13.302889,7.62178 c 0,0 0,-7.72021 0,-7.72021 0,0 -5.597156,0 -5.597156,0 -0.837644,0.002 -1.055737,0.0724 -1.06153,0.96503 0,0 0,5.69365 0,5.69365 0.0018,0.83764 0.07238,1.05574 0.965028,1.06153 0,0 5.693658,0 5.693658,0 z m -27.503249,0.28951 c 0,0 0,7.62371 0,7.62371 0,0 5.597155,0 5.597155,0 0.83764,-0.002 1.055737,-0.0724 1.061526,-0.96503 0,0 0,-5.59715 0,-5.59715 -0.0018,-0.83764 -0.07238,-1.05574 -0.965024,-1.06153 0,0 -5.693657,0 -5.693657,0 z m 7.252171,0.0984 c -0.46128,0.40821 -0.30398,1.16672 -0.30398,1.73512 0,0 0,4.72863 0,4.72863 0.0018,0.73921 0.02896,1.04608 0.868518,1.06153 0,0 4.728635,0 4.728635,0 0.837639,-0.002 1.055733,-0.0724 1.061526,-0.96503 0,0 0,-5.59715 0,-5.59715 -0.0018,-0.83764 -0.07238,-1.05574 -0.965028,-1.06153 0,0 -3.570596,0 -3.570596,0 -0.535589,0 -1.332698,-0.0743 -1.819075,0.0984 z m 6.948189,0 c -0.461284,0.40821 -0.303984,1.16672 -0.303984,1.73512 0,0 0,4.72863 0,4.72863 0.0018,0.73921 0.02896,1.04608 0.868525,1.06153 0,0 4.728627,0 4.728627,0 0.837643,-0.002 1.055737,-0.0724 1.061529,-0.96503 0,0 0,-5.59715 0,-5.59715 -0.0018,-0.83764 -0.07238,-1.05574 -0.965027,-1.06153 0,0 -3.570597,0 -3.570597,0 -0.535588,0 -1.3327,-0.0743 -1.819073,0.0984 z m 13.302889,7.52528 c 0,0 0,-7.62371 0,-7.62371 0,0 -5.597156,0 -5.597156,0 -0.837644,0.002 -1.055737,0.0724 -1.06153,0.96502 0,0 0,5.59716 0,5.59716 0.0018,0.83764 0.07238,1.05574 0.965028,1.06153 0,0 5.693658,0 5.693658,0 z m -27.020739,0.2895 c 0,0 3.570598,2.15008 3.570598,2.15008 0,0 2.605573,1.42052 2.605573,1.42052 0,0 0,-2.60557 0,-2.60557 -0.0058,-0.89265 -0.223886,-0.96309 -1.061526,-0.96503 0,0 -5.114645,0 -5.114645,0 z m 13.12436,7.62371 c 0,0 0,-6.56218 0,-6.56218 -0.0018,-0.73921 -0.02896,-1.04609 -0.868526,-1.06153 0,0 -4.728624,0 -4.728624,0 -0.267313,10e-4 -0.621476,-0.028 -0.83861,0.15441 -0.220023,0.18625 -0.218093,0.45066 -0.222919,0.71412 0,0 0,2.21956 0,2.21956 0,0.16888 -0.01351,0.49023 0.05501,0.63788 0.124491,0.26827 1.186983,0.81544 1.489034,0.98818 0,0 5.11464,2.90956 5.11464,2.90956 z m 0.289506,0 c 0,0 2.219559,-1.25357 2.219559,-1.25357 0,0 2.798577,-1.61449 2.798577,-1.61449 0.385045,-0.21906 1.427274,-0.71509 1.582644,-1.0982 0.06948,-0.17081 0.0579,-0.47769 0.0579,-0.66586 0,0 0,-1.93006 0,-1.93006 -0.0018,-0.73921 -0.02896,-1.04609 -0.868525,-1.06153 0,0 -4.728627,0 -4.728627,0 -0.226782,0 -0.559715,-0.0183 -0.757545,0.0984 -0.444876,0.26345 -0.303984,1.36165 -0.303984,1.83162 0,0 0,5.69365 0,5.69365 z m 6.948187,-4.05311 c 0,0 2.219561,-1.214 2.219561,-1.214 0,0 3.956608,-2.26009 3.956608,-2.26009 -0.419786,-0.16695 -1.259359,-0.0965 -1.737047,-0.0965 0,0 -3.474094,0 -3.474094,0 -0.285647,0.002 -0.607002,-0.0183 -0.810621,0.22292 -0.182393,0.21714 -0.15344,0.5713 -0.154407,0.83861 0,0 0,2.50907 0,2.50907 z" />
    <path
       d="m 64.224148,178.90423 c 0,0 -4.921628,2.8806 -4.921628,2.8806 -0.358026,0.20555 -1.439819,0.75465 -1.582644,1.09337 -0.06948,0.16599 -0.0579,0.47383 -0.0579,0.65815 0,0 0,2.12306 0,2.12306 0.01446,0.7643 0.249942,0.8637 0.965027,0.86852 0,0 4.632126,0 4.632126,0 0.934141,-0.002 1.059596,-0.12738 1.061526,-1.06153 0,0 0,-4.43912 0,-4.43912 0,-0.52208 0.07527,-1.68976 -0.09651,-2.12305 z m 0.386012,0.0965 c 0,0 0,6.46567 0,6.46567 0.0018,0.73921 0.02896,1.04609 0.868525,1.06153 0,0 4.728627,0 4.728627,0 0.267313,-0.001 0.621476,0.028 0.838606,-0.1544 0.220027,-0.18625 0.218097,-0.45067 0.222923,-0.71412 0,0 0,-2.12306 0,-2.12306 -0.0018,-0.93221 -0.09554,-0.85405 -1.447541,-1.62607 0,0 -3.28109,-1.88855 -3.28109,-1.88855 -0.577083,-0.33487 -1.304712,-0.83861 -1.93005,-1.021 z m -7.334197,3.95661 c 0,0 -6.079668,3.47409 -6.079668,3.47409 0.419787,0.16695 1.25936,0.0965 1.737048,0.0965 0,0 3.377596,0 3.377596,0 0.306877,-0.001 0.688063,0.0367 0.907123,-0.22292 0.169844,-0.20169 0.152473,-0.49506 0.154403,-0.74211 0.0038,-0.57129 0.08106,-2.15779 -0.0965,-2.60556 z m 14.282384,0 c 0,0 0,2.60556 0,2.60556 0.0058,0.89266 0.223886,0.9631 1.06153,0.96503 0,0 5.114639,0 5.114639,0 0,0 -2.895079,-1.72257 -2.895079,-1.72257 0,0 -3.28109,-1.84802 -3.28109,-1.84802 z m -20.844562,3.8601 c 0,0 0,7.72021 0,7.72021 0,0 5.597154,0 5.597154,0 0.83764,-0.002 1.055737,-0.0724 1.061526,-0.96503 0,0 0,-5.69365 0,-5.69365 -0.0018,-0.83764 -0.07238,-1.05574 -0.965024,-1.06153 0,0 -5.693656,0 -5.693656,0 z m 7.25217,0.0984 c -0.474791,0.42075 -0.30398,1.24489 -0.30398,1.83162 0,0 0,4.72863 0,4.72863 0.0018,0.73921 0.02896,1.04609 0.868518,1.06153 0,0 4.728635,0 4.728635,0 0.837639,-0.002 1.055733,-0.0724 1.061526,-0.96503 0,0 0,-5.69365 0,-5.69365 -0.0018,-0.83764 -0.07238,-1.05574 -0.965028,-1.06153 0,0 -3.570596,0 -3.570596,0 -0.535589,0 -1.332698,-0.0743 -1.819075,0.0984 z m 6.948189,0 c -0.474795,0.42075 -0.303984,1.24489 -0.303984,1.83162 0,0 0,4.72863 0,4.72863 0.0018,0.73921 0.02896,1.04609 0.868525,1.06153 0,0 4.728627,0 4.728627,0 0.837643,-0.002 1.055737,-0.0724 1.061529,-0.96503 0,0 0,-5.69365 0,-5.69365 -0.0018,-0.83764 -0.07238,-1.05574 -0.965027,-1.06153 0,0 -3.570597,0 -3.570597,0 -0.535588,0 -1.3327,-0.0743 -1.819073,0.0984 z m 13.302889,7.62178 c 0,0 0,-7.72021 0,-7.72021 0,0 -5.597156,0 -5.597156,0 -0.837644,0.002 -1.055737,0.0724 -1.06153,0.96503 0,0 0,5.69365 0,5.69365 0.0018,0.83764 0.07238,1.05574 0.965028,1.06153 0,0 5.693658,0 5.693658,0 z m -27.503248,0.28951 c 0,0 0,7.62371 0,7.62371 0,0 5.597154,0 5.597154,0 0.83764,-0.002 1.055737,-0.0724 1.061526,-0.96503 0,0 0,-5.59715 0,-5.59715 -0.0018,-0.83764 -0.07238,-1.05574 -0.965024,-1.06153 0,0 -5.693656,0 -5.693656,0 z m 7.25217,0.0984 c -0.46128,0.40821 -0.30398,1.16672 -0.30398,1.73512 0,0 0,4.72863 0,4.72863 0.0018,0.73921 0.02896,1.04608 0.868518,1.06153 0,0 4.728635,0 4.728635,0 0.837639,-0.002 1.055733,-0.0724 1.061526,-0.96503 0,0 0,-5.59715 0,-5.59715 -0.0018,-0.83764 -0.07238,-1.05574 -0.965028,-1.06153 0,0 -3.570596,0 -3.570596,0 -0.535589,0 -1.332698,-0.0743 -1.819075,0.0984 z m 6.948189,0 c -0.461284,0.40821 -0.303984,1.16672 -0.303984,1.73512 0,0 0,4.72863 0,4.72863 0.0018,0.73921 0.02896,1.04608 0.868525,1.06153 0,0 4.728627,0 4.728627,0 0.837643,-0.002 1.055737,-0.0724 1.061529,-0.96503 0,0 0,-5.59715 0,-5.59715 -0.0018,-0.83764 -0.07238,-1.05574 -0.965027,-1.06153 0,0 -3.570597,0 -3.570597,0 -0.535588,0 -1.3327,-0.0743 -1.819073,0.0984 z m 13.302889,7.52528 c 0,0 0,-7.62371 0,-7.62371 0,0 -5.597156,0 -5.597156,0 -0.837644,0.002 -1.055737,0.0724 -1.06153,0.96502 0,0 0,5.59716 0,5.59716 0.0018,0.83764 0.07238,1.05574 0.965028,1.06153 0,0 5.693658,0 5.693658,0 z m -27.020738,0.2895 c 0,0 3.570597,2.15008 3.570597,2.15008 0,0 2.605573,1.42052 2.605573,1.42052 0,0 0,-2.60557 0,-2.60557 -0.0058,-0.89265 -0.223886,-0.96309 -1.061526,-0.96503 0,0 -5.114644,0 -5.114644,0 z m 13.124359,7.62371 c 0,0 0,-6.56218 0,-6.56218 -0.0018,-0.73921 -0.02896,-1.04609 -0.868526,-1.06153 0,0 -4.728624,0 -4.728624,0 -0.267313,0.001 -0.621476,-0.028 -0.83861,0.15441 -0.220023,0.18625 -0.218093,0.45066 -0.222919,0.71412 0,0 0,2.21956 0,2.21956 0,0.16888 -0.01351,0.49023 0.05501,0.63788 0.124491,0.26827 1.186983,0.81544 1.489034,0.98818 0,0 5.11464,2.90956 5.11464,2.90956 z m 0.289506,0 c 0,0 2.219559,-1.25357 2.219559,-1.25357 0,0 2.798577,-1.61449 2.798577,-1.61449 0.385045,-0.21906 1.427274,-0.71509 1.582644,-1.0982 0.06948,-0.17081 0.0579,-0.47769 0.0579,-0.66586 0,0 0,-1.93006 0,-1.93006 -0.0018,-0.73921 -0.02896,-1.04609 -0.868525,-1.06153 0,0 -4.728627,0 -4.728627,0 -0.226782,0 -0.559715,-0.0183 -0.757545,0.0984 -0.444876,0.26345 -0.303984,1.36165 -0.303984,1.83162 0,0 0,5.69365 0,5.69365 z m 6.948187,-4.05311 c 0,0 2.219561,-1.214 2.219561,-1.214 0,0 3.956608,-2.26009 3.956608,-2.26009 -0.419786,-0.16695 -1.259359,-0.0965 -1.737047,-0.0965 0,0 -3.474094,0 -3.474094,0 -0.285647,0.002 -0.607002,-0.0183 -0.810621,0.22292 -0.182393,0.21714 -0.15344,0.5713 -0.154407,0.83861 0,0 0,2.50907 0,2.50907 z"
       stroke-width="0.0965027"
       stroke="#000000"
       fill="#000000"
       id="path74" />
    <path
       id="path76"
       fill="#000000"
       stroke="#000000"
       stroke-width="0.0965027"
       d="m 78.138516,202.96304 c 0,0 -4.921628,2.8806 -4.921628,2.8806 -0.358026,0.20555 -1.439819,0.75465 -1.582644,1.09337 -0.06948,0.16599 -0.0579,0.47383 -0.0579,0.65815 0,0 0,2.12306 0,2.12306 0.01446,0.7643 0.249942,0.8637 0.965027,0.86852 0,0 4.632126,0 4.632126,0 0.934141,-0.002 1.059596,-0.12738 1.061526,-1.06153 0,0 0,-4.43912 0,-4.43912 0,-0.52208 0.07527,-1.68976 -0.09651,-2.12305 z m 0.386012,0.0965 c 0,0 0,6.46567 0,6.46567 0.0018,0.73921 0.02896,1.04609 0.868525,1.06153 0,0 4.728627,0 4.728627,0 0.267313,-0.001 0.621476,0.028 0.838606,-0.1544 0.220027,-0.18625 0.218097,-0.45067 0.222923,-0.71412 0,0 0,-2.12306 0,-2.12306 -0.0018,-0.93221 -0.09554,-0.85405 -1.447541,-1.62607 0,0 -3.28109,-1.88855 -3.28109,-1.88855 -0.577083,-0.33487 -1.304712,-0.83861 -1.93005,-1.021 z m -7.334197,3.95661 c 0,0 -6.079668,3.47409 -6.079668,3.47409 0.419787,0.16695 1.25936,0.0965 1.737048,0.0965 0,0 3.377596,0 3.377596,0 0.306877,-0.001 0.688063,0.0367 0.907123,-0.22292 0.169844,-0.20169 0.152473,-0.49506 0.154403,-0.74211 0.0038,-0.57129 0.08106,-2.15779 -0.0965,-2.60556 z m 14.282384,0 c 0,0 0,2.60556 0,2.60556 0.0058,0.89266 0.223886,0.9631 1.06153,0.96503 0,0 5.114639,0 5.114639,0 0,0 -2.895079,-1.72257 -2.895079,-1.72257 0,0 -3.28109,-1.84802 -3.28109,-1.84802 z m -20.844562,3.8601 c 0,0 0,7.72021 0,7.72021 0,0 5.597154,0 5.597154,0 0.83764,-0.002 1.055737,-0.0724 1.061526,-0.96503 0,0 0,-5.69365 0,-5.69365 -0.0018,-0.83764 -0.07238,-1.05574 -0.965024,-1.06153 0,0 -5.693656,0 -5.693656,0 z m 7.25217,0.0984 c -0.474791,0.42075 -0.30398,1.24489 -0.30398,1.83162 0,0 0,4.72863 0,4.72863 0.0018,0.73921 0.02896,1.04609 0.868518,1.06153 0,0 4.728635,0 4.728635,0 0.837639,-0.002 1.055733,-0.0724 1.061526,-0.96503 0,0 0,-5.69365 0,-5.69365 -0.0018,-0.83764 -0.07238,-1.05574 -0.965028,-1.06153 0,0 -3.570596,0 -3.570596,0 -0.535589,0 -1.332698,-0.0743 -1.819075,0.0984 z m 6.948189,0 c -0.474795,0.42075 -0.303984,1.24489 -0.303984,1.83162 0,0 0,4.72863 0,4.72863 0.0018,0.73921 0.02896,1.04609 0.868525,1.06153 0,0 4.728627,0 4.728627,0 0.837643,-0.002 1.055737,-0.0724 1.061529,-0.96503 0,0 0,-5.69365 0,-5.69365 -0.0018,-0.83764 -0.07238,-1.05574 -0.965027,-1.06153 0,0 -3.570597,0 -3.570597,0 -0.535588,0 -1.3327,-0.0743 -1.819073,0.0984 z m 13.302889,7.62178 c 0,0 0,-7.72021 0,-7.72021 0,0 -5.597156,0 -5.597156,0 -0.837644,0.002 -1.055737,0.0724 -1.06153,0.96503 0,0 0,5.69365 0,5.69365 0.0018,0.83764 0.07238,1.05574 0.965028,1.06153 0,0 5.693658,0 5.693658,0 z m -27.503248,0.28951 c 0,0 0,7.62371 0,7.62371 0,0 5.597154,0 5.597154,0 0.83764,-0.002 1.055737,-0.0724 1.061526,-0.96503 0,0 0,-5.59715 0,-5.59715 -0.0018,-0.83764 -0.07238,-1.05574 -0.965024,-1.06153 0,0 -5.693656,0 -5.693656,0 z m 7.25217,0.0984 c -0.46128,0.40821 -0.30398,1.16672 -0.30398,1.73512 0,0 0,4.72863 0,4.72863 0.0018,0.73921 0.02896,1.04608 0.868518,1.06153 0,0 4.728635,0 4.728635,0 0.837639,-0.002 1.055733,-0.0724 1.061526,-0.96503 0,0 0,-5.59715 0,-5.59715 -0.0018,-0.83764 -0.07238,-1.05574 -0.965028,-1.06153 0,0 -3.570596,0 -3.570596,0 -0.535589,0 -1.332698,-0.0743 -1.819075,0.0984 z m 6.948189,0 c -0.461284,0.40821 -0.303984,1.16672 -0.303984,1.73512 0,0 0,4.72863 0,4.72863 0.0018,0.73921 0.02896,1.04608 0.868525,1.06153 0,0 4.728627,0 4.728627,0 0.837643,-0.002 1.055737,-0.0724 1.061529,-0.96503 0,0 0,-5.59715 0,-5.59715 -0.0018,-0.83764 -0.07238,-1.05574 -0.965027,-1.06153 0,0 -3.570597,0 -3.570597,0 -0.535588,0 -1.3327,-0.0743 -1.819073,0.0984 z m 13.302889,7.52528 c 0,0 0,-7.62371 0,-7.62371 0,0 -5.597156,0 -5.597156,0 -0.837644,0.002 -1.055737,0.0724 -1.06153,0.96502 0,0 0,5.59716 0,5.59716 0.0018,0.83764 0.07238,1.05574 0.965028,1.06153 0,0 5.693658,0 5.693658,0 z m -27.020738,0.2895 c 0,0 3.570597,2.15008 3.570597,2.15008 0,0 2.605573,1.42052 2.605573,1.42052 0,0 0,-2.60557 0,-2.60557 -0.0058,-0.89265 -0.223886,-0.96309 -1.061526,-0.96503 0,0 -5.114644,0 -5.114644,0 z m 13.124359,7.62371 c 0,0 0,-6.56218 0,-6.56218 -0.0018,-0.73921 -0.02896,-1.04609 -0.868526,-1.06153 0,0 -4.728624,0 -4.728624,0 -0.267313,0.001 -0.621476,-0.028 -0.83861,0.15441 -0.220023,0.18625 -0.218093,0.45066 -0.222919,0.71412 0,0 0,2.21956 0,2.21956 0,0.16888 -0.01351,0.49023 0.05501,0.63788 0.124491,0.26827 1.186983,0.81544 1.489034,0.98818 0,0 5.11464,2.90956 5.11464,2.90956 z m 0.289506,0 c 0,0 2.219559,-1.25357 2.219559,-1.25357 0,0 2.798577,-1.61449 2.798577,-1.61449 0.385045,-0.21906 1.427274,-0.71509 1.582644,-1.0982 0.06948,-0.17081 0.0579,-0.47769 0.0579,-0.66586 0,0 0,-1.93006 0,-1.93006 -0.0018,-0.73921 -0.02896,-1.04609 -0.868525,-1.06153 0,0 -4.728627,0 -4.728627,0 -0.226782,0 -0.559715,-0.0183 -0.757545,0.0984 -0.444876,0.26345 -0.303984,1.36165 -0.303984,1.83162 0,0 0,5.69365 0,5.69365 z m 6.948187,-4.05311 c 0,0 2.219561,-1.214 2.219561,-1.214 0,0 3.956608,-2.26009 3.956608,-2.26009 -0.419786,-0.16695 -1.259359,-0.0965 -1.737047,-0.0965 0,0 -3.474094,0 -3.474094,0 -0.285647,0.002 -0.607002,-0.0183 -0.810621,0.22292 -0.182393,0.21714 -0.15344,0.5713 -0.154407,0.83861 0,0 0,2.50907 0,2.50907 z" />
  </g>
</svg>
