<?xml version="1.0" encoding="UTF-8" standalone="no"?>
<!DOCTYPE svg PUBLIC "-//W3C//DTD SVG 20010904//EN"
              "http://www.w3.org/TR/2001/REC-SVG-20010904/DTD/svg10.dtd">

<svg xmlns="http://www.w3.org/2000/svg"
     width="1.24667in" height="2.29333in"
     viewBox="0 0 374 688">
  <path id="Auswahl"
        fill="white" stroke="white" stroke-width="1"
        d="M 199.53,1.99
           C 203.42,0.46 207.85,1.00 212.00,1.00
             212.00,1.00 235.00,1.00 235.00,1.00
             235.00,1.00 316.00,1.00 316.00,1.00
             316.00,1.00 591.00,1.00 591.00,1.00
             599.91,1.02 598.89,1.06 606.85,15.00
             606.85,15.00 625.99,48.00 625.99,48.00
             625.99,48.00 715.43,203.00 715.43,203.00
             715.43,203.00 773.28,303.00 773.28,303.00
             773.28,303.00 787.15,327.00 787.15,327.00
             788.80,329.88 792.74,336.20 793.75,339.00
             794.11,341.21 794.03,344.66 793.75,347.00
             793.87,356.68 787.12,364.91 782.42,373.00
             782.42,373.00 755.30,420.00 755.30,420.00
             755.30,420.00 712.43,494.00 712.43,494.00
             712.43,494.00 668.43,570.00 668.43,570.00
             668.43,570.00 643.80,613.00 643.80,613.00
             643.80,613.00 610.80,670.00 610.80,670.00
             601.63,685.36 603.08,687.98 592.00,688.00
             592.00,688.00 206.00,688.00 206.00,688.00
             203.61,688.00 200.31,688.21 198.21,686.98
             195.58,685.45 192.04,678.81 190.43,676.00
             190.43,676.00 176.14,651.00 176.14,651.00
             176.14,651.00 106.15,530.00 106.15,530.00
             106.15,530.00 29.85,398.00 29.85,398.00
             29.85,398.00 9.58,363.00 9.58,363.00
             7.40,359.20 1.45,349.95 1.34,346.00
             1.26,342.93 3.37,339.61 4.85,337.00
             4.85,337.00 14.80,320.00 14.80,320.00
             14.80,320.00 50.00,259.00 50.00,259.00
             50.00,259.00 151.15,84.00 151.15,84.00
             151.15,84.00 183.58,28.00 183.58,28.00
             187.03,22.04 195.33,5.99 199.53,1.99 Z" />
</svg>
