<svg xmlns="http://www.w3.org/2000/svg" width="160" height="138" viewBox="0 0 160 138">
  <defs>
    <style>
      .cls-1 {
        fill: #fff;
      }

      .cls-2 {
        fill: #070526;
      }

      .cls-3, .cls-4 {
        stroke: none;
      }

      .cls-4 {
        fill: #707070;
      }
    </style>
  </defs>
  <g id="Gruppe_1" data-name="Gruppe 1" transform="translate(-120 -528)">
    <g id="Polygon_2" data-name="Polygon 2" class="cls-1" transform="translate(120 528)">
      <path class="cls-3" d="M 119.7119064331055 137.5 L 40.28809356689453 137.5 L 0.5779480934143066 69 L 40.28809356689453 0.5 L 119.7119064331055 0.5 L 159.4220581054688 69 L 119.7119064331055 137.5 Z"/>
      <path class="cls-4" d="M 40.576171875 1 L 1.1558837890625 69 L 40.576171875 137 L 119.423828125 137 L 158.8441162109375 69 L 119.423828125 1 L 40.576171875 1 M 40 0 L 120 0 L 160 69 L 120 138 L 40 138 L 0 69 L 40 0 Z"/>
    </g>
    <g id="charge" transform="translate(171.614 540.421)">
      <path id="Pfad_2" data-name="Pfad 2" class="cls-2" d="M21.057,52.736a1.617,1.617,0,0,1-1.617-1.617V46.367a1.617,1.617,0,1,1,3.233,0v4.753A1.617,1.617,0,0,1,21.057,52.736Z" transform="translate(-19.44 24.357)"/>
      <path id="Pfad_3" data-name="Pfad 3" class="cls-2" d="M69.682,111.952H25.971a6.537,6.537,0,0,1-6.531-6.531v-3.767a1.617,1.617,0,0,1,3.233,0v3.767a3.3,3.3,0,0,0,3.3,3.3H69.682a3.3,3.3,0,0,0,3.3-3.3V13.747a3.309,3.309,0,0,0-3.3-3.314H25.971a3.309,3.309,0,0,0-3.3,3.314V58.2a1.617,1.617,0,1,1-3.233,0V13.747A6.545,6.545,0,0,1,25.971,7.2H69.682a6.545,6.545,0,0,1,6.531,6.547v91.674a6.537,6.537,0,0,1-6.531,6.531Z" transform="translate(-19.44 1.206)"/>
      <path id="Pfad_4" data-name="Pfad 4" class="cls-2" d="M21.057,62.676a1.617,1.617,0,0,1-1.617-1.617V56.307a1.617,1.617,0,1,1,3.233,0v4.753A1.617,1.617,0,0,1,21.057,62.676Z" transform="translate(-19.44 30.485)"/>
      <path id="Pfad_5" data-name="Pfad 5" class="cls-2" d="M53.121,13.647H30.674a1.617,1.617,0,0,1-1.617-1.617V4.8a2.8,2.8,0,0,1,2.8-2.8H51.937a2.8,2.8,0,0,1,2.8,2.8v7.231A1.617,1.617,0,0,1,53.121,13.647ZM32.29,10.414H51.5V5.233H32.29Z" transform="translate(-13.511 -2)"/>
      <path id="Pfad_6" data-name="Pfad 6" class="cls-2" d="M34.108,69.96a1.617,1.617,0,0,1-1.576-1.972l3.254-14.4-7.818-4.294a1.617,1.617,0,0,1-.285-2.635L50.928,26.4a1.617,1.617,0,0,1,2.645,1.547L50.311,43.659,57.972,47.9a1.617,1.617,0,0,1,.246,2.662L35.136,69.59a1.607,1.607,0,0,1-1.028.37ZM31.554,47.571l6.854,3.763a1.617,1.617,0,0,1,.8,1.778L36.727,64.094l17.6-14.513L47.7,45.916a1.617,1.617,0,0,1-.8-1.743L49.428,32Z" transform="translate(-14.699 12.797)"/>
    </g>
  </g>
</svg>
