<svg id="Icons" height="512" viewBox="0 0 74 74" width="512" xmlns="http://www.w3.org/2000/svg"><path d="m20.44 49.69a1 1 0 0 1 -1-1v-2.94a1 1 0 0 1 2 0v2.94a1 1 0 0 1 -1 1z"/><path d="m50.52 72h-27.04a4.044 4.044 0 0 1 -4.04-4.04v-2.33a1 1 0 0 1 2 0v2.33a2.042 2.042 0 0 0 2.04 2.04h27.04a2.042 2.042 0 0 0 2.04-2.04v-56.71a2.047 2.047 0 0 0 -2.04-2.05h-27.04a2.047 2.047 0 0 0 -2.04 2.05v27.5a1 1 0 0 1 -2 0v-27.5a4.049 4.049 0 0 1 4.04-4.05h27.04a4.049 4.049 0 0 1 4.04 4.05v56.71a4.044 4.044 0 0 1 -4.04 4.04z"/><path d="m20.44 59.63a1 1 0 0 1 -1-1v-2.94a1 1 0 0 1 2 0v2.94a1 1 0 0 1 -1 1z"/><path d="m43.943 9.205h-13.886a1 1 0 0 1 -1-1v-4.473a1.734 1.734 0 0 1 1.732-1.732h12.422a1.734 1.734 0 0 1 1.732 1.732v4.473a1 1 0 0 1 -1 1zm-12.886-2h11.886v-3.205h-11.886z"/><path d="m31.447 53.194a1 1 0 0 1 -.975-1.22l2.013-8.911-4.836-2.656a1 1 0 0 1 -.176-1.63l14.379-12.531a1 1 0 0 1 1.636.957l-2.018 9.721 4.739 2.621a1 1 0 0 1 .152 1.647l-14.278 11.773a.994.994 0 0 1 -.636.229zm-1.58-13.85 4.24 2.328a1 1 0 0 1 .495 1.1l-1.535 6.793 10.888-8.978-4.1-2.267a1 1 0 0 1 -.495-1.078l1.564-7.533z"/></svg>