<svg xmlns="http://www.w3.org/2000/svg" width="160" height="138" viewBox="0 0 160 138">
  <defs>
    <style>
      .cls-1 {
        fill: #fff;
      }

      .cls-2, .cls-3 {
        stroke: none;
      }

      .cls-3 {
        fill: #707070;
      }
    </style>
  </defs>
  <g id="Gruppe_2" data-name="Gruppe 2" transform="translate(-184 -496)">
    <g id="Polygon_2" data-name="Polygon 2" class="cls-1" transform="translate(184 496)">
      <path class="cls-2" d="M 119.7119064331055 137.5 L 40.28809356689453 137.5 L 0.5779480934143066 69 L 40.28809356689453 0.5 L 119.7119064331055 0.5 L 159.4220581054688 69 L 119.7119064331055 137.5 Z"/>
      <path class="cls-3" d="M 40.576171875 1 L 1.1558837890625 69 L 40.576171875 137 L 119.423828125 137 L 158.8441162109375 69 L 119.423828125 1 L 40.576171875 1 M 40 0 L 120 0 L 160 69 L 120 138 L 40 138 L 0 69 L 40 0 Z"/>
    </g>
    <g id="Compatible" transform="translate(215 514.696)">
      <path id="Pfad_16" data-name="Pfad 16" d="M97.138,61.723,89.25,53.834c-.028-.033-.058-.065-.089-.1A3.752,3.752,0,0,0,82.885,55.4a5.521,5.521,0,0,1-1.428,2.463l-.219.219a5.534,5.534,0,1,1-7.826-7.827l.219-.219A5.529,5.529,0,0,1,76.094,48.6a3.751,3.751,0,0,0,1.657-6.275c-.03-.03-.061-.06-.093-.087l-7.89-7.89A5.641,5.641,0,0,0,66.1,32.7a5.661,5.661,0,0,0-1.65-3.661l-7.981-7.98A3.752,3.752,0,0,0,50.2,22.713a5.531,5.531,0,0,1-1.428,2.463l-.219.219a5.534,5.534,0,0,1-7.827-7.827l.219-.219A5.525,5.525,0,0,1,43.4,15.921a3.752,3.752,0,0,0,1.657-6.276l-7.98-7.98a5.7,5.7,0,0,0-8.045,0L21.174,9.528A9.4,9.4,0,0,0,18.793,5.5l-.219-.219A9.394,9.394,0,1,0,5.289,18.564l.219.219a9.4,9.4,0,0,0,4.03,2.381L1.666,29.037a5.688,5.688,0,0,0,0,8.044L9.52,44.935a9.391,9.391,0,0,0-3.994,2.371l-.219.219A9.394,9.394,0,0,0,18.592,60.811l.219-.219A9.393,9.393,0,0,0,21.182,56.6l7.855,7.855A5.642,5.642,0,0,0,32.7,66.105a5.658,5.658,0,0,0,1.651,3.661l7.98,7.98a3.752,3.752,0,0,0,6.275-1.657,5.514,5.514,0,0,1,1.428-2.463l.219-.219a5.534,5.534,0,1,1,7.826,7.827l-.219.219A5.529,5.529,0,0,1,55.4,82.882a3.752,3.752,0,0,0-1.658,6.275l7.98,7.98a5.688,5.688,0,0,0,8.044,0l7.686-7.686a9.3,9.3,0,0,0,2.2,3.481l.219.219A9.394,9.394,0,1,0,93.163,79.868l-.219-.219a9.285,9.285,0,0,0-3.482-2.2l7.677-7.677a5.694,5.694,0,0,0,0-8.044ZM23.786,53.742a3.728,3.728,0,0,0-3.634-.973A3.691,3.691,0,0,0,17.511,55.4a5.529,5.529,0,0,1-1.428,2.463l-.219.219a5.534,5.534,0,0,1-7.827-7.827l.219-.219a5.535,5.535,0,0,1,2.463-1.428,3.751,3.751,0,0,0,1.658-6.275L4.4,34.352a1.828,1.828,0,0,1,0-2.586l8-8a3.774,3.774,0,0,0,.972-3.641,3.694,3.694,0,0,0-2.644-2.639,5.52,5.52,0,0,1-2.485-1.434l-.219-.219a5.534,5.534,0,0,1,7.826-7.827l.22.219A5.52,5.52,0,0,1,17.5,10.712a3.694,3.694,0,0,0,2.64,2.644,3.774,3.774,0,0,0,3.64-.972l7.989-7.989a1.831,1.831,0,0,1,2.586,0l7.855,7.855a9.4,9.4,0,0,0-3.994,2.371l-.219.219A9.394,9.394,0,0,0,51.278,28.124l.219-.219a9.391,9.391,0,0,0,2.371-3.994l7.855,7.855a1.831,1.831,0,0,1,0,2.586h0l-7.677,7.677a9.294,9.294,0,0,0-2.206-3.481l-.219-.219A9.394,9.394,0,1,0,38.337,51.613l.219.219a9.288,9.288,0,0,0,3.1,2.059l.235.294-7.538,7.538a1.829,1.829,0,0,1-2.586,0Zm70.623,13.3-7.8,7.8a3.751,3.751,0,0,0,1.446,6.211,5.47,5.47,0,0,1,2.154,1.335l.219.219a5.534,5.534,0,1,1-7.827,7.827l-.219-.219a5.48,5.48,0,0,1-1.335-2.154A3.751,3.751,0,0,0,74.842,86.6l-7.8,7.8a1.831,1.831,0,0,1-2.586,0L56.6,86.554a9.391,9.391,0,0,0,3.994-2.371l.219-.219A9.394,9.394,0,0,0,47.526,70.679l-.219.219a9.384,9.384,0,0,0-2.371,3.994l-7.855-7.855a1.83,1.83,0,0,1,0-2.586l8.758-8.758a1.93,1.93,0,0,0,.143-2.57l-1.646-2.061a1.938,1.938,0,0,0-.9-.626A5.459,5.459,0,0,1,41.285,49.1l-.219-.218a5.535,5.535,0,0,1,7.827-7.827l.219.22a5.469,5.469,0,0,1,1.335,2.154,3.752,3.752,0,0,0,6.21,1.446l7.8-7.8a1.827,1.827,0,0,1,2.586,0l7.852,7.853A9.389,9.389,0,0,0,70.9,47.3l-.219.219A9.394,9.394,0,0,0,83.967,60.807l.219-.219a9.4,9.4,0,0,0,2.37-3.99l7.853,7.853a1.831,1.831,0,0,1,0,2.586Zm0,0" transform="translate(0 0)"/>
      <path id="Pfad_17" data-name="Pfad 17" d="M55.072,133.849a1.931,1.931,0,0,0-2.729,0l-5.4,5.4a1.93,1.93,0,0,0,0,2.73l5.389,5.389a1.93,1.93,0,1,0,2.729-2.729l-4.024-4.025,4.033-4.033a1.931,1.931,0,0,0,0-2.729Zm0,0" transform="translate(-37.429 -107.562)"/>
      <path id="Pfad_18" data-name="Pfad 18" d="M102.493,215.434a1.93,1.93,0,1,0,1.364.565A1.941,1.941,0,0,0,102.493,215.434Zm0,0" transform="translate(-81.157 -173.86)"/>
    </g>
  </g>
</svg>
