<svg xmlns="http://www.w3.org/2000/svg" width="160" height="138" viewBox="0 0 160 138">
  <defs>
    <style>
      .cls-1 {
        fill: #fff;
      }

      .cls-2, .cls-3 {
        stroke: none;
      }

      .cls-3 {
        fill: #707070;
      }
    </style>
  </defs>
  <g id="Gruppe_1" data-name="Gruppe 1" transform="translate(-184 -496)">
    <g id="Polygon_2" data-name="Polygon 2" class="cls-1" transform="translate(184 496)">
      <path class="cls-2" d="M 119.7119064331055 137.5 L 40.28809356689453 137.5 L 0.5779480934143066 69 L 40.28809356689453 0.5 L 119.7119064331055 0.5 L 159.4220581054688 69 L 119.7119064331055 137.5 Z"/>
      <path class="cls-3" d="M 40.576171875 1 L 1.1558837890625 69 L 40.576171875 137 L 119.423828125 137 L 158.8441162109375 69 L 119.423828125 1 L 40.576171875 1 M 40 0 L 120 0 L 160 69 L 120 138 L 40 138 L 0 69 L 40 0 Z"/>
    </g>
    <g id="Environmental" transform="translate(216.204 539.793)">
      <path id="Pfad_10" data-name="Pfad 10" d="M13.416,170.539l8.988,4.493v10.048a1.867,1.867,0,0,0,1.867,1.867H44.062a1.867,1.867,0,0,0,1.867-1.867V160.706a11.051,11.051,0,0,0-9.968-11.033c-.022-.006-7.9-1.236-11.551-4.89l-4.193-4.191a7.419,7.419,0,0,0-5.28-2.188V123.468a7.468,7.468,0,1,0-14.936,0V148.83a24.274,24.274,0,0,0,13.416,21.709ZM3.734,123.468a3.734,3.734,0,1,1,7.468,0v15.937a7.466,7.466,0,0,0-1.546,11.747l9.561,9.563a1.867,1.867,0,0,0,2.641-2.64L12.3,148.512a3.734,3.734,0,0,1,1.395-6.161h0a3.73,3.73,0,0,1,3.883.883l4.193,4.191c4.329,4.329,13.787,5.958,13.806,5.963a7.332,7.332,0,0,1,6.62,7.319v22.507H26.139v-9.335a1.867,1.867,0,0,0-1.032-1.67L15.086,167.2A20.427,20.427,0,0,1,3.734,148.83Z" transform="translate(0 -97.329)"/>
      <path id="Pfad_11" data-name="Pfad 11" d="M132.139,58.941a1.867,1.867,0,0,0,3.734,0v-5.6h7.147a19.013,19.013,0,0,0,18.992-18.992V25.334a1.867,1.867,0,0,0-3.187-1.32A10.809,10.809,0,0,1,151.13,27.2a18.976,18.976,0,0,0-15.257,7.7V17.866a1.867,1.867,0,0,0-3.734,0v9.563a18.976,18.976,0,0,0-15.257-7.7,10.809,10.809,0,0,1-7.694-3.187A1.867,1.867,0,0,0,106,17.866V26.88a19.013,19.013,0,0,0,18.992,18.992h7.147ZM151.13,30.936a14.533,14.533,0,0,0,7.147-1.859v5.272A15.275,15.275,0,0,1,143.02,49.606h-3.413l10.455-7.842a1.867,1.867,0,0,0-2.24-2.987l-11.949,8.962V46.193A15.275,15.275,0,0,1,151.13,30.936Zm-41.4-4.055V21.608a14.533,14.533,0,0,0,7.147,1.859,15.275,15.275,0,0,1,15.257,15.258v1.546L120.19,31.309a1.867,1.867,0,1,0-2.24,2.987L128.4,42.138h-3.413A15.275,15.275,0,0,1,109.734,26.88Z" transform="translate(-86.209 -15.999)"/>
      <ellipse id="Ellipse_2" data-name="Ellipse 2" cx="1.721" cy="2.065" rx="1.721" ry="2.065" transform="translate(83.961 66.756)"/>
      <path id="Pfad_12" data-name="Pfad 12" d="M304.461,116a7.477,7.477,0,0,0-7.468,7.468V138.4a7.418,7.418,0,0,0-5.28,2.188l-4.194,4.192c-3.573,3.573-11.519,4.883-11.538,4.888A11.055,11.055,0,0,0,266,160.707v24.374a1.867,1.867,0,0,0,1.867,1.867h19.791a1.867,1.867,0,0,0,1.867-1.867V175.032l6.111-3.055a1.867,1.867,0,0,0-1.67-3.34l-7.143,3.571a1.868,1.868,0,0,0-1.032,1.67v9.335H269.734V160.706a7.335,7.335,0,0,1,6.633-7.32c.019-.005,9.228-1.4,13.792-5.961l4.194-4.192a3.731,3.731,0,0,1,3.883-.882h0a3.734,3.734,0,0,1,1.395,6.162l-9.561,9.563a1.867,1.867,0,1,0,2.641,2.64l9.561-9.563a7.467,7.467,0,0,0-1.546-11.747V123.468a3.734,3.734,0,0,1,7.468,0V148.83a20.593,20.593,0,0,1-2.493,9.807,1.867,1.867,0,0,0,3.281,1.784,24.337,24.337,0,0,0,2.947-11.591V123.468A7.477,7.477,0,0,0,304.461,116Z" transform="translate(-216.337 -97.329)"/>
    </g>
  </g>
</svg>
