<?xml version="1.0" encoding="UTF-8" standalone="no"?>
<svg
   xmlns="http://www.w3.org/2000/svg"
   width="6.2638674in"
   height="11.818153in"
   viewBox="0 0 450.99813 850.90995"
>
  <path
     d="m 36.499052,0.5 c -21.04,5.06 -35.97000042,22.15 -36.00000042,43.91 0,0 0,148 0,148 0,0 0,614 0,614 0.01,6.35 0.35,10.03 2.87000002,16 6.9200004,16.39 22.1000004,27.91 40.1300004,28 0,0 50,0 50,0 0,0 312.999998,0 312.999998,0 24.48,-0.04 43.96,-19.52 44,-44 0,0 0,-58 0,-58 0,0 0,-343 0,-343 0,0 0,-361 0,-361 -0.01,-6.35 -0.35,-10.03 -2.87,-16 -6.92,-16.39 -22.1,-27.91 -40.13,-27.91 0,0 -48,0 -48,0 0,0 -215,0 -215,0 0,0 -69.999998,0 -69.999998,0 0,0 -38,0 -38,0 z m 15,29.98 c 0,0 40,0 40,0 0,0 75.999998,0 75.999998,0 0,0 225,0 225,0 9.49,-0.06 20.68,0.26 25.55,9.93 1.84,3.66 2.44,13.69 2.45,18 0,0 0,149 0,149 0,0 0,585 0,585 -0.01,8.24 -0.17,17.99 -7.04,23.61 -4.52,3.69 -13.21,4.32 -18.96,4.39 0,0 -58,0 -58,0 0,0 -277.999998,0 -277.999998,0 -9.76,-0.02 -21.7,-0.44 -25.99,-11 -1.09,-2.68 -1.97,-11.86 -2.01,-15 0,0 0,-118 0,-118 0,0 0,-476 0,-476 0,0 0,-144 0,-144 0.11,-9.28 1.13,-19.98 11,-23.99 2.31,-0.94 7.27,-1.33 10,-1.94 z M 217.49905,172.94 c -14.22,4.2 -22.93,14.47 -23,29.47 -0.01,2.88 -0.11,6.21 0.53,9 3.05,13.29 14.93,22.83 28.47,23 10.43,0.12 18.55,-1.73 25.79,-10.02 4.67,-5.34 7.12,-11.94 7.21,-18.98 0.03,-3.01 0.13,-7.12 -0.53,-10 -3.22,-14.03 -15.4,-22.94 -29.47,-23 -3.48,-0.01 -5.52,-0.04 -9,0.53 z m 4,10.8 c 9.62,-1.07 18.04,2.46 22.43,11.67 5.27,11.04 -2.54,25.53 -14.43,27.67 -19.32,3.48 -33.81,-20.45 -16,-35.45 2.96,-2.49 4.37,-2.99 8,-3.89 z M 76.539052,73.99 c -7.16,4.33 -5.05,14.1 -5.04,21.42 0.01,4.03 -0.39,8.53 3.23,11.26 3.44,2.6 14.23,1.75 18.77,1.74 3.62,-0.01 7.779998,0.36 10.569998,-2.43 3.59,-3.59 2.46,-15.47 2.43,-20.57 -0.02,-2.97 0.15,-6.27 -1.74,-8.77 -1.13,-1.5 -2.49,-2.3 -4.28,-2.65 -3.669998,-1.19 -20.079998,-0.79 -23.939998,0 z m 7.01,6.76 c 3.43,-0.41 11.53,-1.06 14.1,1.51 2.769998,2.78 2.729998,15.48 -0.66,17.84 -2.14,1.48 -6.91,1.36 -9.49,1.3 -2.29,-0.06 -5.42,-0.12 -7.15,-1.84 -2.51,-2.52 -2.51,-13.8 -0.54,-16.64 1.11,-1.6 2.09,-1.62 3.74,-2.17 z m -19.05,-24.69 c -8.82,3.71 -9.99,8.58 -10,17.35 0,0 0,40 0,40 0.07,12.72 5.81,16.98 18,17 0,0 85.999998,0 85.999998,0 7.23,-0.01 12.86,-0.72 16.55,-8 2.04,-4.03 1.45,-11.38 1.45,-16 0,0 0,-33 0,-33 -0.02,-13.12 -4.88,-17.98 -18,-18 0,0 -61.999998,0 -61.999998,0 0,0 -32,0.65 -32,0.65 z m 9,9.45 c 0,0 29.999998,0 29.999998,0 0,0 49,0 49,0 11.92,0.04 13.95,3.49 14,14.9 0,0 0,24 0,24 -0.01,4.71 0.31,11.12 -4.14,14.07 -4.23,2.8 -18.33,1.93 -23.86,1.93 0,0 -57.999998,0 -57.999998,0 -3.93,-0.01 -9.57,0.17 -12.7,-2.56 -3.11,-2.71 -3.25,-7.63 -3.3,-11.44 0,0 0,-26 0,-26 0.04,-8.01 0.18,-12.74 9,-14.9 z" />
  <path
     d="m 224.49905,273.41 c 0,0 -51,29.85 -51,29.85 -3.71,2.13 -14.92,7.82 -16.4,11.33 -0.72,1.72 -0.6,4.91 -0.6,6.82 0,0 0,22 0,22 0.15,7.92 2.59,8.95 10,9 0,0 48,0 48,0 9.68,-0.02 10.98,-1.32 11,-11 0,0 0,-46 0,-46 0,-5.41 0.78,-17.51 -1,-22 z m 4,1 c 0,0 0,67 0,67 0.02,7.66 0.3,10.84 9,11 0,0 49,0 49,0 2.77,-0.01 6.44,0.29 8.69,-1.6 2.28,-1.93 2.26,-4.67 2.31,-7.4 0,0 0,-22 0,-22 -0.02,-9.66 -0.99,-8.85 -15,-16.85 0,0 -34,-19.57 -34,-19.57 -5.98,-3.47 -13.52,-8.69 -20,-10.58 z m -76,41 c 0,0 -62.999998,36 -62.999998,36 4.35,1.73 13.049998,1 17.999998,1 0,0 35,0 35,0 3.18,-0.01 7.13,0.38 9.4,-2.31 1.76,-2.09 1.58,-5.13 1.6,-7.69 0.04,-5.92 0.84,-22.36 -1,-27 z m 148,0 c 0,0 0,27 0,27 0.06,9.25 2.32,9.98 11,10 0,0 53,0 53,0 0,0 -30,-17.85 -30,-17.85 0,0 -34,-19.15 -34,-19.15 z m -215.999998,40 c 0,0 0,80 0,80 0,0 57.999998,0 57.999998,0 8.68,-0.02 10.94,-0.75 11,-10 0,0 0,-59 0,-59 -0.02,-8.68 -0.75,-10.94 -10,-11 0,0 -58.999998,0 -58.999998,0 z m 75.149998,1.02 c -4.92,4.36 -3.15,12.9 -3.15,18.98 0,0 0,49 0,49 0.02,7.66 0.3,10.84 9,11 0,0 49,0 49,0 8.68,-0.02 10.94,-0.75 11,-10 0,0 0,-59 0,-59 -0.02,-8.68 -0.75,-10.94 -10,-11 0,0 -37,0 -37,0 -5.55,0 -13.81,-0.77 -18.85,1.02 z m 72,0 c -4.92,4.36 -3.15,12.9 -3.15,18.98 0,0 0,49 0,49 0.02,7.66 0.3,10.84 9,11 0,0 49,0 49,0 8.68,-0.02 10.94,-0.75 11,-10 0,0 0,-59 0,-59 -0.02,-8.68 -0.75,-10.94 -10,-11 0,0 -37,0 -37,0 -5.55,0 -13.81,-0.77 -18.85,1.02 z m 137.85,78.98 c 0,0 0,-80 0,-80 0,0 -58,0 -58,0 -8.68,0.02 -10.94,0.75 -11,10 0,0 0,59 0,59 0.02,8.68 0.75,10.94 10,11 0,0 59,0 59,0 z m -284.999998,3 c 0,0 0,79 0,79 0,0 57.999998,0 57.999998,0 8.68,-0.02 10.94,-0.75 11,-10 0,0 0,-58 0,-58 -0.02,-8.68 -0.75,-10.94 -10,-11 0,0 -58.999998,0 -58.999998,0 z m 75.149998,1.02 c -4.78,4.23 -3.15,12.09 -3.15,17.98 0,0 0,49 0,49 0.02,7.66 0.3,10.84 9,11 0,0 49,0 49,0 8.68,-0.02 10.94,-0.75 11,-10 0,0 0,-58 0,-58 -0.02,-8.68 -0.75,-10.94 -10,-11 0,0 -37,0 -37,0 -5.55,0 -13.81,-0.77 -18.85,1.02 z m 72,0 c -4.78,4.23 -3.15,12.09 -3.15,17.98 0,0 0,49 0,49 0.02,7.66 0.3,10.84 9,11 0,0 49,0 49,0 8.68,-0.02 10.94,-0.75 11,-10 0,0 0,-58 0,-58 -0.02,-8.68 -0.75,-10.94 -10,-11 0,0 -37,0 -37,0 -5.55,0 -13.81,-0.77 -18.85,1.02 z m 137.85,77.98 c 0,0 0,-79 0,-79 0,0 -58,0 -58,0 -8.68,0.02 -10.94,0.75 -11,10 0,0 0,58 0,58 0.02,8.68 0.75,10.94 10,11 0,0 59,0 59,0 z m -279.999998,3 c 0,0 36.999998,22.28 36.999998,22.28 0,0 27,14.72 27,14.72 0,0 0,-27 0,-27 -0.06,-9.25 -2.32,-9.98 -11,-10 0,0 -52.999998,0 -52.999998,0 z m 135.999998,79 c 0,0 0,-68 0,-68 -0.02,-7.66 -0.3,-10.84 -9,-11 0,0 -49,0 -49,0 -2.77,0.01 -6.44,-0.29 -8.69,1.6 -2.28,1.93 -2.26,4.67 -2.31,7.4 0,0 0,23 0,23 0,1.75 -0.14,5.08 0.57,6.61 1.29,2.78 12.3,8.45 15.43,10.24 0,0 53,30.15 53,30.15 z m 3,0 c 0,0 23,-12.99 23,-12.99 0,0 29,-16.73 29,-16.73 3.99,-2.27 14.79,-7.41 16.4,-11.38 0.72,-1.77 0.6,-4.95 0.6,-6.9 0,0 0,-20 0,-20 -0.02,-7.66 -0.3,-10.84 -9,-11 0,0 -49,0 -49,0 -2.35,0 -5.8,-0.19 -7.85,1.02 -4.61,2.73 -3.15,14.11 -3.15,18.98 0,0 0,59 0,59 z m 72,-42 c 0,0 23,-12.58 23,-12.58 0,0 41,-23.42 41,-23.42 -4.35,-1.73 -13.05,-1 -18,-1 0,0 -36,0 -36,0 -2.96,0.02 -6.29,-0.19 -8.4,2.31 -1.89,2.25 -1.59,5.92 -1.6,8.69 0,0 0,26 0,26 z" />
</svg>
