<?xml version="1.0" encoding="UTF-8" standalone="no"?>
<!DOCTYPE svg PUBLIC "-//W3C//DTD SVG 20010904//EN"
              "http://www.w3.org/TR/2001/REC-SVG-20010904/DTD/svg10.dtd">

<svg xmlns="http://www.w3.org/2000/svg"
     width="2.65667in" height="2.30333in"
     viewBox="0 0 797 691">
  <path id="Auswahl"
        fill="White" stroke="White" stroke-width="1"
        d="M 202.53,4.99
           C 206.42,3.46 210.85,4.00 215.00,4.00
             215.00,4.00 238.00,4.00 238.00,4.00
             238.00,4.00 319.00,4.00 319.00,4.00
             319.00,4.00 594.00,4.00 594.00,4.00
             602.91,4.02 601.89,4.06 609.85,18.00
             609.85,18.00 628.99,51.00 628.99,51.00
             628.99,51.00 718.43,206.00 718.43,206.00
             718.43,206.00 776.28,306.00 776.28,306.00
             776.28,306.00 790.15,330.00 790.15,330.00
             791.80,332.88 795.74,339.20 796.75,342.00
             797.11,344.21 797.03,347.66 796.75,350.00
             796.87,359.68 790.12,367.91 785.42,376.00
             785.42,376.00 758.30,423.00 758.30,423.00
             758.30,423.00 715.43,497.00 715.43,497.00
             715.43,497.00 671.43,573.00 671.43,573.00
             671.43,573.00 646.80,616.00 646.80,616.00
             646.80,616.00 613.80,673.00 613.80,673.00
             604.63,688.36 606.08,690.98 595.00,691.00
             595.00,691.00 209.00,691.00 209.00,691.00
             206.61,691.00 203.31,691.21 201.21,689.98
             198.58,688.45 195.04,681.81 193.43,679.00
             193.43,679.00 179.14,654.00 179.14,654.00
             179.14,654.00 109.15,533.00 109.15,533.00
             109.15,533.00 32.85,401.00 32.85,401.00
             32.85,401.00 12.58,366.00 12.58,366.00
             10.40,362.20 4.45,352.95 4.34,349.00
             4.26,345.93 6.37,342.61 7.85,340.00
             7.85,340.00 17.80,323.00 17.80,323.00
             17.80,323.00 53.00,262.00 53.00,262.00
             53.00,262.00 154.15,87.00 154.15,87.00
             154.15,87.00 186.58,31.00 186.58,31.00
             190.03,25.04 198.33,8.99 202.53,4.99 Z" />
</svg>
