<?xml version="1.0" encoding="UTF-8" standalone="no"?>
<svg
   xmlns:dc="http://purl.org/dc/elements/1.1/"
   xmlns:cc="http://creativecommons.org/ns#"
   xmlns:rdf="http://www.w3.org/1999/02/22-rdf-syntax-ns#"
   xmlns:svg="http://www.w3.org/2000/svg"
   xmlns="http://www.w3.org/2000/svg"

   width="6.2638674in"
   height="11.818153in"
   viewBox="0 0 450.99813 850.90995">
	<path
     id="Auswahl #1-12"
     fill="#000000"
     stroke="#000000"
     stroke-width="0.273552"
     d="m 144.10051,439.88291 c 0,0 -13.95112,8.16552 -13.95112,8.16552 -1.01488,0.58266 -4.08139,2.13917 -4.48625,3.09934 -0.19696,0.47051 -0.16413,1.34314 -0.16413,1.86562 0,0 0,6.01814 0,6.01814 0.041,2.16653 0.7085,2.44828 2.73552,2.46196 0,0 13.13048,0 13.13048,0 2.64797,-0.005 3.00359,-0.36109 3.00906,-3.00907 0,0 0,-12.58338 0,-12.58338 0,-1.47991 0.21337,-4.78989 -0.27356,-6.01813 z m 1.09421,0.27355 c 0,0 0,18.32796 0,18.32796 0.005,2.09541 0.0821,2.9653 2.46197,3.00907 0,0 13.40403,0 13.40403,0 0.75774,-0.003 1.76167,0.0793 2.37716,-0.43768 0.6237,-0.52796 0.61823,-1.27749 0.63191,-2.02428 0,0 0,-6.01814 0,-6.01814 -0.005,-2.64251 -0.27082,-2.42093 -4.10328,-4.60935 0,0 -9.30076,-5.3534 -9.30076,-5.3534 -1.63583,-0.94923 -3.69841,-2.37717 -5.47103,-2.89418 z m -20.78992,11.21562 c 0,0 -17.23376,9.84786 -17.23376,9.84786 1.18995,0.47324 3.56985,0.27355 4.92393,0.27355 0,0 9.57432,0 9.57432,0 0.86989,-0.003 1.95042,0.10395 2.57138,-0.6319 0.48145,-0.57173 0.43221,-1.40332 0.43768,-2.10362 0.0109,-1.61942 0.22979,-6.11661 -0.27355,-7.38589 z m 40.48564,0 c 0,0 0,7.38589 0,7.38589 0.0164,2.53036 0.63464,2.73005 3.00907,2.73552 0,0 14.49824,0 14.49824,0 0,0 -8.20655,-4.8829 -8.20655,-4.8829 0,0 -9.30076,-5.23851 -9.30076,-5.23851 z m -59.08715,10.94207 c 0,0 0,21.88413 0,21.88413 0,0 15.866,0 15.866,0 2.37442,-0.005 2.99265,-0.20516 3.00906,-2.73552 0,0 0,-16.13955 0,-16.13955 -0.005,-2.37442 -0.20516,-2.99265 -2.73551,-3.00906 0,0 -16.13955,0 -16.13955,0 z m 20.5574,0.27902 c -1.34587,1.19268 -0.86168,3.52882 -0.86168,5.19201 0,0 0,13.40403 0,13.40403 0.005,2.09541 0.0821,2.9653 2.46195,3.00907 0,0 13.40405,0 13.40405,0 2.37442,-0.005 2.99264,-0.20516 3.00906,-2.73552 0,0 0,-16.13955 0,-16.13955 -0.005,-2.37442 -0.20517,-2.99265 -2.73552,-3.00906 0,0 -10.12141,0 -10.12141,0 -1.51821,0 -3.77774,-0.21064 -5.15645,0.27902 z m 19.69572,0 c -1.34588,1.19268 -0.86169,3.52882 -0.86169,5.19201 0,0 0,13.40403 0,13.40403 0.005,2.09541 0.0821,2.9653 2.46197,3.00907 0,0 13.40403,0 13.40403,0 2.37443,-0.005 2.99265,-0.20516 3.00907,-2.73552 0,0 0,-16.13955 0,-16.13955 -0.005,-2.37442 -0.20517,-2.99265 -2.73552,-3.00906 0,0 -10.12141,0 -10.12141,0 -1.51821,0 -3.77775,-0.21064 -5.15645,0.27902 z m 37.70911,21.60511 c 0,0 0,-21.88413 0,-21.88413 0,0 -15.86601,0 -15.86601,0 -2.37443,0.005 -2.99265,0.20516 -3.00907,2.73551 0,0 0,16.13955 0,16.13955 0.005,2.37443 0.20517,2.99266 2.73552,3.00907 0,0 16.13956,0 16.13956,0 z m -77.96223,0.82066 c 0,0 0,21.61058 0,21.61058 0,0 15.866,0 15.866,0 2.37442,-0.005 2.99265,-0.20516 3.00906,-2.73552 0,0 0,-15.866 0,-15.866 -0.005,-2.37442 -0.20516,-2.99265 -2.73551,-3.00906 0,0 -16.13955,0 -16.13955,0 z m 20.5574,0.27902 c -1.30757,1.15712 -0.86168,3.30724 -0.86168,4.91846 0,0 0,13.40403 0,13.40403 0.005,2.09541 0.0821,2.9653 2.46195,3.00907 0,0 13.40405,0 13.40405,0 2.37442,-0.005 2.99264,-0.20516 3.00906,-2.73552 0,0 0,-15.866 0,-15.866 -0.005,-2.37442 -0.20517,-2.99265 -2.73552,-3.00906 0,0 -10.12141,0 -10.12141,0 -1.51821,0 -3.77774,-0.21064 -5.15645,0.27902 z m 19.69572,0 c -1.30758,1.15712 -0.86169,3.30724 -0.86169,4.91846 0,0 0,13.40403 0,13.40403 0.005,2.09541 0.0821,2.9653 2.46197,3.00907 0,0 13.40403,0 13.40403,0 2.37443,-0.005 2.99265,-0.20516 3.00907,-2.73552 0,0 0,-15.866 0,-15.866 -0.005,-2.37442 -0.20517,-2.99265 -2.73552,-3.00906 0,0 -10.12141,0 -10.12141,0 -1.51821,0 -3.77775,-0.21064 -5.15645,0.27902 z m 37.70911,21.33156 c 0,0 0,-21.61058 0,-21.61058 0,0 -15.86601,0 -15.86601,0 -2.37443,0.005 -2.99265,0.20516 -3.00907,2.73551 0,0 0,15.866 0,15.866 0.005,2.37443 0.20517,2.99266 2.73552,3.00907 0,0 16.13956,0 16.13956,0 z m -76.59448,0.82065 c 0,0 10.12141,6.09474 10.12141,6.09474 0,0 7.3859,4.02667 7.3859,4.02667 0,0 0,-7.38589 0,-7.38589 -0.0164,-2.53035 -0.63464,-2.73004 -3.00906,-2.73552 0,0 -14.49825,0 -14.49825,0 z m 37.20303,21.61058 c 0,0 0,-18.60151 0,-18.60151 -0.005,-2.0954 -0.0821,-2.9653 -2.46197,-3.00907 0,0 -13.40402,0 -13.40402,0 -0.75774,0.003 -1.76167,-0.0793 -2.37717,0.43769 -0.62369,0.52795 -0.61822,1.27748 -0.6319,2.02428 0,0 0,6.29169 0,6.29169 0,0.47871 -0.0383,1.38964 0.15592,1.80818 0.35289,0.76046 3.36469,2.3115 4.2209,2.80115 0,0 14.49824,8.24759 14.49824,8.24759 z m 0.82065,0 c 0,0 6.29169,-3.55343 6.29169,-3.55343 0,0 7.933,-4.57653 7.933,-4.57653 1.09147,-0.62096 4.04583,-2.02702 4.48625,-3.11301 0.19695,-0.48419 0.16413,-1.35409 0.16413,-1.8875 0,0 0,-5.47104 0,-5.47104 -0.005,-2.0954 -0.0821,-2.9653 -2.46197,-3.00907 0,0 -13.40403,0 -13.40403,0 -0.64285,0 -1.5866,-0.052 -2.14738,0.27903 -1.26107,0.74679 -0.86169,3.85981 -0.86169,5.19201 0,0 0,16.13954 0,16.13954 z m 19.69572,-11.48917 c 0,0 6.29169,-3.44127 6.29169,-3.44127 0,0 11.21562,-6.40658 11.21562,-6.40658 -1.18995,-0.47325 -3.56985,-0.27356 -4.92393,-0.27356 0,0 -9.84786,0 -9.84786,0 -0.80971,0.005 -1.72064,-0.052 -2.29783,0.63191 -0.51702,0.61549 -0.43495,1.61943 -0.43769,2.37716 0,0 0,7.11234 0,7.11234 z" />
</svg>
