<?xml version="1.0" encoding="UTF-8" standalone="no"?>
<svg
   xmlns:dc="http://purl.org/dc/elements/1.1/"
   xmlns:cc="http://creativecommons.org/ns#"
   xmlns:rdf="http://www.w3.org/1999/02/22-rdf-syntax-ns#"
   xmlns:svg="http://www.w3.org/2000/svg"
   xmlns="http://www.w3.org/2000/svg"

   width="6.2638674in"
   height="11.818153in"
   viewBox="0 0 450.99813 850.90995">

  <path
     id="Auswahl #3"
     fill="#000000"
     stroke="#000000"
     stroke-width="1"
     d="m 36.499052,0.5 c -21.04,5.06 -35.97000042,22.15 -36.00000042,43.91 0,0 0,148 0,148 0,0 0,614 0,614 0.01,6.35 0.35,10.03 2.87000002,16 6.9200004,16.39 22.1000004,27.91 40.1300004,28 0,0 50,0 50,0 0,0 312.999998,0 312.999998,0 24.48,-0.04 43.96,-19.52 44,-44 0,0 0,-58 0,-58 0,0 0,-343 0,-343 0,0 0,-361 0,-361 -0.01,-6.35 -0.35,-10.03 -2.87,-16 -6.92,-16.39 -22.1,-27.91 -40.13,-27.91 0,0 -48,0 -48,0 0,0 -215,0 -215,0 0,0 -69.999998,0 -69.999998,0 0,0 -38,0 -38,0 z m 15,29.98 c 0,0 40,0 40,0 0,0 75.999998,0 75.999998,0 0,0 225,0 225,0 9.49,-0.06 20.68,0.26 25.55,9.93 1.84,3.66 2.44,13.69 2.45,18 0,0 0,149 0,149 0,0 0,585 0,585 -0.01,8.24 -0.17,17.99 -7.04,23.61 -4.52,3.69 -13.21,4.32 -18.96,4.39 0,0 -58,0 -58,0 0,0 -277.999998,0 -277.999998,0 -9.76,-0.02 -21.7,-0.44 -25.99,-11 -1.09,-2.68 -1.97,-11.86 -2.01,-15 0,0 0,-118 0,-118 0,0 0,-476 0,-476 0,0 0,-144 0,-144 0.11,-9.28 1.13,-19.98 11,-23.99 2.31,-0.94 7.27,-1.33 10,-1.94 z M 217.49905,172.94 c -14.22,4.2 -22.93,14.47 -23,29.47 -0.01,2.88 -0.11,6.21 0.53,9 3.05,13.29 14.93,22.83 28.47,23 10.43,0.12 18.55,-1.73 25.79,-10.02 4.67,-5.34 7.12,-11.94 7.21,-18.98 0.03,-3.01 0.13,-7.12 -0.53,-10 -3.22,-14.03 -15.4,-22.94 -29.47,-23 -3.48,-0.01 -5.52,-0.04 -9,0.53 z m 4,10.8 c 9.62,-1.07 18.04,2.46 22.43,11.67 5.27,11.04 -2.54,25.53 -14.43,27.67 -19.32,3.48 -33.81,-20.45 -16,-35.45 2.96,-2.49 4.37,-2.99 8,-3.89 z M 76.539052,73.99 c -7.16,4.33 -5.05,14.1 -5.04,21.42 0.01,4.03 -0.39,8.53 3.23,11.26 3.44,2.6 14.23,1.75 18.77,1.74 3.62,-0.01 7.779998,0.36 10.569998,-2.43 3.59,-3.59 2.46,-15.47 2.43,-20.57 -0.02,-2.97 0.15,-6.27 -1.74,-8.77 -1.13,-1.5 -2.49,-2.3 -4.28,-2.65 -3.669998,-1.19 -20.079998,-0.79 -23.939998,0 z m 7.01,6.76 c 3.43,-0.41 11.53,-1.06 14.1,1.51 2.769998,2.78 2.729998,15.48 -0.66,17.84 -2.14,1.48 -6.91,1.36 -9.49,1.3 -2.29,-0.06 -5.42,-0.12 -7.15,-1.84 -2.51,-2.52 -2.51,-13.8 -0.54,-16.64 1.11,-1.6 2.09,-1.62 3.74,-2.17 z m -19.05,-24.69 c -8.82,3.71 -9.99,8.58 -10,17.35 0,0 0,40 0,40 0.07,12.72 5.81,16.98 18,17 0,0 85.999998,0 85.999998,0 7.23,-0.01 12.86,-0.72 16.55,-8 2.04,-4.03 1.45,-11.38 1.45,-16 0,0 0,-33 0,-33 -0.02,-13.12 -4.88,-17.98 -18,-18 0,0 -61.999998,0 -61.999998,0 0,0 -32,0.65 -32,0.65 z m 9,9.45 c 0,0 29.999998,0 29.999998,0 0,0 49,0 49,0 11.92,0.04 13.95,3.49 14,14.9 0,0 0,24 0,24 -0.01,4.71 0.31,11.12 -4.14,14.07 -4.23,2.8 -18.33,1.93 -23.86,1.93 0,0 -57.999998,0 -57.999998,0 -3.93,-0.01 -9.57,0.17 -12.7,-2.56 -3.11,-2.71 -3.25,-7.63 -3.3,-11.44 0,0 0,-26 0,-26 0.04,-8.01 0.18,-12.74 9,-14.9 z" />
  </svg>
