<?xml version="1.0" encoding="UTF-8" standalone="no"?>
<!DOCTYPE svg PUBLIC "-//W3C//DTD SVG 20010904//EN"
              "http://www.w3.org/TR/2001/REC-SVG-20010904/DTD/svg10.dtd">

<svg xmlns="http://www.w3.org/2000/svg"
     width="2.31in" height="1.79667in"
     viewBox="0 0 693 539">
  <path id="Auswahl"
        fill="White" stroke="White" stroke-width="1"
        d="M 9.00,466.00
           C 9.00,466.00 168.00,466.00 168.00,466.00
             168.00,466.00 178.00,464.96 178.00,464.96
             178.00,464.96 187.00,464.96 187.00,464.96
             194.34,464.10 206.29,460.74 213.00,457.69
             239.80,445.52 258.65,416.44 259.00,387.00
             259.13,375.82 258.85,367.29 253.63,357.00
             248.03,345.95 238.10,338.07 228.00,331.33
             208.53,318.34 186.82,310.08 165.00,301.95
             117.93,284.41 71.80,271.85 35.00,235.00
             19.53,219.51 11.24,207.12 5.42,186.00
             2.72,176.17 0.88,158.23 1.00,148.00
             1.00,148.00 1.91,138.00 1.91,138.00
             6.13,77.64 44.15,26.62 102.00,7.33
             113.70,3.43 129.69,0.02 142.00,0.00
             142.00,0.00 548.00,0.00 548.00,0.00
             565.87,0.03 589.06,6.80 605.00,14.75
             622.27,23.37 638.83,34.61 651.83,49.00
             703.85,106.59 707.10,190.22 658.55,251.00
             633.69,282.12 588.61,307.94 548.00,308.00
             548.00,308.00 435.00,308.00 435.00,308.00
             435.00,308.00 435.00,539.00 435.00,539.00
             435.00,539.00 361.00,539.00 361.00,539.00
             361.00,539.00 361.00,300.00 361.00,300.00
             361.06,262.53 391.23,235.06 428.00,235.00
             428.00,235.00 505.00,235.00 505.00,235.00
             534.06,235.00 563.94,237.16 588.00,217.69
             593.88,212.93 598.71,208.00 603.32,202.00
             612.33,190.29 616.42,177.48 618.15,163.00
             622.08,130.17 606.42,100.26 578.00,83.45
             570.49,79.01 557.70,75.04 549.00,74.04
             549.00,74.04 541.00,74.04 541.00,74.04
             541.00,74.04 529.00,73.00 529.00,73.00
             529.00,73.00 161.00,73.00 161.00,73.00
             161.00,73.00 149.00,73.91 149.00,73.91
             136.62,74.76 129.79,74.99 118.00,80.31
             92.80,91.67 77.43,115.72 75.74,143.00
             75.74,143.00 75.74,151.00 75.74,151.00
             76.07,159.80 77.59,168.19 81.90,176.00
             91.62,193.62 118.76,208.62 137.00,216.42
             189.77,239.00 248.87,250.99 293.00,289.85
             296.57,292.99 298.46,294.32 301.83,298.00
             310.33,307.29 318.48,317.46 323.69,329.00
             333.37,350.47 333.26,370.15 333.00,393.00
             332.90,401.50 330.45,413.66 328.37,422.00
             316.29,470.54 282.04,508.89 236.00,527.99
             202.47,541.90 175.12,539.00 140.00,539.00
             140.00,539.00 9.00,539.00 9.00,539.00
             9.00,539.00 9.00,466.00 9.00,466.00 Z
           M 268.04,104.65
           C 273.48,103.50 282.17,104.00 288.00,104.00
             288.00,104.00 322.00,104.00 322.00,104.00
             322.00,104.00 429.00,104.00 429.00,104.00
             432.15,104.01 435.99,103.79 438.79,105.45
             443.82,108.44 443.82,115.56 438.79,118.55
             435.99,120.21 432.15,119.99 429.00,120.00
             429.00,120.00 296.00,120.00 296.00,120.00
             290.52,120.00 270.95,120.72 267.10,118.99
             261.09,116.29 260.18,108.30 268.04,104.65 Z
           M 202.04,140.65
           C 202.04,140.65 235.00,140.00 235.00,140.00
             235.00,140.00 298.00,140.00 298.00,140.00
             298.00,140.00 496.00,140.00 496.00,140.00
             499.15,140.01 502.99,139.79 505.79,141.45
             510.80,144.42 510.80,151.58 505.79,154.55
             502.99,156.21 499.15,155.99 496.00,156.00
             496.00,156.00 267.00,156.00 267.00,156.00
             267.00,156.00 210.00,156.00 210.00,156.00
             206.49,155.99 202.33,156.26 199.39,153.99
             193.85,149.71 196.37,143.28 202.04,140.65 Z
           M 344.04,176.65
           C 344.04,176.65 380.00,176.00 380.00,176.00
             380.00,176.00 450.00,176.00 450.00,176.00
             453.15,176.01 456.99,175.79 459.79,177.45
             464.82,180.44 464.82,187.56 459.79,190.55
             456.99,192.21 453.15,191.99 450.00,192.00
             450.00,192.00 352.00,192.00 352.00,192.00
             348.49,191.99 344.33,192.26 341.39,189.99
             335.85,185.71 338.37,179.28 344.04,176.65 Z" />
</svg>
